<?xml version="1.0" encoding="UTF-8" standalone="yes"?>
<svg version="1.2" baseProfile="tiny-ps"
     xmlns="http://www.w3.org/2000/svg"
     viewBox="0 0 1816 1852"
     xml:space="preserve">
  <title>Infinitum Nihil</title>
  <!--
    Infinitum Nihil
    USPTO Registration No. 8145923
    Serial No. 97981054
    Registered: February 17, 2026
    Vectorized from brand source PNG via potrace
    BIMI SVG Tiny 1.2 PS compliant
  -->
  <rect x="0" y="0" width="1816" height="1852" fill="#000000"/>
  <g transform="translate(0.000000,1852.000000) scale(0.100000,-0.100000)" fill="#BE0F34" stroke="none">

<path d="M608 18515 c-3 -3 -31 -6 -62 -6 -48 -1 -56 -4 -56 -20 0 -17 -8 -19
-75 -19 -73 0 -75 -1 -75 -25 0 -26 -13 -31 -68 -26 -18 1 -24 -5 -28 -29 -5
-20 -12 -30 -25 -30 -12 0 -19 -7 -19 -20 0 -16 -7 -20 -37 -20 -74 0 -113
-11 -113 -31 0 -14 -7 -19 -25 -19 l-25 0 0 -9065 0 -9065 75 0 c73 0 75 -1
75 -25 l0 -25 1550 0 1550 0 0 -45 c0 -45 0 -45 35 -45 28 0 35 4 35 20 0 15
7 20 25 20 20 0 25 5 25 25 0 22 4 25 35 25 31 0 35 -3 35 -25 0 -16 6 -25 15
-25 9 0 15 9 15 25 0 24 3 25 60 25 57 0 60 -1 60 -25 0 -22 4 -25 40 -25 36
0 40 3 40 25 0 22 4 25 35 25 31 0 35 -3 35 -25 0 -20 5 -25 25 -25 18 0 25
-5 25 -20 0 -19 7 -20 110 -20 103 0 110 1 110 20 0 16 7 20 35 20 28 0 35 -4
35 -20 0 -20 7 -20 360 -20 233 0 360 4 360 10 0 6 -40 10 -100 10 l-100 0 0
35 0 35 1090 0 c1060 0 1090 -1 1090 -19 0 -32 24 -43 79 -35 45 6 51 9 51 30
l0 24 210 0 210 0 0 -25 0 -25 260 0 260 0 0 25 0 25 160 0 160 0 0 -31 c0
-30 2 -31 31 -25 17 3 56 6 86 6 46 0 56 3 60 19 10 39 150 38 161 -1 4 -16
13 -19 66 -16 55 3 61 5 64 26 3 22 6 22 133 22 l129 0 0 -25 c0 -22 4 -25 40
-25 37 0 40 2 40 26 l0 27 123 -7 c103 -6 125 -10 139 -27 19 -22 60 -27 52
-5 -9 22 28 36 96 36 53 0 63 -3 67 -19 7 -26 25 -29 203 -32 l155 -3 3 27 3
27 155 0 154 0 0 -25 c0 -24 2 -25 75 -25 68 0 75 -2 75 -20 0 -19 18 -19
2030 -20 1368 0 2030 3 2030 10 0 6 -58 10 -159 10 -194 0 -221 4 -221 35 0
15 8 25 23 29 12 3 180 6 372 6 l351 0 -4 -35 -4 -35 -99 0 c-59 0 -99 -4 -99
-10 0 -6 45 -10 115 -10 111 0 115 1 120 23 5 19 11 22 50 19 43 -4 45 -3 45
22 l0 26 108 0 c124 0 148 -5 155 -30 4 -16 19 -19 117 -22 92 -2 114 -6 124
-20 9 -12 26 -18 50 -18 29 0 36 4 36 20 0 19 7 20 150 20 l150 0 0 25 c0 24
3 25 53 25 69 0 94 -8 100 -31 7 -25 47 -25 54 0 3 11 15 22 26 25 12 3 341 6
730 6 689 0 709 1 714 19 6 23 31 31 101 31 44 0 52 3 52 19 0 11 9 21 23 25
12 3 149 6 305 6 l282 0 0 9090 0 9090 -205 0 -205 0 0 25 c0 14 1 26 3 27 1
1 88 4 192 7 160 5 190 8 190 21 0 13 -49 15 -372 18 -365 2 -373 3 -373 22 0
19 -7 20 -145 20 -122 0 -145 -2 -145 -15 0 -8 -7 -15 -15 -15 -9 0 -18 -12
-22 -30 l-6 -30 -93 0 c-92 0 -95 -1 -104 -25 l-9 -25 -1418 -2 -1418 -3 -3
-22 -3 -23 -500 0 c-487 0 -499 0 -499 19 0 16 -9 21 -45 27 -60 8 -95 -1 -95
-26 0 -18 -7 -20 -55 -20 -48 0 -55 2 -55 20 0 11 -4 20 -10 20 -5 0 -10 -9
-10 -20 0 -19 -9 -20 -552 -22 -313 -2 -559 1 -566 6 -7 5 -10 17 -7 28 6 18
-6 18 -347 16 -345 -3 -353 -3 -353 -23 0 -20 -8 -20 -3402 -23 -3362 -2
-3403 -2 -3403 17 0 16 -9 21 -42 26 -24 4 -63 5 -88 3 -38 -2 -46 -7 -48 -25
-3 -21 -9 -23 -62 -23 -53 0 -59 2 -62 23 -4 29 -56 37 -75 11 -10 -14 -21
-16 -60 -10 -26 3 -52 11 -57 16 -17 17 -26 11 -26 -15 l0 -26 -87 3 c-86 3
-88 3 -88 28 0 20 6 26 28 28 19 2 27 9 27 23 0 20 -7 20 -537 19 -1000 -2
-983 -3 -983 19 0 14 -10 20 -37 25 -21 3 -309 6 -640 6 l-602 0 -3 23 c-2 15
-11 23 -28 25 -14 2 -28 0 -32 -3z m16570 -41 c15 -4 22 -14 22 -30 0 -22 -4
-24 -45 -24 -47 0 -63 14 -51 45 6 16 35 19 74 9z m-13915 -110 c42 -39 31
-49 -62 -52 -64 -2 -85 1 -98 13 -12 13 -13 21 -5 41 11 22 18 24 74 24 54 0
67 -4 91 -26z m4987 -4339 l0 -3125 -25 0 c-20 0 -25 5 -25 25 0 20 -5 25 -25
25 -18 0 -25 5 -25 19 0 13 -8 21 -22 23 -15 2 -24 11 -26 25 -2 14 -11 23
-25 25 -14 2 -23 11 -25 25 -2 14 -11 23 -25 25 -14 2 -23 11 -25 25 -2 14
-11 23 -25 25 -14 2 -23 11 -25 25 -2 14 -11 23 -25 25 -14 2 -23 11 -25 26
-2 14 -10 22 -23 22 -14 0 -19 7 -19 25 0 20 -5 25 -25 25 -20 0 -25 5 -25 25
0 20 -5 25 -25 25 -20 0 -25 5 -25 25 0 20 -5 25 -25 25 -20 0 -25 5 -25 25 0
20 -5 25 -25 25 -20 0 -25 5 -25 25 0 20 -5 25 -25 25 -20 0 -25 5 -25 25 0
20 -5 25 -25 25 -20 0 -25 5 -25 25 0 20 -5 25 -25 25 -18 0 -25 5 -25 19 0
13 -8 21 -22 23 -15 2 -24 11 -26 25 -2 14 -11 23 -25 25 -14 2 -23 11 -25 25
-2 14 -11 23 -25 25 -14 2 -23 11 -25 25 -2 14 -11 23 -25 25 -14 2 -23 11
-25 26 -2 14 -10 22 -23 22 -14 0 -19 7 -19 25 0 20 -5 25 -25 25 -20 0 -25 5
-25 25 0 20 -5 25 -25 25 -20 0 -25 5 -25 25 0 20 -5 25 -25 25 -20 0 -25 5
-25 25 0 20 -5 25 -25 25 -20 0 -25 5 -25 25 0 20 -5 25 -25 25 -20 0 -25 5
-25 25 0 20 -5 25 -25 25 -20 0 -25 5 -25 25 0 20 -5 25 -25 25 -18 0 -25 5
-25 19 0 13 -8 21 -22 23 -15 2 -24 11 -26 25 -2 14 -11 23 -25 25 -14 2 -23
11 -25 25 -2 14 -11 23 -25 25 -14 2 -23 11 -25 25 -2 14 -11 23 -25 25 -14 2
-23 11 -25 26 -2 14 -10 22 -23 22 -14 0 -19 7 -19 25 0 20 -5 25 -25 25 -20
0 -25 5 -25 25 0 20 -5 25 -25 25 -20 0 -25 5 -25 25 0 20 -5 25 -25 25 -20 0
-25 5 -25 25 0 20 -5 25 -25 25 -20 0 -25 5 -25 25 0 20 -5 25 -25 25 -20 0
-25 5 -25 25 0 20 -5 25 -25 25 -20 0 -25 5 -25 25 0 20 -5 25 -25 25 -18 0
-25 5 -25 19 0 13 -8 21 -22 23 -15 2 -24 11 -26 25 -2 14 -11 23 -25 25 -14
2 -23 11 -25 25 -2 14 -11 23 -25 25 -14 2 -23 11 -25 25 -2 14 -11 23 -25 25
-14 2 -23 11 -25 25 -2 14 -11 23 -25 25 -14 2 -23 11 -25 26 -2 14 -10 22
-23 22 -14 0 -19 7 -19 25 0 20 -5 25 -25 25 -20 0 -25 5 -25 25 0 20 -5 25
-25 25 -20 0 -25 5 -25 25 0 20 -5 25 -25 25 -20 0 -25 5 -25 25 0 20 -5 25
-25 25 -20 0 -25 5 -25 25 0 20 -5 25 -25 25 -20 0 -25 5 -25 25 0 20 -5 25
-25 25 -18 0 -25 5 -25 19 0 13 -8 21 -22 23 -15 2 -24 11 -26 25 -2 14 -11
23 -25 25 -14 2 -23 11 -25 25 -2 14 -11 23 -25 25 -14 2 -23 11 -25 25 -2 14
-11 23 -25 25 -14 2 -23 11 -25 25 -2 14 -11 23 -25 25 -14 2 -23 11 -25 26
-2 14 -10 22 -23 22 -14 0 -19 7 -19 25 0 20 -5 25 -25 25 -20 0 -25 5 -25 25
0 20 -5 25 -25 25 -20 0 -25 5 -25 25 0 20 -5 25 -25 25 -20 0 -25 5 -25 25 0
20 -5 25 -25 25 -20 0 -25 5 -25 25 0 20 -5 25 -25 25 -20 0 -25 5 -25 25 0
20 -5 25 -25 25 -18 0 -25 5 -25 19 0 13 -8 21 -22 23 -15 2 -24 11 -26 25 -2
14 -11 23 -25 25 -14 2 -23 11 -25 25 -2 14 -11 23 -25 25 -14 2 -23 11 -25
25 -2 14 -11 23 -25 25 -14 2 -23 11 -25 25 -2 14 -11 23 -25 25 -14 2 -23 11
-25 26 -2 14 -10 22 -23 22 -14 0 -19 7 -19 25 0 20 -5 25 -25 25 -20 0 -25 5
-25 25 0 20 -5 25 -25 25 -20 0 -25 5 -25 25 0 20 -5 25 -25 25 -20 0 -25 5
-25 25 0 20 -5 25 -25 25 -20 0 -25 5 -25 25 0 20 -5 25 -25 25 -20 0 -25 5
-25 25 0 20 -5 25 -25 25 -18 0 -25 5 -25 19 0 13 -8 21 -22 23 -15 2 -24 11
-26 25 -2 14 -11 23 -25 25 -14 2 -23 11 -25 25 -2 14 -11 23 -25 25 -14 2
-23 11 -25 25 -2 14 -11 23 -25 25 -14 2 -23 11 -25 25 -2 14 -11 23 -25 25
-14 2 -23 11 -25 26 -2 14 -10 22 -23 22 -14 0 -19 7 -19 25 0 20 -5 25 -25
25 -20 0 -25 5 -25 25 0 20 -5 25 -25 25 -20 0 -25 5 -25 25 0 20 -5 25 -25
25 -20 0 -25 5 -25 25 0 20 -5 25 -25 25 -20 0 -25 5 -25 25 0 20 -5 25 -25
25 -20 0 -25 5 -25 25 0 20 -5 25 -25 25 -20 0 -25 5 -25 25 0 20 -5 25 -25
25 -18 0 -25 5 -25 19 0 13 -8 21 -22 23 -15 2 -24 11 -26 25 -2 14 -11 23
-25 25 -14 2 -23 11 -25 25 -2 14 -11 23 -25 25 -14 2 -23 11 -25 25 -2 14
-11 23 -25 25 -14 2 -23 11 -25 25 -2 14 -11 23 -25 25 -14 2 -23 11 -25 26
-2 14 -10 22 -23 22 -14 0 -19 7 -19 25 0 20 -5 25 -25 25 -20 0 -25 5 -25 25
0 20 -5 25 -25 25 -20 0 -25 5 -25 25 0 20 -5 25 -25 25 -20 0 -25 5 -25 25 0
20 -5 25 -25 25 -20 0 -25 5 -25 25 0 20 -5 25 -25 25 -20 0 -25 5 -25 25 0
20 -5 25 -25 25 -18 0 -25 5 -25 19 0 13 -8 21 -22 23 -15 2 -24 11 -26 25 -2
14 -11 23 -25 25 -14 2 -23 11 -25 25 -2 14 -11 23 -25 25 -14 2 -23 11 -25
25 -2 14 -11 23 -25 25 -14 2 -23 11 -25 25 -2 14 -11 23 -25 25 -14 2 -23 11
-25 26 -2 14 -10 22 -23 22 -14 0 -19 7 -19 25 0 20 -5 25 -25 25 -20 0 -25 5
-25 25 0 20 -5 25 -25 25 -20 0 -25 5 -25 25 0 20 -5 25 -25 25 -20 0 -25 5
-25 25 0 20 -5 25 -25 25 -20 0 -25 5 -25 25 0 20 -5 25 -25 25 -20 0 -25 5
-25 25 0 20 -5 25 -25 25 -18 0 -25 5 -25 19 0 13 -8 21 -22 23 -15 2 -24 11
-26 25 -2 14 -11 23 -25 25 -14 2 -23 11 -25 25 -2 14 -11 23 -25 25 -14 2
-23 11 -25 25 -2 14 -11 23 -25 25 -14 2 -23 11 -25 25 -2 14 -11 23 -25 25
-14 2 -23 11 -25 26 -2 14 -10 22 -23 22 -14 0 -19 7 -19 25 0 20 -5 25 -25
25 -20 0 -25 5 -25 25 0 20 -5 25 -25 25 -20 0 -25 5 -25 25 0 20 -5 25 -25
25 -20 0 -25 5 -25 25 0 20 -5 25 -25 25 -20 0 -25 5 -25 25 0 20 -5 25 -25
25 -20 0 -25 5 -25 25 0 20 -5 25 -25 25 -18 0 -25 5 -25 19 0 13 -8 21 -22
23 -15 2 -24 11 -26 25 -2 14 -11 23 -25 25 -14 2 -23 11 -25 26 -2 14 -10 22
-23 22 -22 0 -34 22 -25 45 5 13 361 15 3126 15 l3120 0 0 -3125z m7578 3098
c3 -19 -1 -23 -22 -23 -21 0 -26 -5 -26 -25 0 -20 -5 -25 -25 -25 -20 0 -25
-5 -25 -25 0 -20 -5 -25 -25 -25 -20 0 -25 -5 -25 -25 0 -20 -5 -25 -25 -25
-20 0 -25 -5 -25 -25 0 -20 -5 -25 -25 -25 -20 0 -25 -5 -25 -25 0 -20 -5 -25
-25 -25 -20 0 -25 -5 -25 -25 0 -20 -5 -25 -25 -25 -20 0 -25 -5 -25 -25 0
-20 -5 -25 -25 -25 -20 0 -25 -5 -25 -25 0 -18 -5 -25 -19 -25 -13 0 -21 -8
-23 -22 -2 -15 -11 -24 -25 -26 -14 -2 -23 -11 -25 -25 -2 -14 -11 -23 -25
-25 -14 -2 -23 -11 -25 -25 -2 -14 -11 -23 -25 -25 -15 -2 -23 -10 -23 -23 0
-14 -7 -19 -25 -19 -20 0 -25 -5 -25 -25 0 -20 -5 -25 -25 -25 -20 0 -25 -5
-25 -25 0 -20 -5 -25 -25 -25 -20 0 -25 -5 -25 -25 0 -20 -5 -25 -25 -25 -20
0 -25 -5 -25 -25 0 -20 -5 -25 -25 -25 -20 0 -25 -5 -25 -25 0 -20 -5 -25 -25
-25 -20 0 -25 -5 -25 -25 0 -20 -5 -25 -25 -25 -20 0 -25 -5 -25 -25 0 -20 -5
-25 -25 -25 -20 0 -25 -5 -25 -25 0 -18 -5 -25 -19 -25 -13 0 -21 -8 -23 -22
-2 -15 -11 -24 -25 -26 -14 -2 -23 -11 -25 -25 -2 -14 -11 -23 -25 -25 -14 -2
-23 -11 -25 -25 -2 -14 -11 -23 -25 -25 -15 -2 -23 -10 -23 -23 0 -14 -7 -19
-25 -19 -20 0 -25 -5 -25 -25 0 -20 -5 -25 -25 -25 -20 0 -25 -5 -25 -25 0
-20 -5 -25 -25 -25 -20 0 -25 -5 -25 -25 0 -20 -5 -25 -25 -25 -20 0 -25 -5
-25 -25 0 -20 -5 -25 -25 -25 -20 0 -25 -5 -25 -25 0 -20 -5 -25 -25 -25 -20
0 -25 -5 -25 -25 0 -20 -5 -25 -25 -25 -20 0 -25 -5 -25 -25 0 -20 -5 -25 -25
-25 -20 0 -25 -5 -25 -25 0 -20 -5 -25 -25 -25 -20 0 -25 -5 -25 -25 0 -18 -5
-25 -19 -25 -13 0 -21 -8 -23 -22 -2 -15 -11 -24 -25 -26 -14 -2 -23 -11 -25
-25 -2 -14 -11 -23 -25 -25 -15 -2 -23 -10 -23 -23 0 -14 -7 -19 -25 -19 -20
0 -25 -5 -25 -25 0 -20 -5 -25 -25 -25 -20 0 -25 -5 -25 -25 0 -20 -5 -25 -25
-25 -20 0 -25 -5 -25 -25 0 -20 -5 -25 -25 -25 -20 0 -25 -5 -25 -25 0 -20 -5
-25 -25 -25 -20 0 -25 -5 -25 -25 0 -20 -5 -25 -25 -25 -20 0 -25 -5 -25 -25
0 -20 -5 -25 -25 -25 -20 0 -25 -5 -25 -25 0 -20 -5 -25 -25 -25 -20 0 -25 -5
-25 -25 0 -20 -5 -25 -25 -25 -20 0 -25 -5 -25 -25 0 -18 -5 -25 -19 -25 -13
0 -21 -8 -23 -22 -2 -15 -11 -24 -25 -26 -14 -2 -23 -11 -25 -25 -2 -14 -11
-23 -25 -25 -14 -2 -23 -11 -25 -25 -2 -14 -11 -23 -25 -25 -15 -2 -23 -10
-23 -23 0 -14 -7 -19 -25 -19 -20 0 -25 -5 -25 -25 0 -20 -5 -25 -25 -25 -20
0 -25 -5 -25 -25 0 -20 -5 -25 -25 -25 -20 0 -25 -5 -25 -25 0 -20 -5 -25 -25
-25 -20 0 -25 -5 -25 -25 0 -20 -5 -25 -25 -25 -20 0 -25 -5 -25 -25 0 -20 -5
-25 -25 -25 -20 0 -25 -5 -25 -25 0 -20 -5 -25 -25 -25 -20 0 -25 -5 -25 -25
0 -20 -5 -25 -25 -25 -20 0 -25 -5 -25 -25 0 -18 -5 -25 -19 -25 -13 0 -21 -8
-23 -22 -2 -15 -11 -24 -25 -26 -14 -2 -23 -11 -25 -25 -2 -14 -11 -23 -25
-25 -14 -2 -23 -11 -25 -25 -2 -14 -11 -23 -25 -25 -15 -2 -23 -10 -23 -23 0
-14 -7 -19 -25 -19 -20 0 -25 -5 -25 -25 0 -20 -5 -25 -25 -25 -20 0 -25 -5
-25 -25 0 -20 -5 -25 -25 -25 -20 0 -25 -5 -25 -25 0 -20 -5 -25 -25 -25 -20
0 -25 -5 -25 -25 0 -20 -5 -25 -25 -25 -20 0 -25 -5 -25 -25 0 -20 -5 -25 -25
-25 -20 0 -25 -5 -25 -25 0 -20 -5 -25 -25 -25 -20 0 -25 -5 -25 -25 0 -20 -5
-25 -25 -25 -20 0 -25 -5 -25 -25 0 -18 -5 -25 -19 -25 -13 0 -21 -8 -23 -22
-2 -15 -11 -24 -25 -26 -14 -2 -23 -11 -25 -25 -2 -14 -11 -23 -25 -25 -14 -2
-23 -11 -25 -25 -2 -14 -11 -23 -25 -25 -15 -2 -23 -10 -23 -23 0 -14 -7 -19
-25 -19 -20 0 -25 -5 -25 -25 0 -20 -5 -25 -25 -25 -20 0 -25 -5 -25 -25 0
-20 -5 -25 -25 -25 -20 0 -25 -5 -25 -25 0 -20 -5 -25 -25 -25 -20 0 -25 -5
-25 -25 0 -20 -5 -25 -25 -25 -20 0 -25 -5 -25 -25 0 -20 -5 -25 -25 -25 -20
0 -25 -5 -25 -25 0 -20 -5 -25 -25 -25 -20 0 -25 -5 -25 -25 0 -20 -5 -25 -25
-25 -20 0 -25 -5 -25 -25 0 -20 -5 -25 -25 -25 -20 0 -25 -5 -25 -25 0 -18 -5
-25 -19 -25 -13 0 -21 -8 -23 -22 -2 -15 -11 -24 -25 -26 -14 -2 -23 -11 -25
-25 -2 -14 -11 -23 -25 -25 -15 -2 -23 -10 -23 -23 0 -14 -7 -19 -25 -19 -20
0 -25 -5 -25 -25 0 -20 -5 -25 -25 -25 -20 0 -25 -5 -25 -25 0 -20 -5 -25 -25
-25 -20 0 -25 -5 -25 -25 0 -20 -5 -25 -25 -25 -20 0 -25 -5 -25 -25 0 -20 -5
-25 -25 -25 -20 0 -25 -5 -25 -25 0 -20 -5 -25 -25 -25 -20 0 -25 -5 -25 -25
0 -20 -5 -25 -25 -25 -20 0 -25 -5 -25 -25 0 -20 -5 -25 -25 -25 -20 0 -25 -5
-25 -25 0 -20 -5 -25 -25 -25 -20 0 -25 -5 -25 -25 0 -18 -5 -25 -19 -25 -13
0 -21 -8 -23 -22 -2 -15 -11 -24 -25 -26 -14 -2 -23 -11 -25 -25 -2 -14 -11
-23 -25 -25 -15 -2 -23 -10 -23 -23 0 -14 -7 -19 -25 -19 -20 0 -25 -5 -25
-25 0 -20 -5 -25 -25 -25 -20 0 -25 -5 -25 -25 0 -20 -5 -25 -25 -25 -20 0
-25 -5 -25 -25 0 -20 -5 -25 -25 -25 -20 0 -25 -5 -25 -25 0 -20 -5 -25 -25
-25 -20 0 -25 -5 -25 -25 0 -20 -5 -25 -25 -25 -20 0 -25 -5 -25 -25 0 -20 -5
-25 -25 -25 -20 0 -25 -5 -25 -25 0 -20 -5 -25 -25 -25 -20 0 -25 -5 -25 -25
0 -20 -5 -25 -25 -25 -20 0 -25 -5 -25 -25 0 -18 -5 -25 -19 -25 -13 0 -21 -8
-23 -22 -2 -15 -11 -24 -25 -26 -14 -2 -23 -11 -25 -25 -2 -14 -11 -23 -25
-25 -15 -2 -23 -10 -23 -23 0 -14 -7 -19 -25 -19 -20 0 -25 -5 -25 -25 0 -20
-5 -25 -25 -25 -20 0 -25 -5 -25 -25 0 -20 -5 -25 -25 -25 -20 0 -25 -5 -25
-25 0 -20 -5 -25 -25 -25 -20 0 -25 -5 -25 -25 0 -20 -5 -25 -25 -25 -20 0
-25 -5 -25 -25 0 -20 -5 -25 -25 -25 -20 0 -25 -5 -25 -25 0 -20 -5 -25 -25
-25 -20 0 -25 -5 -25 -25 0 -20 -5 -25 -25 -25 -20 0 -25 -5 -25 -25 0 -20 -5
-25 -25 -25 -20 0 -25 -5 -25 -25 0 -18 -5 -25 -19 -25 -13 0 -21 -8 -23 -22
-2 -15 -11 -24 -25 -26 -14 -2 -23 -11 -25 -25 -2 -14 -11 -23 -25 -25 -14 -2
-23 -11 -25 -25 -2 -14 -11 -23 -25 -25 -15 -2 -23 -10 -23 -23 0 -14 -7 -19
-25 -19 -20 0 -25 -5 -25 -25 0 -20 -5 -25 -25 -25 -20 0 -25 -5 -25 -25 0
-20 -5 -25 -25 -25 -20 0 -25 -5 -25 -25 0 -20 -5 -25 -25 -25 -20 0 -25 -5
-25 -25 0 -20 -5 -25 -25 -25 -20 0 -25 -5 -25 -25 0 -20 -5 -25 -25 -25 -20
0 -25 -5 -25 -25 0 -20 -5 -25 -25 -25 -20 0 -25 -5 -25 -25 0 -20 -5 -25 -26
-25 l-26 0 3 168 c2 92 3 346 1 565 -2 385 -3 397 -21 397 -30 0 -33 13 -25
110 6 79 9 90 25 90 11 0 19 6 19 13 0 6 3 29 6 50 6 35 5 37 -20 37 -19 0
-26 5 -26 20 0 13 7 20 19 20 20 0 31 49 31 146 0 50 -1 53 -27 56 l-28 3 -3
315 c-2 173 -1 361 3 418 6 91 9 102 26 102 17 0 19 8 19 75 0 66 -2 75 -19
75 -16 0 -19 11 -24 83 -9 114 -9 3642 0 3650 3 4 1453 6 3222 5 l3216 -3 3
-22z m1191 -469 l31 -6 0 -3489 0 -3489 -3515 0 -3515 0 0 25 c0 20 5 25 25
25 20 0 25 5 25 25 0 20 5 25 25 25 20 0 25 5 25 25 0 20 5 25 25 25 20 0 25
5 25 25 0 20 5 25 25 25 20 0 25 5 25 25 0 20 5 25 25 25 20 0 25 5 25 25 0
20 5 25 25 25 20 0 25 5 25 25 0 20 5 25 25 25 20 0 25 5 25 25 0 20 5 25 25
25 18 0 25 5 25 20 0 13 7 20 20 20 15 0 20 7 20 25 0 20 5 25 25 25 20 0 25
5 25 25 0 20 5 25 25 25 20 0 25 5 25 25 0 20 5 25 25 25 20 0 25 5 25 25 0
20 5 25 25 25 20 0 25 5 25 25 0 20 5 25 25 25 20 0 25 5 25 25 0 20 5 25 25
25 20 0 25 5 25 25 0 20 5 25 25 25 20 0 25 5 25 25 0 20 5 25 25 25 20 0 25
5 25 25 0 20 5 25 25 25 20 0 25 5 25 25 0 20 5 25 25 25 20 0 25 5 25 25 0
20 5 25 25 25 18 0 25 5 25 20 0 13 7 20 20 20 15 0 20 7 20 25 0 20 5 25 25
25 20 0 25 5 25 25 0 20 5 25 25 25 20 0 25 5 25 25 0 20 5 25 25 25 20 0 25
5 25 25 0 20 5 25 25 25 20 0 25 5 25 25 0 20 5 25 25 25 20 0 25 5 25 25 0
20 5 25 25 25 20 0 25 5 25 25 0 20 5 25 25 25 20 0 25 5 25 25 0 20 5 25 25
25 20 0 25 5 25 25 0 20 5 25 25 25 20 0 25 5 25 25 0 20 5 25 25 25 20 0 25
5 25 25 0 20 5 25 25 25 18 0 25 5 25 20 0 13 7 20 20 20 15 0 20 7 20 25 0
20 5 25 25 25 20 0 25 5 25 25 0 20 5 25 25 25 20 0 25 5 25 25 0 20 5 25 25
25 20 0 25 5 25 25 0 20 5 25 25 25 20 0 25 5 25 25 0 20 5 25 25 25 20 0 25
5 25 25 0 20 5 25 25 25 20 0 25 5 25 25 0 20 5 25 25 25 20 0 25 5 25 25 0
20 5 25 25 25 20 0 25 5 25 25 0 20 5 25 25 25 20 0 25 5 25 25 0 20 5 25 25
25 20 0 25 5 25 25 0 20 5 25 25 25 20 0 25 5 25 25 0 20 5 25 25 25 18 0 25
5 25 20 0 13 7 20 20 20 15 0 20 7 20 25 0 20 5 25 25 25 20 0 25 5 25 25 0
20 5 25 25 25 20 0 25 5 25 25 0 20 5 25 25 25 20 0 25 5 25 25 0 20 5 25 25
25 20 0 25 5 25 25 0 20 5 25 25 25 20 0 25 5 25 25 0 20 5 25 25 25 20 0 25
5 25 25 0 20 5 25 25 25 20 0 25 5 25 25 0 20 5 25 25 25 20 0 25 5 25 25 0
20 5 25 25 25 20 0 25 5 25 25 0 20 5 25 25 25 20 0 25 5 25 25 0 20 5 25 25
25 18 0 25 5 25 20 0 13 7 20 20 20 15 0 20 7 20 25 0 20 5 25 25 25 20 0 25
5 25 25 0 20 5 25 25 25 20 0 25 5 25 25 0 20 5 25 25 25 20 0 25 5 25 25 0
20 5 25 25 25 20 0 25 5 25 25 0 20 5 25 25 25 20 0 25 5 25 25 0 20 5 25 25
25 20 0 25 5 25 25 0 20 5 25 25 25 20 0 25 5 25 25 0 20 5 25 25 25 20 0 25
5 25 25 0 20 5 25 25 25 20 0 25 5 25 25 0 20 5 25 25 25 20 0 25 5 25 25 0
20 5 25 25 25 18 0 25 5 25 20 0 13 7 20 20 20 15 0 20 7 20 25 0 20 5 25 25
25 20 0 25 5 25 25 0 20 5 25 25 25 20 0 25 5 25 25 0 20 5 25 25 25 20 0 25
5 25 25 0 20 5 25 25 25 20 0 25 5 25 25 0 20 5 25 25 25 20 0 25 5 25 25 0
20 5 25 25 25 20 0 25 5 25 25 0 20 5 25 25 25 20 0 25 5 25 25 0 20 5 25 25
25 20 0 25 5 25 25 0 20 5 25 25 25 20 0 25 5 25 25 0 20 5 25 25 25 20 0 25
5 25 25 0 20 5 25 25 25 18 0 25 5 25 20 0 13 7 20 20 20 15 0 20 7 20 25 0
20 5 25 25 25 20 0 25 5 25 25 0 20 5 25 25 25 20 0 25 5 25 25 0 20 5 25 25
25 20 0 25 5 25 25 0 20 5 25 25 25 20 0 25 5 25 25 0 20 5 25 25 25 20 0 25
5 25 25 0 20 5 25 25 25 20 0 25 5 25 25 0 20 5 25 25 25 20 0 25 5 25 25 0
20 5 25 25 25 20 0 25 5 25 25 0 20 5 25 25 25 20 0 25 5 25 25 0 20 5 25 25
25 20 0 25 5 25 25 0 20 5 25 25 25 18 0 25 5 25 19 0 13 8 21 23 23 14 2 23
11 25 26 2 14 10 22 23 22 14 0 19 7 19 25 0 20 5 25 25 25 20 0 25 5 25 25 0
20 5 25 25 25 20 0 25 5 25 25 0 20 5 25 25 25 20 0 25 5 25 25 0 20 5 25 25
25 20 0 25 5 25 25 0 20 5 25 25 25 20 0 25 5 25 25 0 20 5 25 25 25 20 0 25
5 25 25 0 20 5 25 25 25 20 0 25 5 25 25 0 20 5 25 25 25 20 0 25 5 25 25 0
20 5 25 25 25 20 0 25 5 25 25 0 20 5 25 25 25 18 0 25 5 25 19 0 13 8 21 23
23 14 2 23 11 25 26 2 14 10 22 23 22 14 0 19 7 19 25 0 20 5 25 25 25 20 0
25 5 25 25 0 20 5 25 25 25 20 0 25 5 25 25 0 20 5 25 25 25 20 0 25 5 25 25
0 20 5 25 25 25 20 0 25 5 25 25 0 20 5 25 25 25 20 0 25 5 25 25 0 20 5 25
25 25 20 0 25 5 25 25 0 20 5 25 25 25 20 0 25 5 25 25 0 20 5 25 25 25 20 0
25 5 25 25 0 20 5 25 25 25 20 0 25 5 25 25 0 20 5 25 25 25 20 0 25 5 25 25
0 20 5 25 25 25 18 0 25 5 25 20 0 13 7 20 20 20 15 0 20 7 20 25 0 20 5 25
25 25 20 0 25 5 25 25 0 20 5 25 25 25 20 0 25 5 25 25 0 20 5 25 25 25 20 0
25 5 25 25 0 20 5 25 25 25 20 0 25 5 25 25 0 20 5 25 25 25 20 0 25 5 25 25
0 20 5 25 25 25 20 0 25 5 25 25 0 20 5 25 25 25 20 0 25 5 25 25 0 20 5 25
25 25 20 0 25 5 25 25 0 20 5 25 25 25 20 0 25 5 25 25 0 20 5 25 25 25 20 0
25 5 25 25 0 20 5 25 25 25 18 0 25 5 25 20 0 13 7 20 20 20 15 0 20 7 20 25
0 20 5 25 25 25 20 0 25 5 25 25 0 20 5 25 25 25 20 0 25 5 25 25 0 20 5 25
25 25 20 0 25 5 25 25 0 20 5 25 25 25 20 0 25 5 25 25 0 20 5 25 25 25 20 0
25 5 25 25 0 20 5 25 25 25 20 0 25 5 25 25 0 20 5 25 25 25 20 0 25 5 25 25
0 20 5 25 25 25 20 0 25 5 25 25 0 20 5 25 25 25 20 0 25 5 25 25 0 20 5 25
25 25 20 0 25 5 25 25 0 27 8 29 59 19z m-15849 -369 c0 -20 5 -25 25 -25 18
0 25 -5 25 -19 0 -13 8 -21 23 -23 14 -2 23 -11 25 -25 2 -14 11 -23 25 -25
14 -2 23 -11 25 -25 2 -14 11 -23 25 -25 14 -2 23 -11 25 -25 3 -17 10 -23 28
-23 19 0 24 -5 24 -25 0 -20 5 -25 25 -25 20 0 25 -5 25 -25 0 -20 5 -25 25
-25 20 0 25 -5 25 -25 0 -20 5 -25 25 -25 20 0 25 -5 25 -24 0 -18 6 -25 23
-28 14 -2 23 -11 25 -25 2 -14 11 -23 25 -25 14 -2 23 -11 25 -25 3 -17 10
-23 28 -23 19 0 24 -5 24 -25 0 -18 5 -25 20 -25 15 0 20 -7 20 -25 0 -20 5
-25 25 -25 18 0 25 -5 25 -20 0 -15 7 -20 25 -20 20 0 25 -5 25 -24 0 -18 6
-25 23 -28 14 -2 23 -11 25 -25 2 -14 11 -23 25 -25 14 -2 23 -11 25 -25 3
-17 10 -23 28 -23 19 0 24 -5 24 -25 0 -20 5 -25 25 -25 20 0 25 -5 25 -25 0
-20 5 -25 25 -25 20 0 25 -5 25 -25 0 -20 5 -25 25 -25 20 0 25 -5 25 -24 0
-18 6 -25 23 -28 14 -2 23 -11 25 -25 2 -14 11 -23 25 -25 14 -2 23 -11 25
-25 3 -17 10 -23 28 -23 19 0 24 -5 24 -25 0 -18 5 -25 20 -25 15 0 20 -7 20
-25 0 -20 5 -25 25 -25 18 0 25 -5 25 -20 0 -15 7 -20 25 -20 20 0 25 -5 25
-24 0 -18 6 -25 23 -28 14 -2 23 -11 25 -25 2 -14 11 -23 25 -25 14 -2 23 -11
25 -25 2 -14 11 -23 25 -25 14 -2 23 -11 25 -25 3 -17 10 -23 28 -23 19 0 24
-5 24 -25 0 -20 5 -25 25 -25 20 0 25 -5 25 -25 0 -20 5 -25 25 -25 20 0 25
-5 25 -24 0 -18 6 -25 23 -28 14 -2 23 -11 25 -25 2 -14 11 -23 25 -25 14 -2
23 -11 25 -25 2 -14 11 -23 25 -25 14 -2 23 -11 25 -25 2 -15 10 -23 23 -23
14 0 19 -7 19 -25 0 -20 5 -25 25 -25 20 0 25 -5 25 -25 0 -20 5 -25 25 -25
18 0 25 -5 25 -19 0 -13 8 -21 23 -23 14 -2 23 -11 25 -25 2 -14 11 -23 25
-25 14 -2 23 -11 25 -25 2 -14 11 -23 25 -25 14 -2 23 -11 25 -25 3 -17 10
-23 28 -23 19 0 24 -5 24 -25 0 -20 5 -25 25 -25 20 0 25 -5 25 -25 0 -20 5
-25 25 -25 20 0 25 -5 25 -24 0 -18 6 -25 23 -28 14 -2 23 -11 25 -25 2 -14
11 -23 25 -25 14 -2 23 -11 25 -25 2 -14 11 -23 25 -25 14 -2 23 -11 25 -25 2
-15 10 -23 23 -23 14 0 19 -7 19 -25 0 -20 5 -25 25 -25 20 0 25 -5 25 -25 0
-20 5 -25 25 -25 18 0 25 -5 25 -19 0 -13 8 -21 23 -23 14 -2 23 -11 25 -25 2
-14 11 -23 25 -25 14 -2 23 -11 25 -25 2 -14 11 -23 25 -25 14 -2 23 -11 25
-25 3 -17 10 -23 28 -23 19 0 24 -5 24 -25 0 -20 5 -25 25 -25 20 0 25 -5 25
-25 0 -20 5 -25 25 -25 20 0 25 -5 25 -25 0 -20 5 -25 25 -25 20 0 25 -5 25
-24 0 -18 6 -25 23 -28 14 -2 23 -11 25 -25 2 -14 11 -23 25 -25 14 -2 23 -11
25 -25 3 -17 10 -23 28 -23 19 0 24 -5 24 -25 0 -18 5 -25 20 -25 15 0 20 -7
20 -25 0 -20 5 -25 25 -25 18 0 25 -5 25 -20 0 -15 7 -20 25 -20 20 0 25 -5
25 -24 0 -18 6 -25 23 -28 14 -2 23 -11 25 -25 2 -14 11 -23 25 -25 14 -2 23
-11 25 -25 3 -17 10 -23 28 -23 19 0 24 -5 24 -25 0 -20 5 -25 25 -25 20 0 25
-5 25 -25 0 -20 5 -25 25 -25 20 0 25 -5 25 -25 0 -20 5 -25 25 -25 20 0 25
-5 25 -24 0 -18 6 -25 23 -28 14 -2 23 -11 25 -25 2 -14 11 -23 25 -25 14 -2
23 -11 25 -25 3 -17 10 -23 28 -23 19 0 24 -5 24 -25 0 -18 5 -25 20 -25 15 0
20 -7 20 -25 0 -20 5 -25 25 -25 18 0 25 -5 25 -20 0 -15 7 -20 25 -20 20 0
25 -5 25 -24 0 -18 6 -25 23 -28 14 -2 23 -11 25 -25 2 -14 11 -23 25 -25 14
-2 23 -11 25 -25 3 -17 10 -23 28 -23 19 0 24 -5 24 -25 0 -20 5 -25 25 -25
20 0 25 -5 25 -25 0 -20 5 -25 25 -25 20 0 25 -5 25 -25 0 -20 5 -25 25 -25
20 0 25 -5 25 -24 0 -18 6 -25 23 -28 14 -2 23 -11 25 -25 2 -14 11 -23 25
-25 14 -2 23 -11 25 -25 3 -17 10 -23 28 -23 19 0 24 -5 24 -25 0 -18 5 -25
20 -25 15 0 20 -7 20 -25 0 -20 5 -25 25 -25 18 0 25 -5 25 -20 0 -15 7 -20
25 -20 20 0 25 -5 25 -24 0 -18 6 -25 23 -28 14 -2 23 -11 25 -25 2 -14 11
-23 25 -25 14 -2 23 -11 25 -25 3 -17 10 -23 28 -23 19 0 24 -5 24 -25 0 -20
5 -25 25 -25 20 0 25 -5 25 -25 0 -20 5 -25 25 -25 20 0 25 -5 25 -25 0 -20 5
-25 25 -25 20 0 25 -5 25 -24 0 -18 6 -25 23 -28 14 -2 23 -11 25 -25 2 -14
11 -23 25 -25 14 -2 23 -11 25 -25 3 -17 10 -23 28 -23 19 0 24 -5 24 -25 0
-18 5 -25 20 -25 15 0 20 -7 20 -25 0 -20 5 -25 25 -25 18 0 25 -5 25 -20 0
-15 7 -20 25 -20 20 0 25 -5 25 -24 0 -18 6 -25 23 -28 14 -2 23 -11 25 -25 2
-14 11 -23 25 -25 14 -2 23 -11 25 -25 2 -14 11 -23 25 -25 14 -2 23 -11 25
-25 3 -17 10 -23 28 -23 19 0 24 -5 24 -25 0 -20 5 -25 25 -25 20 0 25 -5 25
-25 0 -20 5 -25 25 -25 20 0 25 -5 25 -24 0 -18 6 -25 23 -28 14 -2 23 -11 25
-25 2 -14 11 -23 25 -25 14 -2 23 -11 25 -25 2 -14 11 -23 25 -25 14 -2 23
-11 25 -25 2 -15 10 -23 23 -23 14 0 19 -7 19 -25 0 -20 5 -25 25 -25 20 0 25
-5 25 -25 0 -20 5 -25 25 -25 18 0 25 -5 25 -20 0 -15 7 -20 25 -20 20 0 25
-5 25 -24 0 -18 6 -25 23 -28 14 -2 23 -11 25 -25 2 -14 11 -23 25 -25 14 -2
23 -11 25 -25 3 -17 10 -23 28 -23 19 0 24 -5 24 -25 0 -20 5 -25 25 -25 20 0
25 -5 25 -25 0 -20 5 -25 25 -25 20 0 25 -5 25 -25 0 -20 5 -25 25 -25 20 0
25 -5 25 -24 0 -18 6 -25 23 -28 14 -2 23 -11 25 -25 2 -14 11 -23 25 -25 14
-2 23 -11 25 -25 3 -17 10 -23 28 -23 19 0 24 -5 24 -25 0 -18 5 -25 20 -25
15 0 20 -7 20 -25 0 -20 5 -25 25 -25 18 0 25 -5 25 -20 0 -15 7 -20 25 -20
20 0 25 -5 25 -24 0 -18 6 -25 23 -28 14 -2 23 -11 25 -25 2 -14 11 -23 25
-25 14 -2 23 -11 25 -25 3 -17 10 -23 28 -23 19 0 24 -5 24 -25 0 -20 5 -25
25 -25 20 0 25 -5 25 -25 0 -20 5 -25 25 -25 20 0 25 -5 25 -25 0 -20 5 -25
25 -25 20 0 25 -5 25 -24 0 -18 6 -25 23 -28 14 -2 23 -11 25 -25 2 -14 11
-23 25 -25 14 -2 23 -11 25 -25 3 -17 10 -23 28 -23 19 0 24 -5 24 -25 0 -18
5 -25 20 -25 15 0 20 -7 20 -25 l0 -25 -3320 0 -3320 0 0 3320 0 3320 25 0
c20 0 25 -5 25 -25z m7080 -7864 c0 -65 -2 -70 -22 -73 -15 -2 -24 -11 -26
-25 -3 -19 1 -23 22 -23 26 0 26 -1 26 -74 l0 -74 -45 -6 c-40 -6 -45 -10 -45
-32 0 -24 2 -25 45 -18 l45 6 0 -3421 0 -3421 -3565 0 -3565 0 0 25 c0 20 5
25 25 25 20 0 25 5 25 25 0 20 5 25 25 25 20 0 25 5 25 25 0 23 4 25 44 25 39
0 45 3 48 23 2 14 11 23 25 25 14 2 23 11 25 25 2 14 11 23 25 25 14 2 23 11
25 25 2 14 11 23 26 25 16 3 22 10 22 28 0 19 5 24 24 24 20 0 25 6 30 44 6
36 11 45 29 48 14 2 23 11 25 25 2 14 11 23 25 25 14 2 23 11 25 25 2 14 11
23 25 25 14 2 23 11 25 25 2 14 11 23 25 25 14 2 23 11 25 26 2 14 10 22 23
22 14 0 19 7 19 25 0 20 5 25 25 25 20 0 25 5 25 25 0 20 5 25 25 25 18 0 25
5 25 19 0 13 8 21 23 23 14 2 23 11 25 25 2 14 11 23 25 25 16 2 23 11 25 30
3 22 9 28 28 28 19 0 24 5 24 25 0 18 5 25 19 25 13 0 21 8 23 23 2 14 11 23
25 25 14 2 23 11 25 25 2 14 11 23 26 25 14 2 22 10 22 23 0 14 7 19 25 19 20
0 25 5 25 25 0 20 5 25 25 25 20 0 25 5 25 25 0 20 5 25 25 25 20 0 25 5 25
25 0 20 5 25 25 25 20 0 25 5 25 25 0 20 5 25 25 25 20 0 25 5 25 25 0 20 5
25 25 25 20 0 25 5 25 25 0 20 5 25 25 25 20 0 25 5 25 25 0 20 5 25 25 25 20
0 25 5 25 25 0 20 5 25 25 25 20 0 25 5 25 25 0 18 5 25 19 25 13 0 21 8 23
23 2 14 11 23 25 25 14 2 23 11 25 25 2 14 11 23 26 25 14 2 22 10 22 23 0 14
7 19 25 19 20 0 25 5 25 25 0 20 5 25 25 25 20 0 25 5 25 25 0 20 5 25 25 25
20 0 25 5 25 25 0 20 5 25 25 25 20 0 25 5 25 25 0 20 5 25 25 25 20 0 25 5
25 25 0 20 5 25 25 25 20 0 25 5 25 25 0 20 5 25 25 25 20 0 25 5 25 25 0 20
5 25 26 25 21 0 25 4 22 22 -2 15 -11 24 -25 26 -15 2 -23 10 -23 23 0 14 -7
19 -25 19 -18 0 -25 -5 -25 -20 0 -15 -7 -20 -25 -20 -23 0 -25 -3 -25 -50 0
-47 -2 -50 -25 -50 -20 0 -25 -5 -25 -25 0 -20 -5 -25 -25 -25 -20 0 -25 -5
-25 -25 0 -20 -5 -25 -25 -25 -20 0 -25 -5 -25 -25 0 -20 -5 -25 -25 -25 -18
0 -25 -5 -25 -19 0 -13 -8 -21 -22 -23 -15 -2 -24 -11 -26 -25 -2 -14 -11 -23
-25 -25 -14 -2 -23 -11 -25 -25 -2 -14 -11 -23 -25 -25 -14 -2 -23 -11 -25
-25 -2 -14 -11 -23 -25 -25 -14 -2 -23 -11 -25 -25 -2 -15 -10 -23 -23 -23
-14 0 -19 -7 -19 -30 0 -25 -4 -30 -25 -30 -18 0 -25 -5 -25 -20 0 -15 -7 -20
-25 -20 -20 0 -25 -5 -25 -25 0 -20 -5 -25 -25 -25 -20 0 -25 -5 -25 -24 0
-20 -6 -25 -45 -30 -36 -6 -45 -11 -45 -27 0 -14 -7 -19 -30 -19 -25 0 -30 -4
-30 -25 0 -20 -5 -25 -25 -25 -20 0 -25 -5 -25 -25 0 -18 -5 -25 -19 -25 -13
0 -21 -8 -23 -22 -2 -17 -11 -24 -30 -26 -20 -2 -28 -9 -28 -22 0 -12 -8 -20
-22 -22 -15 -2 -24 -11 -26 -25 -2 -14 -11 -23 -25 -25 -14 -2 -23 -11 -25
-25 -3 -18 -12 -23 -48 -29 -38 -5 -44 -10 -44 -30 0 -19 -5 -24 -25 -24 -20
0 -25 -5 -25 -25 0 -20 -5 -25 -25 -25 -20 0 -25 -5 -25 -25 0 -20 -5 -25 -25
-25 -20 0 -25 -5 -25 -25 0 -18 -5 -25 -19 -25 -13 0 -21 -8 -23 -22 -2 -15
-11 -24 -25 -26 -15 -2 -23 -10 -23 -23 0 -14 -7 -19 -25 -19 -20 0 -25 -5
-25 -25 0 -20 -5 -25 -25 -25 -20 0 -25 -5 -25 -25 0 -20 -5 -25 -25 -25 -20
0 -25 -5 -25 -25 0 -20 -5 -25 -25 -25 -20 0 -25 -5 -25 -25 0 -20 -5 -25 -25
-25 -20 0 -25 -5 -25 -25 0 -20 -5 -25 -25 -25 -20 0 -25 -5 -25 -25 0 -20 -5
-25 -25 -25 -20 0 -25 -5 -25 -25 0 -20 -5 -25 -25 -25 -20 0 -25 -5 -25 -25
0 -20 -5 -25 -25 -25 -18 0 -25 -5 -25 -20 0 -17 -7 -20 -50 -20 l-50 0 0
3465 0 3465 3565 0 3565 0 0 -69z m8800 -3126 c0 -3188 0 -3195 -20 -3195 -13
0 -20 7 -20 19 0 14 -8 21 -27 23 -20 2 -29 9 -31 25 -2 14 -11 23 -25 25 -14
2 -23 11 -25 25 -2 15 -10 23 -23 23 -14 0 -19 7 -19 25 0 20 -5 25 -25 25
-20 0 -25 5 -25 25 0 20 -5 25 -25 25 -20 0 -25 5 -25 25 0 20 -5 25 -25 25
-20 0 -25 5 -25 25 0 20 -5 25 -25 25 -20 0 -25 5 -25 25 0 20 -5 25 -25 25
-20 0 -25 5 -25 25 0 20 -5 25 -25 25 -20 0 -25 5 -25 25 0 20 -5 25 -25 25
-18 0 -25 5 -25 19 0 13 -8 21 -22 23 -15 2 -24 11 -26 25 -2 14 -11 23 -25
25 -14 2 -23 11 -25 25 -2 14 -11 23 -25 25 -14 2 -23 11 -25 25 -2 14 -11 23
-25 25 -14 2 -23 11 -25 26 -2 14 -10 22 -23 22 -14 0 -19 7 -19 25 0 20 -5
25 -25 25 -20 0 -25 5 -25 25 0 20 -5 25 -25 25 -20 0 -25 5 -25 25 0 20 -5
25 -25 25 -20 0 -25 5 -25 25 0 20 -5 25 -25 25 -20 0 -25 5 -25 25 0 20 -5
25 -25 25 -20 0 -25 5 -25 25 0 20 -5 25 -25 25 -20 0 -25 5 -25 25 0 20 -5
25 -25 25 -18 0 -25 5 -25 19 0 13 -8 21 -22 23 -15 2 -24 11 -26 25 -2 14
-11 23 -25 25 -14 2 -23 11 -25 25 -2 14 -11 23 -25 25 -14 2 -23 11 -25 25
-2 14 -11 23 -25 25 -14 2 -23 11 -25 26 -2 14 -10 22 -23 22 -14 0 -19 7 -19
25 0 20 -5 25 -25 25 -20 0 -25 5 -25 25 0 20 -5 25 -25 25 -20 0 -25 5 -25
25 0 20 -5 25 -25 25 -20 0 -25 5 -25 25 0 20 -5 25 -25 25 -20 0 -25 5 -25
25 0 20 -5 25 -25 25 -20 0 -25 5 -25 25 0 20 -5 25 -25 25 -20 0 -25 5 -25
25 0 20 -5 25 -25 25 -18 0 -25 5 -25 19 0 13 -8 21 -22 23 -15 2 -24 11 -26
25 -2 14 -11 23 -25 25 -14 2 -23 11 -25 25 -2 14 -11 23 -25 25 -14 2 -23 11
-25 25 -2 14 -11 23 -25 25 -14 2 -23 11 -25 26 -2 14 -10 22 -23 22 -14 0
-19 7 -19 25 0 20 -5 25 -25 25 -20 0 -25 5 -25 25 0 20 -5 25 -25 25 -20 0
-25 5 -25 25 0 20 -5 25 -25 25 -20 0 -25 5 -25 25 0 20 -5 25 -25 25 -20 0
-25 5 -25 25 0 20 -5 25 -25 25 -20 0 -25 5 -25 25 0 20 -5 25 -25 25 -20 0
-25 5 -25 25 0 20 -5 25 -25 25 -20 0 -25 5 -25 25 0 20 -5 25 -25 25 -18 0
-25 5 -25 19 0 13 -8 21 -22 23 -15 2 -24 11 -26 25 -2 14 -11 23 -25 25 -14
2 -23 11 -25 25 -2 14 -11 23 -25 25 -14 2 -23 11 -25 25 -2 14 -11 23 -25 25
-14 2 -23 11 -25 26 -2 14 -10 22 -23 22 -14 0 -19 7 -19 25 0 20 -5 25 -25
25 -20 0 -25 5 -25 25 0 20 -5 25 -25 25 -20 0 -25 5 -25 25 0 20 -5 25 -25
25 -20 0 -25 5 -25 25 0 20 -5 25 -25 25 -20 0 -25 5 -25 25 0 20 -5 25 -25
25 -20 0 -25 5 -25 25 0 20 -5 25 -25 25 -20 0 -25 5 -25 25 0 20 -5 25 -25
25 -18 0 -25 5 -25 19 0 13 -8 21 -22 23 -15 2 -24 11 -26 25 -2 14 -11 23
-25 25 -14 2 -23 11 -25 25 -2 14 -11 23 -25 25 -14 2 -23 11 -25 25 -2 14
-11 23 -25 25 -14 2 -23 11 -25 26 -2 14 -10 22 -23 22 -14 0 -19 7 -19 25 0
20 -5 25 -25 25 -20 0 -25 5 -25 25 0 20 -5 25 -25 25 -20 0 -25 5 -25 25 0
20 -5 25 -25 25 -20 0 -25 5 -25 25 0 20 -5 25 -25 25 -20 0 -25 5 -25 25 0
20 -5 25 -25 25 -20 0 -25 5 -25 25 0 20 -5 25 -25 25 -20 0 -25 5 -25 25 0
20 -5 25 -25 25 -18 0 -25 5 -25 19 0 13 -8 21 -22 23 -15 2 -24 11 -26 25 -2
14 -11 23 -25 25 -14 2 -23 11 -25 25 -2 14 -11 23 -25 25 -14 2 -23 11 -25
25 -2 14 -11 23 -25 25 -14 2 -23 11 -25 26 -2 14 -10 22 -23 22 -14 0 -19 7
-19 25 0 20 -5 25 -25 25 -20 0 -25 5 -25 25 0 20 -5 25 -25 25 -20 0 -25 5
-25 25 0 20 -5 25 -25 25 -20 0 -25 5 -25 25 0 20 -5 25 -25 25 -20 0 -25 5
-25 25 0 20 -5 25 -25 25 -20 0 -25 5 -25 25 0 20 -5 25 -25 25 -20 0 -25 5
-25 25 0 20 -5 25 -25 25 -18 0 -25 5 -25 19 0 13 -8 21 -22 23 -15 2 -24 11
-26 25 -2 14 -11 23 -25 25 -14 2 -23 11 -25 25 -2 14 -11 23 -25 25 -14 2
-23 11 -25 25 -2 14 -11 23 -25 25 -14 2 -23 11 -25 26 -2 14 -10 22 -23 22
-14 0 -19 7 -19 25 0 20 -5 25 -25 25 -20 0 -25 5 -25 25 0 20 -5 25 -25 25
-20 0 -25 5 -25 25 0 20 -5 25 -25 25 -20 0 -25 5 -25 25 0 20 -5 25 -25 25
-20 0 -25 5 -25 25 0 20 -5 25 -25 25 -20 0 -25 5 -25 25 0 20 -5 25 -25 25
-20 0 -25 5 -25 25 0 20 -5 25 -25 25 -18 0 -25 5 -25 19 0 13 -8 21 -22 23
-15 2 -24 11 -26 25 -2 14 -11 23 -25 25 -14 2 -23 11 -25 25 -2 14 -11 23
-25 25 -14 2 -23 11 -25 25 -2 14 -11 23 -25 25 -14 2 -23 11 -25 26 -2 14
-10 22 -23 22 -14 0 -19 7 -19 25 0 20 -5 25 -25 25 -20 0 -25 5 -25 25 0 20
-5 25 -25 25 -20 0 -25 5 -25 25 0 20 -5 25 -25 25 -20 0 -25 5 -25 25 0 20
-5 25 -25 25 -20 0 -25 5 -25 25 0 20 -5 25 -25 25 -20 0 -25 5 -25 25 0 20
-5 25 -25 25 -20 0 -25 5 -25 25 0 20 -5 25 -25 25 -18 0 -25 5 -25 19 0 13
-8 21 -22 23 -15 2 -24 11 -26 25 -2 14 -11 23 -25 25 -14 2 -23 11 -25 25 -2
14 -11 23 -25 25 -14 2 -23 11 -25 25 -2 14 -11 23 -25 25 -14 2 -23 11 -25
25 -2 14 -11 23 -25 25 -14 2 -23 11 -25 26 -2 14 -10 22 -23 22 -14 0 -19 7
-19 25 0 20 -5 25 -25 25 -20 0 -25 5 -25 25 0 20 -5 25 -25 25 -20 0 -25 5
-25 25 0 20 -5 25 -25 25 -20 0 -25 5 -25 25 0 20 -5 25 -25 25 -20 0 -25 5
-25 25 0 20 -5 25 -25 25 -20 0 -25 5 -25 25 0 20 -5 25 -25 25 -20 0 -25 5
-25 25 0 20 -5 25 -25 25 -18 0 -25 5 -25 19 0 13 -8 21 -22 23 -15 2 -24 11
-26 25 -2 14 -11 23 -25 25 -14 2 -23 11 -25 25 -2 14 -11 23 -25 25 -14 2
-23 11 -25 25 -2 14 -11 23 -25 25 -14 2 -23 11 -25 26 -2 14 -10 22 -23 22
-14 0 -19 7 -19 25 0 20 -5 25 -25 25 -20 0 -25 5 -25 25 0 20 -5 25 -25 25
-20 0 -25 5 -25 25 0 20 -5 25 -25 25 -20 0 -25 5 -25 25 0 20 -5 25 -25 25
-20 0 -25 5 -25 25 l0 25 3195 0 3195 0 0 -3195z m-7620 2725 c0 -16 7 -20 30
-20 25 0 30 -4 30 -25 0 -20 5 -25 25 -25 20 0 25 -5 25 -25 0 -18 5 -25 20
-25 13 0 20 -7 20 -20 0 -15 7 -20 25 -20 20 0 25 -5 25 -25 0 -20 5 -25 25
-25 20 0 25 -5 25 -24 0 -18 6 -25 23 -28 14 -2 23 -11 25 -25 2 -14 11 -23
25 -25 14 -2 23 -11 25 -25 3 -17 10 -23 28 -23 19 0 24 -5 24 -25 0 -20 5
-25 25 -25 20 0 25 -5 25 -25 0 -20 5 -25 25 -25 20 0 25 -5 25 -25 0 -20 5
-25 25 -25 20 0 25 -5 25 -24 0 -18 6 -25 23 -28 14 -2 23 -11 25 -25 2 -14
11 -23 25 -25 14 -2 23 -11 25 -25 3 -17 10 -23 28 -23 19 0 24 -5 24 -25 0
-18 5 -25 20 -25 15 0 20 -7 20 -25 0 -20 5 -25 25 -25 18 0 25 -5 25 -20 0
-15 7 -20 25 -20 20 0 25 -5 25 -24 0 -18 6 -25 23 -28 14 -2 23 -11 25 -25 2
-14 11 -23 25 -25 14 -2 23 -11 25 -25 3 -17 10 -23 28 -23 19 0 24 -5 24 -25
0 -20 5 -25 25 -25 20 0 25 -5 25 -25 0 -20 5 -25 25 -25 20 0 25 -5 25 -25 0
-20 5 -25 25 -25 20 0 25 -5 25 -24 0 -18 6 -25 23 -28 14 -2 23 -11 25 -25 2
-14 11 -23 25 -25 14 -2 23 -11 25 -25 3 -17 10 -23 28 -23 19 0 24 -5 24 -25
0 -18 5 -25 20 -25 15 0 20 -7 20 -25 0 -20 5 -25 25 -25 18 0 25 -5 25 -20 0
-15 7 -20 25 -20 20 0 25 -5 25 -24 0 -18 6 -25 23 -28 14 -2 23 -11 25 -25 2
-14 11 -23 25 -25 14 -2 23 -11 25 -25 3 -17 10 -23 28 -23 19 0 24 -5 24 -25
0 -20 5 -25 25 -25 20 0 25 -5 25 -25 0 -20 5 -25 25 -25 20 0 25 -5 25 -25 0
-20 5 -25 25 -25 20 0 25 -5 25 -24 0 -18 6 -25 23 -28 14 -2 23 -11 25 -25 2
-14 11 -23 25 -25 14 -2 23 -11 25 -25 3 -17 10 -23 28 -23 19 0 24 -5 24 -25
0 -18 5 -25 20 -25 15 0 20 -7 20 -25 0 -20 5 -25 25 -25 18 0 25 -5 25 -20 0
-15 7 -20 25 -20 20 0 25 -5 25 -24 0 -18 6 -25 23 -28 14 -2 23 -11 25 -25 2
-14 11 -23 25 -25 14 -2 23 -11 25 -25 3 -17 10 -23 28 -23 19 0 24 -5 24 -25
0 -20 5 -25 25 -25 20 0 25 -5 25 -25 0 -20 5 -25 25 -25 20 0 25 -5 25 -25 0
-20 5 -25 25 -25 20 0 25 -5 25 -24 0 -18 6 -25 23 -28 14 -2 23 -11 25 -25 2
-14 11 -23 25 -25 14 -2 23 -11 25 -25 3 -17 10 -23 28 -23 19 0 24 -5 24 -25
0 -20 5 -25 25 -25 20 0 25 -5 25 -25 0 -18 5 -25 20 -25 13 0 20 -7 20 -20 0
-15 7 -20 25 -20 20 0 25 -5 25 -25 0 -20 5 -25 25 -25 20 0 25 -5 25 -24 0
-18 6 -25 23 -28 14 -2 23 -11 25 -25 3 -17 10 -23 28 -23 19 0 24 -5 24 -25
0 -20 5 -25 25 -25 20 0 25 -5 25 -25 0 -20 5 -25 25 -25 20 0 25 -5 25 -25 0
-20 5 -25 25 -25 20 0 25 -5 25 -25 0 -20 5 -25 25 -25 20 0 25 -5 25 -24 0
-18 6 -25 23 -28 14 -2 23 -11 25 -25 3 -17 10 -23 28 -23 19 0 24 -5 24 -25
0 -20 5 -25 25 -25 20 0 25 -5 25 -25 0 -18 5 -25 20 -25 13 0 20 -7 20 -20 0
-15 7 -20 25 -20 20 0 25 -5 25 -25 0 -20 5 -25 25 -25 20 0 25 -5 25 -24 0
-18 6 -25 23 -28 14 -2 23 -11 25 -25 3 -17 10 -23 28 -23 19 0 24 -5 24 -25
0 -20 5 -25 25 -25 20 0 25 -5 25 -25 0 -20 5 -25 25 -25 20 0 25 -5 25 -25 0
-20 5 -25 25 -25 20 0 25 -5 25 -25 0 -20 5 -25 25 -25 20 0 25 -5 25 -24 0
-18 6 -25 23 -28 14 -2 23 -11 25 -25 3 -17 10 -23 28 -23 19 0 24 -5 24 -25
0 -20 5 -25 25 -25 20 0 25 -5 25 -25 0 -18 5 -25 20 -25 15 0 20 -7 20 -25 0
-20 5 -25 25 -25 18 0 25 -5 25 -20 0 -15 7 -20 25 -20 20 0 25 -5 25 -24 0
-18 6 -25 23 -28 14 -2 23 -11 25 -25 2 -14 11 -23 25 -25 14 -2 23 -11 25
-25 3 -17 10 -23 28 -23 19 0 24 -5 24 -25 0 -20 5 -25 25 -25 20 0 25 -5 25
-25 0 -20 5 -25 25 -25 20 0 25 -5 25 -25 0 -20 5 -25 25 -25 20 0 25 -5 25
-24 0 -18 6 -25 23 -28 14 -2 23 -11 25 -25 2 -14 11 -23 25 -25 14 -2 23 -11
25 -25 3 -17 10 -23 28 -23 19 0 24 -5 24 -25 0 -18 5 -25 20 -25 15 0 20 -7
20 -25 0 -20 5 -25 25 -25 18 0 25 -5 25 -20 0 -15 7 -20 25 -20 20 0 25 -5
25 -24 0 -18 6 -25 23 -28 14 -2 23 -11 25 -25 2 -14 11 -23 25 -25 14 -2 23
-11 25 -25 3 -17 10 -23 28 -23 19 0 24 -5 24 -25 0 -20 5 -25 25 -25 20 0 25
-5 25 -25 0 -20 5 -25 25 -25 20 0 25 -5 25 -25 0 -20 5 -25 25 -25 20 0 25
-5 25 -24 0 -18 6 -25 23 -28 14 -2 23 -11 25 -25 2 -14 11 -23 25 -25 14 -2
23 -11 25 -25 3 -17 10 -23 28 -23 19 0 24 -5 24 -25 0 -18 5 -25 20 -25 15 0
20 -7 20 -25 0 -20 5 -25 25 -25 18 0 25 -5 25 -20 0 -15 7 -20 25 -20 20 0
25 -5 25 -24 0 -18 6 -25 23 -28 14 -2 23 -11 25 -25 2 -14 11 -23 25 -25 14
-2 23 -11 25 -25 3 -17 10 -23 28 -23 19 0 24 -5 24 -25 0 -20 5 -25 25 -25
20 0 25 -5 25 -25 0 -20 5 -25 25 -25 20 0 25 -5 25 -25 0 -20 5 -25 25 -25
20 0 25 -5 25 -25 0 -20 5 -25 25 -25 20 0 25 -5 25 -24 0 -18 6 -25 23 -28
14 -2 23 -11 25 -25 3 -17 10 -23 28 -23 19 0 24 -5 24 -25 0 -20 5 -25 25
-25 20 0 25 -5 25 -25 0 -18 5 -25 20 -25 13 0 20 -7 20 -20 0 -15 7 -20 25
-20 20 0 25 -5 25 -25 0 -20 5 -25 25 -25 20 0 25 -5 25 -24 0 -18 6 -25 23
-28 14 -2 23 -11 25 -25 3 -17 10 -23 28 -23 19 0 24 -5 24 -25 0 -20 5 -25
25 -25 20 0 25 -5 25 -25 0 -20 5 -25 25 -25 20 0 25 -5 25 -25 0 -20 5 -25
25 -25 20 0 25 -5 25 -25 0 -20 5 -25 25 -25 20 0 25 -5 25 -24 0 -18 6 -25
23 -28 14 -2 23 -11 25 -26 3 -16 10 -22 28 -22 19 0 24 -5 24 -25 0 -20 5
-25 25 -25 20 0 25 -5 25 -25 0 -18 5 -25 20 -25 13 0 20 -7 20 -20 0 -15 7
-20 25 -20 20 0 25 -5 25 -25 0 -20 5 -25 25 -25 20 0 25 -5 25 -24 0 -18 6
-25 23 -28 14 -2 23 -11 25 -25 3 -17 10 -23 28 -23 19 0 24 -5 24 -25 0 -20
5 -25 25 -25 20 0 25 -5 25 -25 0 -20 5 -25 25 -25 20 0 25 -5 25 -25 0 -20 5
-25 25 -25 20 0 25 -5 25 -25 0 -20 5 -25 25 -25 20 0 25 -5 25 -24 0 -18 6
-25 23 -28 14 -2 23 -11 25 -26 3 -16 10 -22 28 -22 19 0 24 -5 24 -25 0 -20
5 -25 25 -25 20 0 25 -5 25 -25 0 -18 5 -25 20 -25 15 0 20 -7 20 -25 l0 -25
-3392 2 -3393 3 -2 3350 c-2 1843 0 3367 3 3388 4 28 10 37 25 37 12 0 19 -7
19 -20z"/>
<path d="M9430 12670 l0 -100 25 0 25 0 0 100 0 100 -25 0 -25 0 0 -100z"/>
<path d="M8100 8071 c0 -13 -8 -21 -22 -23 -15 -2 -24 -11 -26 -25 -2 -15 -10
-23 -23 -23 -14 0 -19 -7 -19 -25 0 -20 -5 -25 -25 -25 -20 0 -25 -5 -25 -25
0 -20 -5 -25 -25 -25 -20 0 -25 -5 -25 -25 0 -20 -5 -25 -25 -25 -20 0 -25 -5
-25 -25 0 -20 -5 -25 -25 -25 -20 0 -25 -5 -25 -25 0 -20 -5 -25 -25 -25 -20
0 -25 -5 -25 -25 0 -20 -5 -25 -25 -25 -20 0 -25 -5 -25 -25 0 -20 -5 -25 -25
-25 -20 0 -25 -5 -25 -25 0 -20 -5 -25 -25 -25 -23 0 -25 -4 -25 -44 l0 -44
-45 -6 c-36 -6 -45 -11 -45 -27 0 -14 -7 -19 -25 -19 -20 0 -25 -5 -25 -25 0
-23 4 -25 44 -25 39 0 45 3 48 23 2 14 11 23 26 25 16 3 22 10 22 28 0 19 5
24 24 24 18 0 25 6 28 23 2 14 11 23 26 25 16 3 22 10 22 28 0 19 5 24 25 24
20 0 25 5 25 25 0 20 5 25 25 25 18 0 25 5 25 20 0 15 7 20 25 20 20 0 25 5
25 25 0 20 5 25 25 25 20 0 25 5 25 25 0 20 5 25 25 25 20 0 25 5 25 24 0 18
6 25 23 28 14 2 23 11 25 26 2 14 10 22 23 22 14 0 19 7 19 25 0 20 5 25 24
25 20 0 25 6 30 44 6 36 11 45 29 48 14 2 23 11 25 26 3 19 -1 22 -27 22 -24
0 -31 -4 -31 -19z"/>
<path d="M7420 7580 c0 -13 7 -20 20 -20 13 0 20 7 20 20 0 13 -7 20 -20 20
-13 0 -20 -7 -20 -20z"/>
<path d="M7370 7530 c0 -15 7 -20 25 -20 18 0 25 5 25 20 0 15 -7 20 -25 20
-18 0 -25 -5 -25 -20z"/>
<path d="M7320 7480 c0 -15 7 -20 25 -20 18 0 25 5 25 20 0 15 -7 20 -25 20
-18 0 -25 -5 -25 -20z"/>
<path d="M7270 7430 c0 -15 7 -20 25 -20 18 0 25 5 25 20 0 15 -7 20 -25 20
-18 0 -25 -5 -25 -20z"/>
<path d="M7420 7380 c0 -15 -7 -20 -25 -20 -20 0 -25 -5 -25 -25 0 -20 -5 -25
-25 -25 -20 0 -25 -5 -25 -25 0 -23 -3 -25 -50 -25 -47 0 -50 -2 -50 -25 0
-20 -5 -25 -25 -25 -23 0 -25 -3 -25 -50 0 -43 -3 -50 -20 -50 -13 0 -20 -7
-20 -20 0 -17 7 -20 45 -20 41 0 45 2 45 25 0 20 5 25 25 25 23 0 25 4 25 45
0 41 2 45 25 45 20 0 25 5 25 25 0 20 5 25 25 25 20 0 25 5 25 25 0 20 5 25
25 25 20 0 25 5 25 25 0 18 5 25 20 25 13 0 20 7 20 20 0 13 -7 20 -20 20 -13
0 -20 -7 -20 -20z"/>
<path d="M6880 7040 c0 -13 7 -20 20 -20 13 0 20 7 20 20 0 13 -7 20 -20 20
-13 0 -20 -7 -20 -20z"/>
<path d="M6830 6990 c0 -13 7 -20 20 -20 13 0 20 7 20 20 0 13 -7 20 -20 20
-13 0 -20 -7 -20 -20z"/>
<path d="M6680 6650 c0 -13 7 -20 20 -20 13 0 20 7 20 20 0 13 -7 20 -20 20
-13 0 -20 -7 -20 -20z"/>
<path d="M5900 5910 c0 -13 7 -20 20 -20 13 0 20 7 20 20 0 13 -7 20 -20 20
-13 0 -20 -7 -20 -20z"/>
<path d="M5160 5370 c0 -13 7 -20 20 -20 13 0 20 7 20 20 0 13 -7 20 -20 20
-13 0 -20 -7 -20 -20z"/>
<path d="M4860 4925 c0 -20 -5 -25 -25 -25 -20 0 -25 -5 -25 -25 0 -20 -5 -25
-25 -25 -18 0 -25 -5 -25 -20 0 -16 -9 -21 -50 -26 -44 -6 -50 -9 -50 -30 0
-19 -5 -24 -25 -24 -18 0 -25 -5 -25 -19 0 -16 -9 -21 -45 -26 -43 -7 -44 -8
-51 -51 -5 -34 -11 -44 -28 -46 -13 -2 -22 -11 -24 -25 -2 -15 -10 -23 -23
-23 -14 0 -19 -7 -19 -25 0 -20 -5 -25 -25 -25 -21 0 -25 -5 -25 -31 0 -26 3
-30 23 -27 16 2 23 11 25 31 3 25 7 27 48 27 40 0 44 2 44 25 0 20 5 25 25 25
20 0 25 5 25 25 0 20 5 25 25 25 20 0 25 5 25 25 0 20 5 25 25 25 20 0 25 5
25 25 0 20 5 25 25 25 18 0 25 5 25 20 0 15 7 20 25 20 20 0 25 5 25 25 0 20
5 25 25 25 20 0 25 5 25 25 0 20 5 25 25 25 20 0 25 5 25 25 0 18 5 25 20 25
15 0 20 7 20 25 0 18 -5 25 -20 25 -15 0 -20 -7 -20 -25z"/>
<path d="M4270 4385 c0 -20 -5 -25 -25 -25 -20 0 -25 -5 -25 -25 0 -20 -5 -25
-25 -25 -20 0 -25 -5 -25 -25 0 -20 -5 -25 -25 -25 -20 0 -25 -5 -25 -25 0
-20 -5 -25 -25 -25 -20 0 -25 -5 -25 -25 0 -27 5 -28 63 -19 36 6 37 8 37 50
0 40 2 44 25 44 20 0 25 5 25 25 0 20 5 25 25 25 20 0 25 5 25 25 0 20 5 25
25 25 20 0 25 5 25 25 0 20 -5 25 -25 25 -20 0 -25 -5 -25 -25z"/>
<path d="M3930 4096 c0 -7 -3 -28 -6 -45 -6 -28 -4 -31 19 -31 20 0 26 6 31
31 10 51 8 59 -19 59 -15 0 -25 -6 -25 -14z"/>
<path d="M3830 3940 c0 -13 7 -20 20 -20 13 0 20 7 20 20 0 13 -7 20 -20 20
-13 0 -20 -7 -20 -20z"/>
<path d="M3780 3895 c0 -18 5 -25 20 -25 15 0 20 7 20 25 0 18 -5 25 -20 25
-15 0 -20 -7 -20 -25z"/>
<path d="M3430 3745 c0 -20 -5 -25 -25 -25 -20 0 -25 -5 -25 -25 0 -18 -5 -25
-20 -25 -15 0 -20 -7 -20 -25 0 -18 5 -25 19 -25 13 0 21 -8 23 -22 2 -15 11
-24 26 -26 18 -3 22 1 22 22 0 21 -5 26 -25 26 -20 0 -25 5 -25 25 0 20 5 25
25 25 18 0 25 -5 25 -19 0 -14 10 -20 38 -25 57 -9 62 -8 62 19 0 20 5 25 25
25 20 0 25 5 25 25 0 23 -4 25 -45 25 -41 0 -45 -2 -45 -25 0 -21 -5 -25 -30
-25 -25 0 -30 4 -30 25 0 20 5 25 25 25 20 0 25 5 25 25 0 20 -5 25 -25 25
-20 0 -25 -5 -25 -25z"/>
<path d="M3090 3400 c0 -13 7 -20 20 -20 13 0 20 7 20 20 0 13 -7 20 -20 20
-13 0 -20 -7 -20 -20z"/>
<path d="M3140 3350 c0 -15 7 -20 25 -20 18 0 25 5 25 20 0 15 -7 20 -25 20
-18 0 -25 -5 -25 -20z"/>
<path d="M5020 16 c0 -14 20 -16 160 -16 100 0 160 4 160 10 0 6 -55 10 -144
10 -79 0 -151 3 -160 6 -11 4 -16 1 -16 -10z"/>

  </g>
</svg>