<?xml version="1.0" encoding="UTF-8"?>
<svg xmlns="http://www.w3.org/2000/svg" width="100" height="100" baseProfile="tiny-ps" version="1.2">
  <title>infinitum nihil</title>
  <g fill="#200">
    <path d="M20 2h1v1h-1zM22 2h1v1h-1zM23 2h1v1h-1zM24 2h2v1h-2zM59 2h1v1h-1zM60 2h2v1h-2zM62 2h1v1h-1zM69 2h1v1h-1zM74 2h1v1h-1zM75 2h12v1H75zM87 2h1v1h-1zM87 15h1v1h-1zM86 16h1v1h-1zM85 17h1v1h-1zM83 19h1v1h-1zM71 20h1v1h-1zM66 25h1v1h-1zM64 27h1v1h-1zM63 28h1v1h-1zM62 29h1v1h-1zM61 30h1v1h-1zM60 31h1v1h-1zM59 32h1v1h-1zM58 33h1v1h-1zM57 34h1v1h-1zM56 35h1v1h-1zM55 36h1v1h-1zM54 37h1v1h-1zM53 38h1v1h-1zM41 56h1v1h-1zM53 58h1v1h-1zM38 59h1v1h-1zM54 59h1v1h-1zM55 60h1v1h-1zM56 61h1v1h-1zM57 62h1v1h-1zM37 63h1v1h-1zM58 63h1v1h-1zM34 64h1v1h-1zM59 64h1v1h-1zM60 65h1v1h-1zM61 66h1v1h-1zM30 67h1v1h-1zM33 67h1v1h-1zM62 67h1v1h-1zM63 68h1v1h-1zM29 69h1v1h-1zM31 69h1v1h-1zM64 69h1v1h-1zM27 70h1v1h-1zM65 70h1v1h-1zM26 71h1v1h-1zM66 71h1v1h-1zM25 72h1v1h-1zM67 72h1v1h-1zM24 73h1v1h-1zM68 73h1v1h-1zM23 74h1v1h-1zM69 74h1v1h-1zM70 75h1v1h-1zM71 76h1v1h-1zM23 77h1v1h-1zM22 78h1v1h-1zM21 79h1v1h-1zM74 79h1v1h-1zM20 80h1v1h-1zM14 82h1v1h-1zM18 82h1v1h-1zM13 83h1v1h-1zM12 84h1v1h-1zM92 95h1v1h-1zM93 95h1v1h-1zM94 95h1v1h-1zM24 96h2v1h-2zM26 96h1v1h-1zM27 96h1v1h-1zM56 96h1v1h-1zM57 96h1v1h-1zM58 96h15v1H58zM73 96h1v1h-1zM74 96h1v1h-1z"/>
  </g>
  <g fill="#d11">
    <path d="M7 3h1v1H7zM9 3h1v1H9zM10 3h3v1h-3zM13 3h1v1h-1zM15 9h1v1h-1zM82 11h1v1h-1zM81 12h1v1h-1zM88 12h1v1h-1zM89 12h1v1h-1zM80 13h1v1h-1zM10 14h1v1h-1zM79 14h1v1h-1zM78 15h1v1h-1zM77 16h1v1h-1zM76 17h1v1h-1zM75 18h1v1h-1zM82 18h1v1h-1zM74 19h1v1h-1zM81 19h1v1h-1zM73 20h1v1h-1zM80 20h1v1h-1zM72 21h1v1h-1zM79 21h1v1h-1zM71 22h1v1h-1zM78 22h1v1h-1zM70 23h1v1h-1zM77 23h1v1h-1zM69 24h1v1h-1zM76 24h1v1h-1zM68 25h1v1h-1zM75 25h1v1h-1zM67 26h1v1h-1zM74 26h1v1h-1zM66 27h1v1h-1zM73 27h1v1h-1zM65 28h1v1h-1zM72 28h1v1h-1zM64 29h1v1h-1zM71 29h1v1h-1zM63 30h1v1h-1zM70 30h1v1h-1zM62 31h1v1h-1zM69 31h1v1h-1zM61 32h1v1h-1zM68 32h1v1h-1zM51 33h1v1h-1zM60 33h1v1h-1zM67 33h1v1h-1zM51 34h1v1h-1zM66 34h1v1h-1zM65 35h1v1h-1zM51 36h1v1h-1zM64 36h1v1h-1zM51 37h1v1h-1zM63 37h1v1h-1zM51 38h1v1h-1zM62 38h1v1h-1zM51 39h1v1h-1zM61 39h1v1h-1zM51 40h1v1h-1zM60 40h1v1h-1zM52 41h1v1h-1zM59 41h1v1h-1zM58 42h1v1h-1zM57 43h1v1h-1zM56 44h1v1h-1zM55 45h1v1h-1zM10 46h1v1h-1zM43 46h1v1h-1zM55 47h1v1h-1zM11 52h1v1h-1zM45 52h1v1h-1zM58 52h1v1h-1zM10 53h1v1h-1zM58 54h1v1h-1zM51 55h1v1h-1zM52 55h1v1h-1zM61 57h1v1h-1zM63 59h1v1h-1zM64 60h1v1h-1zM65 61h1v1h-1zM66 62h1v1h-1zM67 63h1v1h-1zM68 64h1v1h-1zM69 65h1v1h-1zM70 66h1v1h-1zM71 67h1v1h-1zM65 68h1v1h-1zM72 68h1v1h-1zM66 69h1v1h-1zM73 69h1v1h-1zM67 70h1v1h-1zM74 70h1v1h-1zM68 71h1v1h-1zM75 71h1v1h-1zM69 72h1v1h-1zM76 72h1v1h-1zM70 73h1v1h-1zM77 73h1v1h-1zM71 74h1v1h-1zM78 74h1v1h-1zM72 75h1v1h-1zM79 75h1v1h-1zM73 76h1v1h-1zM80 76h1v1h-1zM74 77h1v1h-1zM81 77h1v1h-1zM75 78h1v1h-1zM82 78h1v1h-1zM76 79h1v1h-1zM83 79h1v1h-1zM77 80h1v1h-1zM84 80h1v1h-1zM78 81h1v1h-1zM85 81h1v1h-1zM79 82h1v1h-1zM86 82h1v1h-1zM80 83h1v1h-1zM87 83h1v1h-1zM81 84h1v1h-1zM88 84h1v1h-1zM89 84h1v1h-1zM82 85h1v1h-1zM83 86h1v1h-1zM10 87h1v1h-1zM84 87h1v1h-1zM11 89h1v1h-1zM12 89h15v1H12zM27 89h18v1H27zM45 89h1v1h-1zM52 89h1v1h-1zM53 89h16v1H53zM69 89h15v1H69zM84 89h1v1h-1zM7 94h3v1H7zM10 94h1v1h-1zM11 94h1v1h-1zM12 94h1v1h-1zM13 94h7v1h-7zM29 94h1v1h-1zM32 94h1v1h-1zM33 94h3v1h-3zM36 94h1v1h-1zM37 94h1v1h-1zM40 94h1v1h-1zM54 94h1v1h-1zM76 94h1v1h-1zM84 94h1v1h-1zM85 94h1v1h-1zM86 94h1v1h-1zM87 94h1v1h-1zM88 94h2v1h-2z"/>
  </g>
  <g fill="#d12">
    <path d="M8 3h1v1H8zM91 3h1v1h-1zM26 4h33v1H26zM63 4h5v1h-5zM70 4h4v1h-4zM94 4h1v1h-1zM5 6h1v87H5zM89 47h1v1h-1zM59 55h1v1h-1zM60 56h1v1h-1zM62 58h1v1h-1zM94 93h1v1h-1zM20 94h1v1h-1zM21 94h1v1h-1zM22 94h1v1h-1zM23 94h1v1h-1zM28 94h1v1h-1zM30 94h2v1h-2zM38 94h2v1h-2zM41 94h1v1h-1zM44 94h1v1h-1zM45 94h1v1h-1zM46 94h1v1h-1zM47 94h1v1h-1zM48 94h1v1h-1zM49 94h1v1h-1zM50 94h1v1h-1zM51 94h1v1h-1zM53 94h1v1h-1zM55 94h1v1h-1zM74 94h1v1h-1zM75 94h1v1h-1zM77 94h1v1h-1zM78 94h1v1h-1zM79 94h1v1h-1zM83 94h1v1h-1z"/>
  </g>
  <g fill="#c11">
    <path d="M14 3h1v1h-1zM15 3h1v1h-1zM92 3h1v1h-1zM5 4h1v1H5zM16 9h1v1h-1zM17 9h28v1H17zM45 9h1v1h-1zM52 9h1v1h-1zM53 9h18v1H53zM71 9h1v1h-1zM72 9h10v1H72zM82 9h1v1h-1zM15 10h1v1h-1zM51 10h1v1h-1zM51 11h1v11h-1zM87 13h1v1h-1zM86 14h1v1h-1zM10 15h1v1h-1zM85 15h1v1h-1zM10 16h1v30h-1zM84 16h1v1h-1zM83 17h1v1h-1zM51 22h1v1h-1zM51 23h1v1h-1zM51 24h1v1h-1zM51 25h1v2h-1zM51 27h1v1h-1zM51 28h1v1h-1zM51 29h1v1h-1zM51 30h1v1h-1zM51 31h1v1h-1zM51 32h1v1h-1zM59 34h1v1h-1zM51 35h1v1h-1zM58 35h1v1h-1zM57 36h1v1h-1zM34 37h1v1h-1zM56 37h1v1h-1zM35 38h1v1h-1zM55 38h1v1h-1zM36 39h1v1h-1zM54 39h1v1h-1zM37 40h1v1h-1zM45 40h1v1h-1zM53 40h1v1h-1zM38 41h1v1h-1zM39 42h1v1h-1zM40 43h1v1h-1zM41 44h1v1h-1zM42 45h1v1h-1zM89 46h1v1h-1zM11 47h1v1h-1zM12 47h30v1H12zM42 47h1v1h-1zM56 47h32v1H56zM88 47h1v1h-1zM12 52h33v1H12zM59 52h29v1H59zM88 52h1v1h-1zM89 53h1v1h-1zM10 54h1v32h-1zM51 56h1v1h-1zM53 56h1v1h-1zM51 57h1v1h-1zM54 57h1v1h-1zM51 58h1v1h-1zM55 58h1v1h-1zM51 59h1v29h-1zM56 59h1v1h-1zM57 60h1v1h-1zM58 61h1v1h-1zM59 62h1v1h-1zM60 63h1v1h-1zM61 64h1v1h-1zM62 65h1v1h-1zM63 66h1v1h-1zM64 67h1v1h-1zM10 86h1v1h-1zM51 88h1v1h-1zM5 93h1v1H5zM6 94h1v1H6zM90 94h1v1h-1z"/>
  </g>
  <g fill="#801">
    <path d="M23 3h1v1h-1zM62 3h1v1h-1z"/>
  </g>
  <g fill="#c12">
    <path d="M89 3h1v1h-1zM5 5h1v1H5z"/>
  </g>
  <g fill="#600">
    <path d="M7 2h1v1H7zM8 2h1v1H8zM91 2h1v1h-1zM5 3h1v1H5zM26 3h1v1h-1zM27 3h4v1h-4zM31 3h3v1h-3zM34 3h1v1h-1zM35 3h1v1h-1zM36 3h6v1h-6zM42 3h1v1h-1zM43 3h9v1h-9zM52 3h6v1h-6zM58 3h1v1h-1zM63 3h1v1h-1zM64 3h3v1h-3zM67 3h1v1h-1zM70 3h1v1h-1zM71 3h2v1h-2zM73 3h1v1h-1zM95 5h1v88h-1zM52 10h1v1h-1zM17 11h1v1h-1zM45 11h1v1h-1zM45 12h1v1h-1zM19 13h1v1h-1zM45 13h1v4h-1zM20 14h1v1h-1zM45 17h1v11h-1zM15 19h1v1h-1zM16 20h1v1h-1zM17 21h1v1h-1zM18 22h1v1h-1zM19 23h1v1h-1zM20 24h1v1h-1zM21 25h1v1h-1zM22 26h1v1h-1zM23 27h1v1h-1zM24 28h1v1h-1zM45 28h1v10h-1zM25 29h1v1h-1zM26 30h1v1h-1zM27 31h1v1h-1zM52 31h1v1h-1zM28 32h1v1h-1zM52 32h1v1h-1zM29 33h1v1h-1zM52 33h1v1h-1zM30 34h1v1h-1zM31 35h1v1h-1zM32 36h1v1h-1zM45 38h1v1h-1zM52 39h1v1h-1zM45 57h1v1h-1zM45 58h1v16h-1zM40 60h1v1h-1zM27 71h1v1h-1zM26 72h1v1h-1zM25 73h1v1h-1zM45 74h1v13h-1zM24 75h1v1h-1zM22 76h1v1h-1zM21 77h1v1h-1zM15 82h1v1h-1zM14 83h1v1h-1zM45 87h1v1h-1zM13 88h1v1h-1zM14 88h30v1H14zM44 88h1v1h-1zM53 88h1v1h-1zM54 88h29v1H54zM41 95h1v1h-1zM42 95h1v1h-1zM43 95h1v1h-1zM45 95h1v1h-1zM46 95h1v1h-1zM47 95h1v1h-1zM52 95h1v1h-1zM53 95h1v1h-1zM82 95h1v1h-1z"/>
  </g>
  <g fill="#800">
    <path d="M74 3h1v1h-1zM88 13h1v1h-1zM84 17h1v1h-1zM74 18h1v1h-1zM82 19h1v1h-1zM72 20h1v1h-1zM81 20h1v1h-1zM71 21h1v1h-1zM80 21h1v1h-1zM70 22h1v1h-1zM79 22h1v1h-1zM69 23h1v1h-1zM78 23h1v1h-1zM68 24h1v1h-1zM77 24h1v1h-1zM67 25h1v1h-1zM76 25h1v1h-1zM66 26h1v1h-1zM75 26h1v1h-1zM65 27h1v1h-1zM74 27h1v1h-1zM64 28h1v1h-1zM73 28h1v1h-1zM63 29h1v1h-1zM72 29h1v1h-1zM62 30h1v1h-1zM71 30h1v1h-1zM61 31h1v1h-1zM70 31h1v1h-1zM60 32h1v1h-1zM59 33h1v1h-1zM58 34h1v1h-1zM57 35h1v1h-1zM56 36h1v1h-1zM55 37h1v1h-1zM54 38h1v1h-1zM45 39h1v1h-1zM53 39h1v1h-1zM11 46h1v1h-1zM56 46h1v1h-1zM11 53h1v1h-1zM59 53h1v1h-1zM44 55h1v1h-1zM43 56h1v1h-1zM44 56h1v1h-1zM52 56h1v1h-1zM42 57h1v1h-1zM43 57h1v1h-1zM53 57h1v1h-1zM41 58h1v1h-1zM55 59h1v1h-1zM56 60h1v1h-1zM57 61h1v1h-1zM58 62h1v1h-1zM59 63h1v1h-1zM60 64h1v1h-1zM61 65h1v1h-1zM62 66h1v1h-1zM63 67h1v1h-1zM64 68h1v1h-1zM65 69h1v1h-1zM66 70h1v1h-1zM67 71h1v1h-1zM27 72h1v1h-1zM68 72h1v1h-1zM69 73h1v1h-1zM70 74h1v1h-1zM71 75h1v1h-1zM72 76h1v1h-1zM73 77h1v1h-1zM74 78h1v1h-1zM83 78h1v1h-1zM19 79h1v1h-1zM75 79h1v1h-1zM84 79h1v1h-1zM18 80h1v1h-1zM85 80h1v1h-1zM17 81h1v1h-1zM77 81h1v1h-1zM86 81h1v1h-1zM78 82h1v1h-1zM87 82h1v1h-1zM16 83h1v1h-1zM15 84h1v1h-1zM80 84h1v1h-1zM14 85h1v1h-1zM11 86h1v1h-1zM13 86h1v1h-1zM82 86h1v1h-1zM45 88h1v1h-1z"/>
  </g>
  <g fill="#e12">
    <path d="M6 4h1v1H6zM7 4h7v1H7zM14 4h1v1h-1zM15 4h1v1h-1zM16 4h3v1h-3zM19 4h1v1h-1zM20 4h1v1h-1zM21 4h1v1h-1zM22 4h1v1h-1zM23 4h1v1h-1zM24 4h2v1h-2zM59 4h1v1h-1zM60 4h2v1h-2zM62 4h1v1h-1zM68 4h1v1h-1zM69 4h1v1h-1zM74 4h1v1h-1zM75 4h13v1H75zM88 4h1v1h-1zM89 4h1v1h-1zM90 4h2v1h-2zM92 4h1v1h-1zM93 4h1v1h-1zM6 5h1v88H6zM7 5h13v3H7zM20 5h40v1H20zM60 5h2v3h-2zM62 5h13v1H62zM75 5h18v3H75zM93 5h1v88h-1zM94 5h1v88h-1z"/>
    <path d="M20 6h73v2H20zM7 8h7v5H7zM14 8h1v1h-1zM15 8h31v1H15zM46 8h1v1h-1zM47 8h4v1h-4zM51 8h1v1h-1zM52 8h31v1H52zM83 8h1v1h-1zM84 8h9v1h-9zM14 9h1v2h-1zM46 9h1v1h-1zM47 9h3v1h-3zM50 9h1v1h-1zM51 9h1v1h-1zM83 9h1v2h-1zM84 9h1v2h-1zM85 9h8v2h-8zM46 10h1v1h-1zM47 10h1v31h-1zM48 10h2v83h-2zM50 10h1v22h-1zM14 11h1v1h-1zM15 11h1v1h-1zM46 11h1v29h-1zM83 11h1v1h-1zM84 11h4v1h-4zM88 11h2v1h-2zM90 11h3v1h-3zM14 12h1v3h-1zM15 12h1v1h-1zM16 12h1v1h-1zM82 12h1v1h-1zM83 12h4v1h-4zM87 12h1v1h-1zM90 12h1v1h-1zM91 12h2v81h-2zM7 13h2v80H7zM9 13h1v1H9zM10 13h2v1h-2zM12 13h1v1h-1z"/>
    <path d="M13 13h3v1h-3zM16 13h1v1h-1zM17 13h1v1h-1zM81 13h1v1h-1zM82 13h4v1h-4zM86 13h1v1h-1zM90 13h1v33h-1zM9 14h1v1H9zM12 14h1v1h-1zM13 14h1v1h-1zM15 14h2v2h-2zM17 14h1v1h-1zM18 14h1v1h-1zM80 14h1v1h-1zM81 14h4v1h-4zM85 14h1v1h-1zM9 15h1v31H9zM13 15h1v1h-1zM14 15h1v1h-1zM17 15h1v3h-1zM18 15h1v1h-1zM19 15h1v1h-1zM79 15h1v1h-1zM80 15h4v1h-4zM84 15h1v1h-1zM14 16h1v1h-1zM15 16h1v1h-1z"/>
    <path d="M16 16h3v1h-3zM19 16h1v1h-1zM20 16h1v1h-1zM78 16h1v1h-1zM79 16h4v1h-4zM83 16h1v1h-1zM15 17h1v1h-1zM16 17h1v1h-1zM18 17h2v2h-2zM20 17h1v1h-1zM21 17h1v1h-1zM77 17h1v1h-1zM78 17h4v1h-4zM82 17h1v1h-1zM16 18h1v1h-1zM17 18h1v1h-1zM20 18h1v3h-1zM21 18h1v1h-1zM22 18h1v1h-1zM76 18h1v1h-1zM77 18h4v1h-4zM81 18h1v1h-1zM17 19h1v1h-1zM18 19h1v1h-1z"/>
    <path d="M19 19h3v1h-3zM22 19h1v1h-1zM23 19h1v1h-1zM75 19h1v1h-1zM76 19h4v1h-4zM80 19h1v1h-1zM18 20h1v1h-1zM19 20h1v1h-1zM21 20h2v2h-2zM23 20h1v1h-1zM24 20h1v1h-1zM74 20h1v1h-1zM75 20h4v1h-4zM79 20h1v1h-1zM19 21h1v1h-1zM20 21h1v1h-1zM23 21h1v3h-1zM24 21h1v1h-1zM25 21h1v1h-1zM73 21h1v1h-1zM74 21h4v1h-4zM78 21h1v1h-1zM20 22h1v1h-1zM21 22h1v1h-1z"/>
    <path d="M22 22h3v1h-3zM25 22h1v1h-1zM26 22h1v1h-1zM72 22h1v1h-1zM73 22h4v1h-4zM77 22h1v1h-1zM21 23h1v1h-1zM22 23h1v1h-1zM24 23h2v2h-2zM26 23h1v1h-1zM27 23h1v1h-1zM71 23h1v1h-1zM72 23h4v1h-4zM76 23h1v1h-1zM22 24h1v1h-1zM23 24h1v1h-1zM26 24h1v3h-1zM27 24h1v1h-1zM28 24h1v1h-1zM70 24h1v1h-1zM71 24h4v1h-4zM75 24h1v1h-1zM23 25h1v1h-1zM24 25h1v1h-1z"/>
    <path d="M25 25h3v1h-3zM28 25h1v1h-1zM29 25h1v1h-1zM69 25h1v1h-1zM70 25h4v1h-4zM74 25h1v1h-1zM24 26h1v1h-1zM25 26h1v1h-1zM27 26h2v2h-2zM29 26h1v1h-1zM30 26h1v1h-1zM68 26h1v1h-1zM69 26h4v1h-4zM73 26h1v1h-1zM25 27h1v1h-1zM26 27h1v1h-1zM29 27h1v4h-1zM30 27h1v1h-1zM31 27h1v1h-1zM67 27h1v1h-1zM68 27h4v1h-4zM72 27h1v1h-1zM26 28h1v1h-1zM27 28h1v1h-1z"/>
    <path d="M28 28h3v1h-3zM31 28h1v1h-1zM32 28h1v1h-1zM66 28h1v1h-1zM67 28h4v1h-4zM71 28h1v1h-1zM27 29h1v1h-1zM28 29h1v1h-1zM30 29h2v3h-2zM32 29h1v1h-1zM33 29h1v1h-1zM65 29h1v1h-1zM66 29h4v1h-4zM70 29h1v1h-1zM28 30h1v1h-1zM32 30h1v4h-1zM33 30h1v1h-1zM34 30h1v1h-1zM64 30h1v1h-1zM65 30h4v1h-4zM69 30h1v1h-1zM29 31h1v1h-1zM33 31h1v4h-1zM34 31h1v1h-1zM35 31h1v1h-1zM63 31h1v1h-1zM64 31h4v1h-4zM68 31h1v1h-1zM30 32h1v1h-1zM31 32h1v1h-1zM34 32h1v4h-1zM35 32h1v1h-1zM36 32h1v1h-1zM50 32h1v3h-1zM62 32h1v1h-1zM63 32h4v1h-4zM67 32h1v1h-1zM31 33h1v1h-1zM35 33h1v4h-1zM36 33h1v1h-1zM37 33h1v1h-1zM61 33h1v1h-1zM62 33h4v1h-4zM66 33h1v1h-1zM32 34h1v1h-1zM36 34h1v4h-1zM37 34h1v1h-1zM38 34h1v1h-1zM60 34h1v1h-1zM61 34h4v1h-4zM65 34h1v1h-1zM33 35h1v1h-1zM37 35h1v4h-1zM38 35h1v1h-1zM39 35h1v1h-1zM50 35h1v1h-1zM59 35h1v1h-1zM60 35h4v1h-4zM64 35h1v1h-1zM34 36h1v1h-1zM38 36h1v4h-1zM39 36h1v1h-1zM40 36h1v1h-1zM50 36h1v5h-1zM58 36h1v1h-1zM59 36h4v1h-4zM63 36h1v1h-1zM35 37h1v1h-1zM39 37h1v4h-1zM40 37h1v1h-1zM41 37h1v1h-1zM57 37h1v1h-1zM58 37h4v1h-4zM62 37h1v1h-1zM36 38h1v1h-1zM40 38h1v4h-1zM41 38h1v1h-1zM42 38h1v1h-1zM56 38h1v1h-1zM57 38h4v1h-4zM61 38h1v1h-1zM37 39h1v1h-1zM41 39h1v4h-1zM42 39h1v1h-1zM43 39h1v1h-1zM55 39h1v1h-1zM56 39h4v1h-4zM60 39h1v1h-1zM38 40h1v1h-1zM42 40h1v4h-1zM43 40h1v1h-1zM44 40h1v1h-1zM46 40h1v1h-1zM54 40h1v1h-1zM55 40h4v1h-4zM59 40h1v1h-1zM39 41h1v1h-1zM43 41h1v4h-1zM44 41h1v1h-1zM45 41h1v1h-1zM46 41h1v1h-1zM47 41h3v12h-3zM50 41h1v1h-1zM51 41h1v1h-1zM53 41h1v1h-1zM54 41h4v1h-4zM58 41h1v1h-1zM40 42h1v1h-1z"/>
    <path d="M44 42h7v3h-7zM51 42h2v1h-2zM53 42h4v1h-4zM57 42h1v1h-1zM41 43h1v1h-1zM51 43h5v1h-5zM56 43h1v1h-1zM42 44h1v1h-1zM51 44h4v1h-4zM55 44h1v1h-1zM43 45h1v1h-1zM44 45h1v1h-1zM45 45h9v1h-9zM54 45h1v1h-1zM9 46h1v1H9zM44 46h1v1h-1zM45 46h8v6h-8zM53 46h1v1h-1zM54 46h1v1h-1zM90 46h1v1h-1zM9 47h1v1H9zM10 47h1v1h-1zM43 47h1v1h-1zM44 47h1v1h-1zM53 47h1v1h-1zM54 47h1v1h-1zM90 47h1v1h-1z"/>
    <path d="M9 48h84v4H9zM9 52h1v1H9zM10 52h1v1h-1zM46 52h1v1h-1zM50 52h7v2h-7zM57 52h1v1h-1zM89 52h1v1h-1zM90 52h1v1h-1zM9 53h1v1H9zM46 53h1v1h-1zM47 53h1v36h-1zM57 53h1v1h-1zM90 53h1v1h-1zM9 54h1v33H9zM46 54h1v1h-1zM50 54h1v1h-1zM51 54h1v1h-1zM52 54h1v1h-1zM53 54h4v1h-4zM57 54h1v1h-1zM90 54h1v30h-1zM46 55h1v1h-1zM50 55h1v1h-1zM53 55h1v1h-1zM54 55h4v1h-4zM58 55h1v1h-1zM46 56h1v32h-1zM50 56h1v33h-1zM54 56h1v1h-1zM55 56h4v1h-4zM59 56h1v1h-1zM55 57h1v1h-1zM56 57h4v1h-4zM60 57h1v1h-1zM56 58h1v1h-1zM57 58h4v1h-4zM61 58h1v1h-1zM57 59h1v1h-1zM58 59h4v1h-4zM62 59h1v1h-1zM58 60h1v1h-1zM59 60h4v1h-4zM63 60h1v1h-1zM59 61h1v1h-1zM60 61h4v1h-4zM64 61h1v1h-1zM60 62h1v1h-1zM61 62h4v1h-4zM65 62h1v1h-1zM61 63h1v1h-1zM62 63h4v1h-4zM66 63h1v1h-1zM62 64h1v1h-1zM63 64h4v1h-4zM67 64h1v1h-1zM63 65h1v1h-1zM64 65h4v1h-4zM68 65h1v1h-1zM64 66h1v1h-1zM65 66h4v1h-4zM69 66h1v1h-1zM65 67h1v1h-1zM66 67h4v1h-4zM70 67h1v1h-1zM66 68h1v1h-1zM67 68h4v1h-4zM71 68h1v1h-1zM67 69h1v1h-1zM68 69h4v1h-4zM72 69h1v1h-1zM68 70h1v1h-1zM69 70h4v1h-4zM73 70h1v1h-1zM69 71h1v1h-1zM70 71h4v1h-4zM74 71h1v1h-1zM70 72h1v1h-1zM71 72h4v1h-4zM75 72h1v1h-1zM71 73h1v1h-1zM72 73h4v1h-4zM76 73h1v1h-1zM72 74h1v1h-1zM73 74h4v1h-4zM77 74h1v1h-1zM73 75h1v1h-1zM74 75h4v1h-4zM78 75h1v1h-1zM74 76h1v1h-1zM75 76h4v1h-4zM79 76h1v1h-1zM75 77h1v1h-1zM76 77h4v1h-4zM80 77h1v1h-1zM76 78h1v1h-1zM77 78h4v1h-4zM81 78h1v1h-1zM77 79h1v1h-1zM78 79h4v1h-4zM82 79h1v1h-1zM78 80h1v1h-1zM79 80h4v1h-4zM83 80h1v1h-1zM79 81h1v1h-1zM80 81h4v1h-4zM84 81h1v1h-1zM80 82h1v1h-1zM81 82h4v1h-4zM85 82h1v1h-1zM81 83h1v1h-1zM82 83h4v1h-4zM86 83h1v1h-1zM82 84h1v1h-1zM83 84h4v1h-4zM87 84h1v1h-1zM90 84h1v1h-1zM83 85h1v1h-1zM84 85h4v1h-4zM88 85h1v1h-1zM89 85h1v1h-1zM90 85h3v8h-3zM84 86h1v1h-1z"/>
    <path d="M85 86h8v1h-8zM9 87h1v1H9zM85 87h1v1h-1zM86 87h7v1h-7zM9 88h1v1H9zM10 88h1v1h-1zM46 88h1v1h-1zM85 88h1v1h-1zM86 88h1v1h-1zM87 88h6v5h-6zM9 89h1v1H9zM10 89h1v1h-1zM46 89h1v1h-1zM47 89h3v4h-3zM50 89h1v1h-1zM51 89h1v1h-1zM85 89h1v1h-1z"/>
    <path d="M86 89h7v4h-7zM9 90h1v3H9zM10 90h1v1h-1zM11 90h35v1H11zM46 90h5v3h-5zM51 90h34v1H51z"/>
    <path d="M85 90h8v3h-8z"/>
    <path d="M10 91h83v2H10zM6 93h1v1H6zM7 93h3v1H7zM10 93h3v1h-3zM13 93h7v1h-7zM20 93h1v1h-1zM21 93h1v1h-1zM22 93h1v1h-1zM23 93h1v1h-1zM24 93h3v1h-3zM27 93h1v1h-1zM28 93h1v1h-1zM29 93h9v1h-9zM38 93h3v1h-3zM41 93h1v1h-1zM42 93h1v1h-1zM43 93h1v1h-1zM44 93h1v1h-1zM45 93h3v1h-3zM48 93h1v1h-1zM49 93h1v1h-1zM50 93h1v1h-1zM51 93h1v1h-1zM52 93h1v1h-1zM53 93h1v1h-1zM54 93h1v1h-1zM55 93h1v1h-1zM56 93h18v1H56zM74 93h1v1h-1zM75 93h3v1h-3zM78 93h1v1h-1zM79 93h1v1h-1zM80 93h2v1h-2zM82 93h1v1h-1zM83 93h1v1h-1zM84 93h1v1h-1zM85 93h3v1h-3zM88 93h2v1h-2zM90 93h1v1h-1zM91 93h1v1h-1zM92 93h1v1h-1zM93 93h1v1h-1zM24 94h2v1h-2zM26 94h1v1h-1zM27 94h1v1h-1zM42 94h1v1h-1zM43 94h1v1h-1zM52 94h1v1h-1zM56 94h1v1h-1zM57 94h1v1h-1zM58 94h14v1H58zM72 94h1v1h-1zM73 94h1v1h-1zM80 94h1v1h-1zM81 94h1v1h-1zM82 94h1v1h-1z"/>
  </g>
  <path fill="#611" d="M30 95h1v1h-1z"/>
  <g fill="#400">
    <path d="M94 2h1v1h-1zM95 3h1v1h-1zM4 4h1v1H4zM52 11h1v1h-1zM52 12h1v10h-1zM88 14h1v1h-1zM11 16h1v1h-1zM11 17h1v28h-1zM52 22h1v1h-1zM52 23h1v1h-1zM52 24h1v1h-1zM52 25h1v2h-1zM52 27h1v1h-1zM52 28h1v1h-1zM52 29h1v1h-1zM52 30h1v1h-1zM61 41h1v1h-1zM59 43h1v1h-1zM58 44h1v1h-1zM11 45h1v1h-1zM11 54h1v1h-1zM60 54h1v1h-1zM11 55h1v30h-1zM61 55h1v1h-1zM62 56h1v1h-1zM44 57h1v1h-1zM52 57h1v1h-1zM63 57h1v1h-1zM43 58h1v1h-1zM52 58h1v29h-1zM64 58h1v1h-1zM39 59h1v1h-1zM65 59h1v1h-1zM38 60h1v1h-1zM66 60h1v1h-1zM67 61h1v1h-1zM38 62h1v1h-1zM68 62h1v1h-1zM69 63h1v1h-1zM70 64h1v1h-1zM71 65h1v1h-1zM33 66h1v1h-1zM72 66h1v1h-1zM31 67h1v1h-1zM32 67h1v1h-1zM73 67h1v1h-1zM30 68h1v1h-1zM32 68h1v1h-1zM74 68h1v1h-1zM75 69h1v1h-1zM29 70h1v1h-1zM76 70h1v1h-1zM29 71h1v1h-1zM27 73h1v1h-1zM26 74h1v1h-1zM23 75h1v1h-1zM25 75h1v1h-1zM21 76h1v1h-1zM23 76h1v1h-1zM20 77h1v1h-1zM52 87h1v1h-1zM6 95h1v1H6zM7 95h3v1H7zM10 95h1v1h-1zM11 95h1v1h-1zM12 95h1v1h-1zM13 95h6v1h-6zM19 95h1v1h-1zM33 95h4v1h-4zM86 95h1v1h-1zM87 95h1v1h-1zM88 95h2v1h-2zM90 95h1v1h-1z"/>
  </g>
  <g fill="#811">
    <path d="M22 3h1v1h-1zM24 3h1v1h-1zM25 3h1v1h-1zM59 3h1v1h-1zM69 3h1v1h-1zM74 95h1v1h-1z"/>
  </g>
  <g fill="#711">
    <path d="M90 2h1v1h-1zM21 95h1v1h-1zM28 95h1v1h-1zM75 95h1v1h-1zM77 95h1v1h-1zM81 95h1v1h-1z"/>
  </g>
  <g fill="#700">
    <path d="M68 3h1v1h-1zM16 10h1v1h-1zM45 10h1v1h-1zM87 14h1v1h-1zM11 15h1v1h-1zM86 15h1v1h-1zM85 16h1v1h-1zM83 18h1v1h-1zM33 37h1v1h-1zM34 38h1v1h-1zM35 39h1v1h-1zM36 40h1v1h-1zM37 41h1v1h-1zM38 42h1v1h-1zM39 43h1v1h-1zM40 44h1v1h-1zM41 45h1v1h-1zM12 46h29v1H12zM41 46h1v1h-1zM57 46h31v1H57zM88 46h1v1h-1zM12 53h31v1H12zM43 53h1v1h-1zM44 53h1v1h-1zM60 53h1v1h-1zM61 53h1v1h-1zM62 53h26v1H62zM88 53h1v1h-1zM45 56h1v1h-1zM42 58h1v1h-1zM54 58h1v1h-1zM40 59h1v1h-1zM41 59h1v1h-1zM28 71h1v1h-1zM26 73h1v1h-1zM25 74h1v1h-1zM22 77h1v1h-1zM20 78h1v1h-1zM20 79h1v1h-1zM19 80h1v1h-1zM18 81h1v1h-1zM17 82h1v1h-1zM13 84h1v1h-1zM12 85h1v1h-1zM12 88h1v1h-1zM52 88h1v1h-1zM83 88h1v1h-1zM23 95h1v1h-1zM55 95h1v1h-1zM80 95h1v1h-1z"/>
  </g>
  <g fill="#b01">
    <path d="M35 30h1v1h-1zM37 32h1v1h-1zM38 33h1v1h-1zM39 34h1v1h-1zM40 35h1v1h-1zM41 36h1v1h-1zM44 39h1v1h-1zM13 85h1v1h-1zM12 86h1v1h-1z"/>
  </g>
  <g fill="#610">
    <path d="M31 95h1v1h-1zM76 95h1v1h-1zM78 95h1v1h-1z"/>
  </g>
  <g fill="#b11">
    <path d="M6 3h1v1H6zM16 3h1v1h-1zM17 3h1v1h-1zM18 3h1v1h-1zM19 3h1v1h-1zM93 3h1v1h-1zM16 11h1v1h-1zM17 12h1v1h-1zM18 13h1v1h-1zM89 13h1v1h-1zM11 14h1v1h-1zM19 14h1v1h-1zM89 14h1v31h-1zM12 15h1v1h-1zM20 15h1v1h-1zM13 16h1v1h-1zM21 16h1v1h-1zM14 17h1v1h-1zM22 17h1v1h-1zM15 18h1v1h-1zM23 18h1v1h-1zM16 19h1v1h-1zM24 19h1v1h-1zM17 20h1v1h-1zM25 20h1v1h-1zM18 21h1v1h-1zM26 21h1v1h-1zM19 22h1v1h-1zM27 22h1v1h-1zM20 23h1v1h-1zM28 23h1v1h-1zM21 24h1v1h-1zM29 24h1v1h-1zM22 25h1v1h-1zM30 25h1v1h-1zM23 26h1v1h-1zM31 26h1v1h-1zM24 27h1v1h-1zM32 27h1v1h-1zM25 28h1v1h-1zM33 28h1v1h-1zM26 29h1v1h-1zM34 29h1v1h-1zM27 30h1v1h-1zM28 31h1v1h-1zM36 31h1v1h-1zM29 32h1v1h-1zM30 33h1v1h-1zM31 34h1v1h-1zM32 35h1v1h-1zM33 36h1v1h-1zM89 45h1v1h-1zM55 46h1v1h-1zM58 53h1v1h-1zM89 54h1v1h-1zM89 55h1v27h-1zM89 82h1v1h-1zM89 83h1v1h-1zM11 87h1v1h-1zM91 94h1v1h-1z"/>
  </g>
  <g fill="#100">
    <path d="M7 1h1v1H7zM8 1h1v1H8zM90 1h1v1h-1zM91 1h1v1h-1zM5 2h1v1H5zM26 2h1v1h-1zM27 2h31v1H27zM58 2h1v1h-1zM63 2h1v1h-1zM64 2h3v1h-3zM67 2h1v1h-1zM68 2h1v1h-1zM70 2h1v1h-1zM71 2h2v1h-2zM73 2h1v1h-1zM95 2h1v1h-1zM4 3h1v1H4zM96 5h1v88h-1zM18 11h1v1h-1zM44 11h1v1h-1zM19 12h1v1h-1zM44 12h1v24h-1zM20 13h1v1h-1zM21 14h1v1h-1zM22 15h1v1h-1zM23 16h1v1h-1zM12 17h1v1h-1zM24 17h1v1h-1zM13 18h1v1h-1zM25 18h1v1h-1zM14 19h1v1h-1zM26 19h1v1h-1zM15 20h1v1h-1zM27 20h1v1h-1zM16 21h1v1h-1zM28 21h1v1h-1zM17 22h1v1h-1zM29 22h1v1h-1zM18 23h1v1h-1zM30 23h1v1h-1zM19 24h1v1h-1zM31 24h1v1h-1zM20 25h1v1h-1zM32 25h1v1h-1zM21 26h1v1h-1zM33 26h1v1h-1zM22 27h1v1h-1zM34 27h1v1h-1zM23 28h1v1h-1zM35 28h1v1h-1zM24 29h1v1h-1zM36 29h1v1h-1zM25 30h1v1h-1zM26 31h1v1h-1zM53 31h1v1h-1zM27 32h1v1h-1zM53 32h1v1h-1zM28 33h1v1h-1zM53 33h1v1h-1zM29 34h1v1h-1zM30 35h1v1h-1zM31 36h1v1h-1zM44 36h1v1h-1zM32 37h1v1h-1zM44 37h1v1h-1zM33 38h1v1h-1zM34 39h1v1h-1zM35 40h1v1h-1zM36 41h1v1h-1zM37 42h1v1h-1zM38 43h1v1h-1zM39 44h1v1h-1zM40 45h1v1h-1zM43 54h1v1h-1zM42 55h1v1h-1zM40 57h1v1h-1zM39 58h1v1h-1zM44 58h1v1h-1zM44 59h1v1h-1zM37 60h1v1h-1zM44 60h1v27h-1zM36 62h1v1h-1zM39 62h1v1h-1zM35 63h1v1h-1zM36 63h1v1h-1zM33 64h1v1h-1zM36 64h1v1h-1zM32 65h1v1h-1zM31 66h1v1h-1zM35 66h1v1h-1zM34 67h1v1h-1zM30 70h1v1h-1zM30 71h1v1h-1zM29 72h1v1h-1zM28 73h1v1h-1zM21 75h1v1h-1zM19 77h1v1h-1zM18 78h1v1h-1zM17 79h1v1h-1zM16 80h1v1h-1zM15 81h1v1h-1zM14 87h1v1h-1zM44 87h1v1h-1zM21 96h1v1h-1zM22 96h1v1h-1zM23 96h1v1h-1zM28 96h1v1h-1zM30 96h1v1h-1zM31 96h1v1h-1zM41 96h1v1h-1zM42 96h1v1h-1zM43 96h1v1h-1zM45 96h2v1h-2zM47 96h1v1h-1zM49 96h1v1h-1zM52 96h1v1h-1zM53 96h1v1h-1zM55 96h1v1h-1zM75 96h1v1h-1zM76 96h1v1h-1zM77 96h1v1h-1zM78 96h1v1h-1zM80 96h1v1h-1zM81 96h1v1h-1zM82 96h1v1h-1z"/>
  </g>
  <path fill="#410" d="M89 2h1v1h-1z"/>
  <path d="M0 0h100v1H0zM0 1h6v1H0zM6 1h1v1H6zM9 1h1v1H9zM10 1h4v1h-4zM14 1h1v1h-1zM15 1h74v1H15zM89 1h1v1h-1zM92 1h1v1h-1zM93 1h1v1h-1zM94 1h1v1h-1zM95 1h1v1h-1zM96 1h4v1h-4zM0 2h4v1H0zM4 2h1v1H4zM96 2h1v1h-1zM97 2h3v98h-3zM0 3h3v97H0zM3 3h1v1H3zM96 3h1v1h-1zM3 4h1v1H3zM96 4h1v1h-1zM3 5h1v89H3zM19 11h25v1H19zM53 11h26v1H53zM79 11h1v1h-1zM20 12h24v1H20zM53 12h1v10h-1zM54 12h24v1H54zM78 12h1v1h-1zM21 13h23v1H21zM54 13h23v1H54zM77 13h1v1h-1zM22 14h22v1H22zM54 14h22v1H54zM76 14h1v1h-1zM23 15h21v1H23zM54 15h21v1H54zM75 15h1v1h-1zM24 16h20v1H24zM54 16h20v1H54zM74 16h1v1h-1zM87 16h1v1h-1zM25 17h19v1H25zM54 17h19v1H54zM73 17h1v1h-1zM86 17h1v1h-1zM87 17h1v28h-1zM12 18h1v27h-1zM26 18h18v1H26zM54 18h18v1H54zM72 18h1v1h-1zM85 18h1v1h-1zM86 18h1v28h-1zM13 19h1v27h-1zM27 19h17v1H27zM54 19h17v1H54zM71 19h1v1h-1zM84 19h1v1h-1z"/>
  <path d="M85 19h2v27h-2zM14 20h1v26h-1zM28 20h16v1H28zM54 20h16v1H54zM70 20h1v1h-1zM83 20h1v1h-1z"/>
  <path d="M84 20h3v26h-3zM15 21h1v25h-1zM29 21h15v1H29zM54 21h15v1H54zM69 21h1v1h-1zM82 21h1v1h-1z"/>
  <path d="M83 21h4v25h-4zM16 22h1v24h-1zM30 22h14v1H30zM53 22h1v3h-1zM54 22h14v1H54zM68 22h1v1h-1zM81 22h1v1h-1z"/>
  <path d="M82 22h5v24h-5zM17 23h1v23h-1zM31 23h13v1H31zM54 23h13v1H54zM67 23h1v1h-1zM80 23h1v1h-1z"/>
  <path d="M81 23h6v23h-6zM18 24h1v22h-1zM32 24h12v1H32zM54 24h12v1H54zM66 24h1v1h-1zM79 24h1v1h-1z"/>
  <path d="M80 24h7v22h-7zM19 25h1v21h-1zM33 25h11v1H33zM53 25h1v2h-1zM54 25h11v1H54zM65 25h1v1h-1zM78 25h1v1h-1z"/>
  <path d="M79 25h8v21h-8zM20 26h1v20h-1zM34 26h10v1H34zM54 26h10v1H54zM64 26h1v1h-1zM77 26h1v1h-1z"/>
  <path d="M78 26h9v20h-9zM21 27h1v19h-1zM35 27h9v1h-9zM53 27h1v1h-1zM54 27h9v1h-9zM63 27h1v1h-1zM76 27h1v1h-1z"/>
  <path d="M77 27h10v19H77zM22 28h1v18h-1zM36 28h8v1h-8zM53 28h1v1h-1zM54 28h8v1h-8zM62 28h1v1h-1zM75 28h1v1h-1z"/>
  <path d="M76 28h11v18H76zM23 29h1v17h-1zM37 29h7v1h-7zM53 29h1v1h-1zM54 29h7v2h-7zM61 29h1v1h-1zM74 29h1v1h-1z"/>
  <path d="M75 29h12v17H75zM24 30h1v16h-1zM37 30h1v1h-1zM38 30h6v1h-6zM53 30h1v1h-1zM73 30h1v1h-1z"/>
  <path d="M74 30h13v16H74zM25 31h1v15h-1zM38 31h1v1h-1zM39 31h5v1h-5zM54 31h5v1h-5zM59 31h1v1h-1zM72 31h1v1h-1z"/>
  <path d="M73 31h14v15H73zM26 32h1v14h-1zM39 32h1v1h-1zM40 32h4v1h-4zM54 32h4v2h-4zM58 32h1v1h-1zM71 32h1v1h-1z"/>
  <path d="M72 32h15v14H72zM27 33h1v13h-1zM40 33h1v1h-1zM41 33h3v1h-3zM70 33h1v1h-1z"/>
  <path d="M71 33h16v13H71zM28 34h1v12h-1zM41 34h1v1h-1zM42 34h2v1h-2zM53 34h1v1h-1zM54 34h3v1h-3zM69 34h1v1h-1z"/>
  <path d="M70 34h17v12H70zM29 35h1v11h-1zM42 35h1v1h-1zM43 35h1v1h-1zM53 35h1v1h-1zM54 35h2v1h-2zM68 35h1v1h-1z"/>
  <path d="M69 35h18v11H69zM30 36h1v10h-1zM43 36h1v1h-1zM53 36h1v1h-1zM54 36h1v1h-1zM67 36h1v1h-1z"/>
  <path d="M68 36h19v10H68zM31 37h1v9h-1zM53 37h1v1h-1zM66 37h1v1h-1z"/>
  <path d="M67 37h20v9H67zM32 38h1v8h-1zM65 38h1v1h-1z"/>
  <path d="M66 38h21v8H66zM33 39h1v7h-1zM64 39h1v1h-1z"/>
  <path d="M65 39h22v7H65zM34 40h1v6h-1zM63 40h1v1h-1z"/>
  <path d="M64 40h23v6H64zM35 41h1v5h-1zM62 41h1v1h-1z"/>
  <path d="M63 41h24v5H63zM36 42h1v4h-1zM61 42h1v1h-1z"/>
  <path d="M62 42h25v4H62zM37 43h1v3h-1zM60 43h1v1h-1z"/>
  <path d="M61 43h26v3H61zM38 44h1v2h-1zM59 44h1v1h-1z"/>
  <path d="M60 44h27v2H60zM12 45h28v1H12z"/>
  <path d="M58 45h30v1H58zM12 54h31v1H12zM61 54h27v1H61zM12 55h1v28h-1zM13 55h29v1H13zM62 55h1v1h-1zM63 55h24v1H63zM87 55h1v24h-1zM13 56h27v2H13zM40 56h1v1h-1zM63 56h1v1h-1zM64 56h23v1H64zM64 57h1v1h-1zM65 57h22v1H65zM13 58h26v1H13zM65 58h1v1h-1zM66 58h21v1H66zM13 59h24v1H13zM37 59h1v1h-1zM43 59h1v1h-1zM53 59h1v28h-1zM66 59h1v1h-1zM67 59h20v1H67zM13 60h23v2H13zM36 60h1v1h-1zM42 60h1v1h-1zM43 60h1v27h-1zM54 60h1v27h-1zM67 60h1v1h-1zM68 60h19v1H68zM36 61h1v1h-1zM40 61h1v1h-1z"/>
  <path d="M41 61h3v26h-3zM55 61h1v26h-1zM68 61h1v1h-1zM69 61h18v1H69zM13 62h22v1H13zM35 62h1v1h-1zM40 62h1v1h-1zM56 62h1v25h-1zM69 62h1v1h-1zM70 62h17v1H70zM13 63h21v1H13zM34 63h1v1h-1zM38 63h1v1h-1z"/>
  <path d="M39 63h5v24h-5zM57 63h1v24h-1zM70 63h1v1h-1zM71 63h16v1H71zM13 64h19v1H13zM32 64h1v1h-1z"/>
  <path d="M37 64h7v23h-7zM58 64h1v23h-1zM71 64h1v1h-1zM72 64h15v1H72zM13 65h18v2H13zM31 65h1v1h-1zM36 65h1v1h-1zM59 65h1v22h-1zM72 65h1v1h-1zM73 65h14v1H73z"/>
  <path d="M36 66h8v21h-8zM60 66h1v21h-1zM73 66h1v1h-1zM74 66h13v1H74zM13 67h16v2H13zM29 67h1v1h-1zM35 67h1v1h-1zM61 67h1v20h-1zM74 67h1v1h-1zM75 67h12v1H75zM29 68h1v1h-1zM33 68h1v1h-1z"/>
  <path d="M34 68h10v19H34zM62 68h1v1h-1zM75 68h1v1h-1zM76 68h11v1H76zM13 69h15v1H13zM28 69h1v1h-1zM32 69h1v1h-1z"/>
  <path d="M33 69h11v18H33zM62 69h1v18h-1zM63 69h1v1h-1zM76 69h1v1h-1zM77 69h10v1H77zM13 70h14v1H13zM31 70h1v1h-1z"/>
  <path d="M32 70h12v17H32zM63 70h2v17h-2zM77 70h1v1h-1zM78 70h9v1h-9zM13 71h12v1H13zM25 71h1v1h-1z"/>
  <path d="M31 71h13v16H31zM65 71h1v1h-1zM78 71h1v1h-1zM79 71h8v1h-8zM13 72h11v1H13zM24 72h1v1h-1z"/>
  <path d="M30 72h14v15H30zM65 72h1v15h-1zM66 72h1v1h-1zM79 72h1v1h-1zM80 72h7v1h-7zM13 73h10v1H13zM23 73h1v1h-1z"/>
  <path d="M29 73h15v14H29zM66 73h1v14h-1zM67 73h1v1h-1zM80 73h1v1h-1zM81 73h6v1h-6zM13 74h9v1h-9zM22 74h1v1h-1zM27 74h1v1h-1z"/>
  <path d="M28 74h16v13H28zM67 74h1v13h-1zM68 74h1v1h-1zM81 74h1v1h-1zM82 74h5v1h-5zM13 75h7v2h-7zM20 75h1v1h-1zM26 75h1v1h-1z"/>
  <path d="M27 75h17v12H27zM68 75h1v12h-1zM69 75h1v1h-1zM82 75h1v1h-1zM83 75h4v1h-4zM20 76h1v1h-1zM25 76h1v1h-1z"/>
  <path d="M26 76h18v11H26zM69 76h1v11h-1zM70 76h1v1h-1zM83 76h1v1h-1zM84 76h3v1h-3zM13 77h6v1h-6zM24 77h1v1h-1z"/>
  <path d="M25 77h19v10H25zM70 77h1v10h-1zM71 77h1v1h-1zM84 77h1v1h-1zM85 77h2v1h-2zM13 78h5v1h-5zM23 78h1v1h-1z"/>
  <path d="M24 78h20v9H24zM71 78h1v9h-1zM72 78h1v1h-1zM85 78h1v1h-1zM86 78h1v1h-1zM13 79h4v1h-4zM22 79h1v1h-1z"/>
  <path d="M23 79h21v8H23zM72 79h1v8h-1zM73 79h1v1h-1zM86 79h1v1h-1zM87 79h1v1h-1zM13 80h3v1h-3zM21 80h1v1h-1z"/>
  <path d="M22 80h22v7H22zM73 80h1v7h-1zM74 80h1v1h-1zM87 80h1v1h-1zM13 81h1v1h-1zM14 81h1v1h-1zM20 81h1v1h-1z"/>
  <path d="M21 81h23v6H21zM74 81h1v6h-1zM75 81h1v1h-1zM13 82h1v1h-1zM19 82h1v1h-1z"/>
  <path d="M20 82h24v5H20zM75 82h1v5h-1zM76 82h1v1h-1zM12 83h1v1h-1zM18 83h1v1h-1z"/>
  <path d="M19 83h25v4H19zM76 83h1v4h-1zM77 83h1v1h-1zM17 84h1v1h-1z"/>
  <path d="M18 84h26v3H18zM77 84h1v3h-1zM78 84h1v1h-1zM16 85h1v1h-1z"/>
  <path d="M17 85h27v2H17zM78 85h1v2h-1zM79 85h1v1h-1zM15 86h1v1h-1z"/>
  <path d="M16 86h28v1H16zM79 86h1v1h-1zM80 86h1v1h-1zM15 87h12v1H15zM27 87h17v1H27zM53 87h1v1h-1zM54 87h14v1H54zM68 87h13v1H68zM81 87h1v1h-1zM96 93h1v1h-1zM3 94h1v1H3zM96 94h1v1h-1zM3 95h1v5H3zM4 95h1v1H4zM95 95h1v1h-1zM96 95h4v5h-4zM4 96h1v4H4zM5 96h1v1H5zM6 96h4v1H6zM10 96h2v1h-2zM12 96h7v1h-7zM19 96h1v1h-1zM20 96h1v1h-1zM29 96h1v1h-1zM32 96h1v1h-1zM33 96h4v1h-4zM37 96h1v1h-1zM38 96h2v1h-2zM40 96h1v1h-1zM44 96h1v1h-1zM48 96h1v1h-1zM50 96h1v1h-1zM51 96h1v1h-1zM54 96h1v1h-1zM79 96h1v1h-1zM83 96h1v1h-1zM84 96h1v1h-1zM85 96h2v1h-2zM87 96h4v1h-4zM91 96h1v1h-1z"/>
  <path d="M92 96h8v4h-8z"/>
  <path d="M5 97h95v3H5z"/>
  <path fill="#d22" d="M90 3h1v1h-1z"/>
  <g fill="#a01">
    <path d="M82 10h1v1h-1zM42 37h1v1h-1zM43 38h1v1h-1zM59 54h1v1h-1zM60 55h1v1h-1zM61 56h1v1h-1zM62 57h1v1h-1zM15 83h1v1h-1zM14 84h1v1h-1zM11 88h1v1h-1zM84 88h1v1h-1z"/>
  </g>
  <g fill="#901">
    <path d="M57 44h1v1h-1zM63 58h1v1h-1zM64 59h1v1h-1zM65 60h1v1h-1zM66 61h1v1h-1zM67 62h1v1h-1z"/>
  </g>
  <g fill="#300">
    <path d="M6 2h1v1H6zM15 2h1v1h-1zM16 2h3v1h-3zM19 2h1v1h-1zM21 2h1v1h-1zM88 2h1v1h-1zM80 11h1v1h-1zM79 12h1v1h-1zM78 13h1v1h-1zM77 14h1v1h-1zM76 15h1v1h-1zM88 15h1v30h-1zM75 16h1v1h-1zM74 17h1v1h-1zM73 18h1v1h-1zM84 18h1v1h-1zM72 19h1v1h-1zM82 20h1v1h-1zM70 21h1v1h-1zM81 21h1v1h-1zM69 22h1v1h-1zM80 22h1v1h-1zM68 23h1v1h-1zM79 23h1v1h-1zM67 24h1v1h-1zM78 24h1v1h-1zM77 25h1v1h-1zM65 26h1v1h-1zM76 26h1v1h-1zM75 27h1v1h-1zM74 28h1v1h-1zM73 29h1v1h-1zM72 30h1v1h-1zM71 31h1v1h-1zM70 32h1v1h-1zM69 33h1v1h-1zM68 34h1v1h-1zM67 35h1v1h-1zM66 36h1v1h-1zM65 37h1v1h-1zM64 38h1v1h-1zM63 39h1v1h-1zM62 40h1v1h-1zM60 42h1v1h-1zM57 45h1v1h-1zM88 45h1v1h-1zM88 54h1v1h-1zM88 55h1v26h-1zM42 59h1v1h-1zM41 60h1v1h-1zM37 61h1v1h-1zM39 61h1v1h-1zM37 62h1v1h-1zM35 64h1v1h-1zM33 65h1v1h-1zM34 65h1v2h-1zM35 65h1v1h-1zM32 66h1v1h-1zM30 69h1v1h-1zM77 71h1v1h-1zM78 72h1v1h-1zM79 73h1v1h-1zM80 74h1v1h-1zM22 75h1v1h-1zM81 75h1v1h-1zM24 76h1v1h-1zM82 76h1v1h-1zM72 77h1v1h-1zM83 77h1v1h-1zM73 78h1v1h-1zM84 78h1v1h-1zM85 79h1v1h-1zM75 80h1v1h-1zM86 80h1v1h-1zM19 81h1v1h-1zM76 81h1v1h-1zM87 81h1v1h-1zM88 81h1v1h-1zM77 82h1v1h-1zM17 83h1v1h-1zM78 83h1v1h-1zM16 84h1v1h-1zM79 84h1v1h-1zM15 85h1v1h-1zM80 85h1v1h-1zM14 86h1v1h-1zM81 86h1v1h-1zM13 87h1v1h-1zM82 87h1v1h-1zM4 94h1v1H4zM95 94h1v1h-1zM5 95h1v1H5zM91 95h1v1h-1z"/>
  </g>
  <g fill="#a11">
    <path d="M20 3h1v1h-1zM21 3h1v1h-1zM88 3h1v1h-1zM5 94h1v1H5zM92 94h1v1h-1z"/>
  </g>
  <g fill="#500">
    <path d="M9 2h1v1H9zM10 2h3v1h-3zM13 2h1v1h-1zM14 2h1v1h-1zM92 2h1v1h-1zM93 2h1v1h-1zM95 4h1v1h-1zM4 5h1v1H4zM4 6h1v87H4zM17 10h1v1h-1zM18 10h26v1H18zM44 10h1v1h-1zM53 10h28v1H53zM81 10h1v1h-1zM18 12h1v1h-1zM21 15h1v1h-1zM12 16h1v1h-1zM22 16h1v1h-1zM13 17h1v1h-1zM23 17h1v1h-1zM14 18h1v1h-1zM24 18h1v1h-1zM25 19h1v1h-1zM26 20h1v1h-1zM27 21h1v1h-1zM28 22h1v1h-1zM29 23h1v1h-1zM30 24h1v1h-1zM31 25h1v1h-1zM32 26h1v1h-1zM33 27h1v1h-1zM34 28h1v1h-1zM35 29h1v1h-1zM36 30h1v1h-1zM37 31h1v1h-1zM38 32h1v1h-1zM39 33h1v1h-1zM40 34h1v1h-1zM52 34h1v1h-1zM41 35h1v1h-1zM52 35h1v1h-1zM42 36h1v1h-1zM52 36h1v1h-1zM43 37h1v1h-1zM52 37h1v2h-1zM44 38h1v1h-1zM44 54h1v1h-1zM43 55h1v1h-1zM42 56h1v1h-1zM41 57h1v1h-1zM40 58h1v1h-1zM39 60h1v1h-1zM38 61h1v1h-1zM31 68h1v1h-1zM28 70h1v1h-1zM28 72h1v1h-1zM24 74h1v1h-1zM19 78h1v1h-1zM21 78h1v1h-1zM18 79h1v1h-1zM17 80h1v1h-1zM16 81h1v1h-1zM88 82h1v1h-1zM11 85h1v1h-1zM4 93h1v1H4zM95 93h1v1h-1zM20 95h1v1h-1zM22 95h1v1h-1zM29 95h1v1h-1zM32 95h1v1h-1zM37 95h1v1h-1zM38 95h1v1h-1zM39 95h1v1h-1zM40 95h1v1h-1zM44 95h1v1h-1zM48 95h1v1h-1zM49 95h1v1h-1zM50 95h1v1h-1zM51 95h1v1h-1zM54 95h1v1h-1zM79 95h1v1h-1zM83 95h1v1h-1zM84 95h1v1h-1zM85 95h1v1h-1z"/>
  </g>
  <g fill="#900">
    <path d="M81 11h1v1h-1zM80 12h1v1h-1zM79 13h1v1h-1zM78 14h1v1h-1zM77 15h1v1h-1zM76 16h1v1h-1zM75 17h1v1h-1zM73 19h1v1h-1zM69 32h1v1h-1zM68 33h1v1h-1zM67 34h1v1h-1zM66 35h1v1h-1zM65 36h1v1h-1zM64 37h1v1h-1zM63 38h1v1h-1zM62 39h1v1h-1zM52 40h1v1h-1zM61 40h1v1h-1zM60 41h1v1h-1zM59 42h1v1h-1zM58 43h1v1h-1zM56 45h1v1h-1zM42 46h1v1h-1zM45 53h1v1h-1zM45 54h1v1h-1zM45 55h1v1h-1zM68 63h1v1h-1zM69 64h1v1h-1zM70 65h1v1h-1zM71 66h1v1h-1zM72 67h1v1h-1zM73 68h1v1h-1zM74 69h1v1h-1zM75 70h1v1h-1zM76 71h1v1h-1zM77 72h1v1h-1zM78 73h1v1h-1zM79 74h1v1h-1zM80 75h1v1h-1zM81 76h1v1h-1zM82 77h1v1h-1zM76 80h1v1h-1zM16 82h1v1h-1zM79 83h1v1h-1zM88 83h1v1h-1zM81 85h1v1h-1zM12 87h1v1h-1zM83 87h1v1h-1z"/>
  </g>
  <g fill="#911">
    <path d="M60 3h2v1h-2zM75 3h1v1h-1zM76 3h11v1H76zM87 3h1v1h-1zM94 3h1v1h-1zM93 94h1v1h-1zM94 94h1v1h-1zM24 95h1v1h-1zM25 95h1v1h-1zM26 95h1v1h-1zM27 95h1v1h-1zM56 95h1v1h-1zM57 95h1v1h-1zM58 95h15v1H58zM73 95h1v1h-1z"/>
  </g>
</svg>
