<svg baseProfile="tiny-ps" version="1.2" viewBox="-18 0 1852 1852" xml:space="preserve" xmlns="http://www.w3.org/2000/svg">
  <title>Infinitum Nihil</title>
  
  <rect x="-18" y="0" width="1852" height="1852" fill="#000000"/>
  <g transform="translate(0 1852) scale(.1 -.1)" fill="#BE0F34">

<path d="m608 18515c-3-3-31-6-62-6-48-1-56-4-56-20 0-17-8-19-75-19-73 0-75-1-75-25 0-26-13-31-68-26-18 1-24-5-28-29-5-20-12-30-25-30-12 0-19-7-19-20 0-16-7-20-37-20-74 0-113-11-113-31 0-14-7-19-25-19h-25v-9065-9065h75c73 0 75-1 75-25v-25h1550 1550v-45c0-45 0-45 35-45 28 0 35 4 35 20 0 15 7 20 25 20 20 0 25 5 25 25 0 22 4 25 35 25s35-3 35-25c0-16 6-25 15-25s15 9 15 25c0 24 3 25 60 25s60-1 60-25c0-22 4-25 40-25s40 3 40 25 4 25 35 25 35-3 35-25c0-20 5-25 25-25 18 0 25-5 25-20 0-19 7-20 110-20s110 1 110 20c0 16 7 20 35 20s35-4 35-20c0-20 7-20 360-20 233 0 360 4 360 10s-40 10-100 10h-100v35 35h1090c1060 0 1090-1 1090-19 0-32 24-43 79-35 45 6 51 9 51 30v24h210 210v-25-25h260 260v25 25h160 160v-31c0-30 2-31 31-25 17 3 56 6 86 6 46 0 56 3 60 19 10 39 150 38 161-1 4-16 13-19 66-16 55 3 61 5 64 26 3 22 6 22 133 22h129v-25c0-22 4-25 40-25 37 0 40 2 40 26v27l123-7c103-6 125-10 139-27 19-22 60-27 52-5-9 22 28 36 96 36 53 0 63-3 67-19 7-26 25-29 203-32l155-3 6 54h155 154v-25c0-24 2-25 75-25 68 0 75-2 75-20 0-19 18-19 2030-20 1368 0 2030 3 2030 10 0 6-58 10-159 10-194 0-221 4-221 35 0 15 8 25 23 29 12 3 180 6 372 6h351l-8-70h-99c-59 0-99-4-99-10s45-10 115-10c111 0 115 1 120 23 5 19 11 22 50 19 43-4 45-3 45 22v26h108c124 0 148-5 155-30 4-16 19-19 117-22 92-2 114-6 124-20 9-12 26-18 50-18 29 0 36 4 36 20 0 19 7 20 150 20h150v25c0 24 3 25 53 25 69 0 94-8 100-31 7-25 47-25 54 0 3 11 15 22 26 25 12 3 341 6 730 6 689 0 709 1 714 19 6 23 31 31 101 31 44 0 52 3 52 19 0 11 9 21 23 25 12 3 149 6 305 6h282v9090 9090h-205-205v25c0 14 1 26 3 27 1 1 88 4 192 7 160 5 190 8 190 21s-49 15-372 18c-365 2-373 3-373 22s-7 20-145 20c-122 0-145-2-145-15 0-8-7-15-15-15-9 0-18-12-22-30l-6-30h-93c-92 0-95-1-104-25l-9-25-1418-2-1418-3-3-22-3-23h-500c-487 0-499 0-499 19 0 16-9 21-45 27-60 8-95-1-95-26 0-18-7-20-55-20s-55 2-55 20c0 11-4 20-10 20-5 0-10-9-10-20 0-19-9-20-552-22-313-2-559 1-566 6s-10 17-7 28c6 18-6 18-347 16-345-3-353-3-353-23s-8-20-3402-23c-3362-2-3403-2-3403 17 0 16-9 21-42 26-24 4-63 5-88 3-38-2-46-7-48-25-3-21-9-23-62-23s-59 2-62 23c-4 29-56 37-75 11-10-14-21-16-60-10-26 3-52 11-57 16-17 17-26 11-26-15v-26l-87 3c-86 3-88 3-88 28 0 20 6 26 28 28 19 2 27 9 27 23 0 20-7 20-537 19-1e3 -2-983-3-983 19 0 14-10 20-37 25-21 3-309 6-640 6h-602l-3 23c-2 15-11 23-28 25-14 2-28 0-32-3zm16570-41c15-4 22-14 22-30 0-22-4-24-45-24-47 0-63 14-51 45 6 16 35 19 74 9zm-13915-110c42-39 31-49-62-52-64-2-85 1-98 13-12 13-13 21-5 41 11 22 18 24 74 24 54 0 67-4 91-26zm4987-4339v-3125h-25c-20 0-25 5-25 25s-5 25-25 25c-18 0-25 5-25 19 0 13-8 21-22 23-15 2-24 11-26 25s-11 23-25 25-23 11-25 25-11 23-25 25-23 11-25 25-11 23-25 25-23 11-25 25-11 23-25 25-23 11-25 26c-2 14-10 22-23 22-14 0-19 7-19 25 0 20-5 25-25 25s-25 5-25 25-5 25-25 25-25 5-25 25-5 25-25 25-25 5-25 25-5 25-25 25-25 5-25 25-5 25-25 25-25 5-25 25-5 25-25 25-25 5-25 25-5 25-25 25c-18 0-25 5-25 19 0 13-8 21-22 23-15 2-24 11-26 25s-11 23-25 25-23 11-25 25-11 23-25 25-23 11-25 25-11 23-25 25-23 11-25 26c-2 14-10 22-23 22-14 0-19 7-19 25 0 20-5 25-25 25s-25 5-25 25-5 25-25 25-25 5-25 25-5 25-25 25-25 5-25 25-5 25-25 25-25 5-25 25-5 25-25 25-25 5-25 25-5 25-25 25-25 5-25 25-5 25-25 25c-18 0-25 5-25 19 0 13-8 21-22 23-15 2-24 11-26 25s-11 23-25 25-23 11-25 25-11 23-25 25-23 11-25 25-11 23-25 25-23 11-25 26c-2 14-10 22-23 22-14 0-19 7-19 25 0 20-5 25-25 25s-25 5-25 25-5 25-25 25-25 5-25 25-5 25-25 25-25 5-25 25-5 25-25 25-25 5-25 25-5 25-25 25-25 5-25 25-5 25-25 25-25 5-25 25-5 25-25 25c-18 0-25 5-25 19 0 13-8 21-22 23-15 2-24 11-26 25s-11 23-25 25-23 11-25 25-11 23-25 25-23 11-25 25-11 23-25 25-23 11-25 25-11 23-25 25-23 11-25 26c-2 14-10 22-23 22-14 0-19 7-19 25 0 20-5 25-25 25s-25 5-25 25-5 25-25 25-25 5-25 25-5 25-25 25-25 5-25 25-5 25-25 25-25 5-25 25-5 25-25 25-25 5-25 25-5 25-25 25c-18 0-25 5-25 19 0 13-8 21-22 23-15 2-24 11-26 25s-11 23-25 25-23 11-25 25-11 23-25 25-23 11-25 25-11 23-25 25-23 11-25 25-11 23-25 25-23 11-25 26c-2 14-10 22-23 22-14 0-19 7-19 25 0 20-5 25-25 25s-25 5-25 25-5 25-25 25-25 5-25 25-5 25-25 25-25 5-25 25-5 25-25 25-25 5-25 25-5 25-25 25-25 5-25 25-5 25-25 25c-18 0-25 5-25 19 0 13-8 21-22 23-15 2-24 11-26 25s-11 23-25 25-23 11-25 25-11 23-25 25-23 11-25 25-11 23-25 25-23 11-25 25-11 23-25 25-23 11-25 26c-2 14-10 22-23 22-14 0-19 7-19 25 0 20-5 25-25 25s-25 5-25 25-5 25-25 25-25 5-25 25-5 25-25 25-25 5-25 25-5 25-25 25-25 5-25 25-5 25-25 25-25 5-25 25-5 25-25 25c-18 0-25 5-25 19 0 13-8 21-22 23-15 2-24 11-26 25s-11 23-25 25-23 11-25 25-11 23-25 25-23 11-25 25-11 23-25 25-23 11-25 25-11 23-25 25-23 11-25 26c-2 14-10 22-23 22-14 0-19 7-19 25 0 20-5 25-25 25s-25 5-25 25-5 25-25 25-25 5-25 25-5 25-25 25-25 5-25 25-5 25-25 25-25 5-25 25-5 25-25 25-25 5-25 25-5 25-25 25-25 5-25 25-5 25-25 25c-18 0-25 5-25 19 0 13-8 21-22 23-15 2-24 11-26 25s-11 23-25 25-23 11-25 25-11 23-25 25-23 11-25 25-11 23-25 25-23 11-25 25-11 23-25 25-23 11-25 26c-2 14-10 22-23 22-14 0-19 7-19 25 0 20-5 25-25 25s-25 5-25 25-5 25-25 25-25 5-25 25-5 25-25 25-25 5-25 25-5 25-25 25-25 5-25 25-5 25-25 25-25 5-25 25-5 25-25 25c-18 0-25 5-25 19 0 13-8 21-22 23-15 2-24 11-26 25s-11 23-25 25-23 11-25 25-11 23-25 25-23 11-25 25-11 23-25 25-23 11-25 25-11 23-25 25-23 11-25 26c-2 14-10 22-23 22-14 0-19 7-19 25 0 20-5 25-25 25s-25 5-25 25-5 25-25 25-25 5-25 25-5 25-25 25-25 5-25 25-5 25-25 25-25 5-25 25-5 25-25 25-25 5-25 25-5 25-25 25c-18 0-25 5-25 19 0 13-8 21-22 23-15 2-24 11-26 25s-11 23-25 25-23 11-25 25-11 23-25 25-23 11-25 25-11 23-25 25-23 11-25 25-11 23-25 25-23 11-25 26c-2 14-10 22-23 22-14 0-19 7-19 25 0 20-5 25-25 25s-25 5-25 25-5 25-25 25-25 5-25 25-5 25-25 25-25 5-25 25-5 25-25 25-25 5-25 25-5 25-25 25-25 5-25 25-5 25-25 25c-18 0-25 5-25 19 0 13-8 21-22 23-15 2-24 11-26 25s-11 23-25 25-23 11-25 26c-2 14-10 22-23 22-22 0-34 22-25 45 5 13 361 15 3126 15h3120v-3125zm7578 3098c3-19-1-23-22-23s-26-5-26-25-5-25-25-25-25-5-25-25-5-25-25-25-25-5-25-25-5-25-25-25-25-5-25-25-5-25-25-25-25-5-25-25-5-25-25-25-25-5-25-25-5-25-25-25-25-5-25-25-5-25-25-25-25-5-25-25c0-18-5-25-19-25-13 0-21-8-23-22-2-15-11-24-25-26s-23-11-25-25-11-23-25-25-23-11-25-25-11-23-25-25c-15-2-23-10-23-23 0-14-7-19-25-19-20 0-25-5-25-25s-5-25-25-25-25-5-25-25-5-25-25-25-25-5-25-25-5-25-25-25-25-5-25-25-5-25-25-25-25-5-25-25-5-25-25-25-25-5-25-25-5-25-25-25-25-5-25-25-5-25-25-25-25-5-25-25c0-18-5-25-19-25-13 0-21-8-23-22-2-15-11-24-25-26s-23-11-25-25-11-23-25-25-23-11-25-25-11-23-25-25c-15-2-23-10-23-23 0-14-7-19-25-19-20 0-25-5-25-25s-5-25-25-25-25-5-25-25-5-25-25-25-25-5-25-25-5-25-25-25-25-5-25-25-5-25-25-25-25-5-25-25-5-25-25-25-25-5-25-25-5-25-25-25-25-5-25-25-5-25-25-25-25-5-25-25-5-25-25-25-25-5-25-25c0-18-5-25-19-25-13 0-21-8-23-22-2-15-11-24-25-26s-23-11-25-25-11-23-25-25c-15-2-23-10-23-23 0-14-7-19-25-19-20 0-25-5-25-25s-5-25-25-25-25-5-25-25-5-25-25-25-25-5-25-25-5-25-25-25-25-5-25-25-5-25-25-25-25-5-25-25-5-25-25-25-25-5-25-25-5-25-25-25-25-5-25-25-5-25-25-25-25-5-25-25-5-25-25-25-25-5-25-25c0-18-5-25-19-25-13 0-21-8-23-22-2-15-11-24-25-26s-23-11-25-25-11-23-25-25-23-11-25-25-11-23-25-25c-15-2-23-10-23-23 0-14-7-19-25-19-20 0-25-5-25-25s-5-25-25-25-25-5-25-25-5-25-25-25-25-5-25-25-5-25-25-25-25-5-25-25-5-25-25-25-25-5-25-25-5-25-25-25-25-5-25-25-5-25-25-25-25-5-25-25-5-25-25-25-25-5-25-25c0-18-5-25-19-25-13 0-21-8-23-22-2-15-11-24-25-26s-23-11-25-25-11-23-25-25-23-11-25-25-11-23-25-25c-15-2-23-10-23-23 0-14-7-19-25-19-20 0-25-5-25-25s-5-25-25-25-25-5-25-25-5-25-25-25-25-5-25-25-5-25-25-25-25-5-25-25-5-25-25-25-25-5-25-25-5-25-25-25-25-5-25-25-5-25-25-25-25-5-25-25-5-25-25-25-25-5-25-25c0-18-5-25-19-25-13 0-21-8-23-22-2-15-11-24-25-26s-23-11-25-25-11-23-25-25-23-11-25-25-11-23-25-25c-15-2-23-10-23-23 0-14-7-19-25-19-20 0-25-5-25-25s-5-25-25-25-25-5-25-25-5-25-25-25-25-5-25-25-5-25-25-25-25-5-25-25-5-25-25-25-25-5-25-25-5-25-25-25-25-5-25-25-5-25-25-25-25-5-25-25-5-25-25-25-25-5-25-25-5-25-25-25-25-5-25-25c0-18-5-25-19-25-13 0-21-8-23-22-2-15-11-24-25-26s-23-11-25-25-11-23-25-25c-15-2-23-10-23-23 0-14-7-19-25-19-20 0-25-5-25-25s-5-25-25-25-25-5-25-25-5-25-25-25-25-5-25-25-5-25-25-25-25-5-25-25-5-25-25-25-25-5-25-25-5-25-25-25-25-5-25-25-5-25-25-25-25-5-25-25-5-25-25-25-25-5-25-25-5-25-25-25-25-5-25-25c0-18-5-25-19-25-13 0-21-8-23-22-2-15-11-24-25-26s-23-11-25-25-11-23-25-25c-15-2-23-10-23-23 0-14-7-19-25-19-20 0-25-5-25-25s-5-25-25-25-25-5-25-25-5-25-25-25-25-5-25-25-5-25-25-25-25-5-25-25-5-25-25-25-25-5-25-25-5-25-25-25-25-5-25-25-5-25-25-25-25-5-25-25-5-25-25-25-25-5-25-25-5-25-25-25-25-5-25-25c0-18-5-25-19-25-13 0-21-8-23-22-2-15-11-24-25-26s-23-11-25-25-11-23-25-25c-15-2-23-10-23-23 0-14-7-19-25-19-20 0-25-5-25-25s-5-25-25-25-25-5-25-25-5-25-25-25-25-5-25-25-5-25-25-25-25-5-25-25-5-25-25-25-25-5-25-25-5-25-25-25-25-5-25-25-5-25-25-25-25-5-25-25-5-25-25-25-25-5-25-25-5-25-25-25-25-5-25-25c0-18-5-25-19-25-13 0-21-8-23-22-2-15-11-24-25-26s-23-11-25-25-11-23-25-25-23-11-25-25-11-23-25-25c-15-2-23-10-23-23 0-14-7-19-25-19-20 0-25-5-25-25s-5-25-25-25-25-5-25-25-5-25-25-25-25-5-25-25-5-25-25-25-25-5-25-25-5-25-25-25-25-5-25-25-5-25-25-25-25-5-25-25-5-25-25-25-25-5-25-25-5-25-26-25h-26l3 168c2 92 3 346 1 565-2 385-3 397-21 397-30 0-33 13-25 110 6 79 9 90 25 90 11 0 19 6 19 13 0 6 3 29 6 50 6 35 5 37-20 37-19 0-26 5-26 20 0 13 7 20 19 20 20 0 31 49 31 146 0 50-1 53-27 56l-28 3-3 315c-2 173-1 361 3 418 6 91 9 102 26 102s19 8 19 75c0 66-2 75-19 75-16 0-19 11-24 83-9 114-9 3642 0 3650 3 4 1453 6 3222 5l3216-3 3-22zm1191-469 31-6v-3489-3489h-3515-3515v25c0 20 5 25 25 25s25 5 25 25 5 25 25 25 25 5 25 25 5 25 25 25 25 5 25 25 5 25 25 25 25 5 25 25 5 25 25 25 25 5 25 25 5 25 25 25 25 5 25 25 5 25 25 25 25 5 25 25 5 25 25 25c18 0 25 5 25 20 0 13 7 20 20 20 15 0 20 7 20 25 0 20 5 25 25 25s25 5 25 25 5 25 25 25 25 5 25 25 5 25 25 25 25 5 25 25 5 25 25 25 25 5 25 25 5 25 25 25 25 5 25 25 5 25 25 25 25 5 25 25 5 25 25 25 25 5 25 25 5 25 25 25 25 5 25 25 5 25 25 25 25 5 25 25 5 25 25 25 25 5 25 25 5 25 25 25c18 0 25 5 25 20 0 13 7 20 20 20 15 0 20 7 20 25 0 20 5 25 25 25s25 5 25 25 5 25 25 25 25 5 25 25 5 25 25 25 25 5 25 25 5 25 25 25 25 5 25 25 5 25 25 25 25 5 25 25 5 25 25 25 25 5 25 25 5 25 25 25 25 5 25 25 5 25 25 25 25 5 25 25 5 25 25 25 25 5 25 25 5 25 25 25 25 5 25 25 5 25 25 25c18 0 25 5 25 20 0 13 7 20 20 20 15 0 20 7 20 25 0 20 5 25 25 25s25 5 25 25 5 25 25 25 25 5 25 25 5 25 25 25 25 5 25 25 5 25 25 25 25 5 25 25 5 25 25 25 25 5 25 25 5 25 25 25 25 5 25 25 5 25 25 25 25 5 25 25 5 25 25 25 25 5 25 25 5 25 25 25 25 5 25 25 5 25 25 25 25 5 25 25 5 25 25 25 25 5 25 25 5 25 25 25c18 0 25 5 25 20 0 13 7 20 20 20 15 0 20 7 20 25 0 20 5 25 25 25s25 5 25 25 5 25 25 25 25 5 25 25 5 25 25 25 25 5 25 25 5 25 25 25 25 5 25 25 5 25 25 25 25 5 25 25 5 25 25 25 25 5 25 25 5 25 25 25 25 5 25 25 5 25 25 25 25 5 25 25 5 25 25 25 25 5 25 25 5 25 25 25 25 5 25 25 5 25 25 25c18 0 25 5 25 20 0 13 7 20 20 20 15 0 20 7 20 25 0 20 5 25 25 25s25 5 25 25 5 25 25 25 25 5 25 25 5 25 25 25 25 5 25 25 5 25 25 25 25 5 25 25 5 25 25 25 25 5 25 25 5 25 25 25 25 5 25 25 5 25 25 25 25 5 25 25 5 25 25 25 25 5 25 25 5 25 25 25 25 5 25 25 5 25 25 25 25 5 25 25 5 25 25 25c18 0 25 5 25 20 0 13 7 20 20 20 15 0 20 7 20 25 0 20 5 25 25 25s25 5 25 25 5 25 25 25 25 5 25 25 5 25 25 25 25 5 25 25 5 25 25 25 25 5 25 25 5 25 25 25 25 5 25 25 5 25 25 25 25 5 25 25 5 25 25 25 25 5 25 25 5 25 25 25 25 5 25 25 5 25 25 25 25 5 25 25 5 25 25 25 25 5 25 25 5 25 25 25c18 0 25 5 25 20 0 13 7 20 20 20 15 0 20 7 20 25 0 20 5 25 25 25s25 5 25 25 5 25 25 25 25 5 25 25 5 25 25 25 25 5 25 25 5 25 25 25 25 5 25 25 5 25 25 25 25 5 25 25 5 25 25 25 25 5 25 25 5 25 25 25 25 5 25 25 5 25 25 25 25 5 25 25 5 25 25 25 25 5 25 25 5 25 25 25 25 5 25 25 5 25 25 25c18 0 25 5 25 19 0 13 8 21 23 23 14 2 23 11 25 26 2 14 10 22 23 22 14 0 19 7 19 25 0 20 5 25 25 25s25 5 25 25 5 25 25 25 25 5 25 25 5 25 25 25 25 5 25 25 5 25 25 25 25 5 25 25 5 25 25 25 25 5 25 25 5 25 25 25 25 5 25 25 5 25 25 25 25 5 25 25 5 25 25 25 25 5 25 25 5 25 25 25 25 5 25 25 5 25 25 25c18 0 25 5 25 19 0 13 8 21 23 23 14 2 23 11 25 26 2 14 10 22 23 22 14 0 19 7 19 25 0 20 5 25 25 25s25 5 25 25 5 25 25 25 25 5 25 25 5 25 25 25 25 5 25 25 5 25 25 25 25 5 25 25 5 25 25 25 25 5 25 25 5 25 25 25 25 5 25 25 5 25 25 25 25 5 25 25 5 25 25 25 25 5 25 25 5 25 25 25 25 5 25 25 5 25 25 25 25 5 25 25 5 25 25 25c18 0 25 5 25 20 0 13 7 20 20 20 15 0 20 7 20 25 0 20 5 25 25 25s25 5 25 25 5 25 25 25 25 5 25 25 5 25 25 25 25 5 25 25 5 25 25 25 25 5 25 25 5 25 25 25 25 5 25 25 5 25 25 25 25 5 25 25 5 25 25 25 25 5 25 25 5 25 25 25 25 5 25 25 5 25 25 25 25 5 25 25 5 25 25 25 25 5 25 25 5 25 25 25c18 0 25 5 25 20 0 13 7 20 20 20 15 0 20 7 20 25 0 20 5 25 25 25s25 5 25 25 5 25 25 25 25 5 25 25 5 25 25 25 25 5 25 25 5 25 25 25 25 5 25 25 5 25 25 25 25 5 25 25 5 25 25 25 25 5 25 25 5 25 25 25 25 5 25 25 5 25 25 25 25 5 25 25 5 25 25 25 25 5 25 25 5 25 25 25 25 5 25 25c0 27 8 29 59 19zm-15849-369c0-20 5-25 25-25 18 0 25-5 25-19 0-13 8-21 23-23 14-2 23-11 25-25s11-23 25-25 23-11 25-25 11-23 25-25 23-11 25-25c3-17 10-23 28-23 19 0 24-5 24-25s5-25 25-25 25-5 25-25 5-25 25-25 25-5 25-25 5-25 25-25 25-5 25-24c0-18 6-25 23-28 14-2 23-11 25-25s11-23 25-25 23-11 25-25c3-17 10-23 28-23 19 0 24-5 24-25 0-18 5-25 20-25s20-7 20-25c0-20 5-25 25-25 18 0 25-5 25-20s7-20 25-20c20 0 25-5 25-24 0-18 6-25 23-28 14-2 23-11 25-25s11-23 25-25 23-11 25-25c3-17 10-23 28-23 19 0 24-5 24-25s5-25 25-25 25-5 25-25 5-25 25-25 25-5 25-25 5-25 25-25 25-5 25-24c0-18 6-25 23-28 14-2 23-11 25-25s11-23 25-25 23-11 25-25c3-17 10-23 28-23 19 0 24-5 24-25 0-18 5-25 20-25s20-7 20-25c0-20 5-25 25-25 18 0 25-5 25-20s7-20 25-20c20 0 25-5 25-24 0-18 6-25 23-28 14-2 23-11 25-25s11-23 25-25 23-11 25-25 11-23 25-25 23-11 25-25c3-17 10-23 28-23 19 0 24-5 24-25s5-25 25-25 25-5 25-25 5-25 25-25 25-5 25-24c0-18 6-25 23-28 14-2 23-11 25-25s11-23 25-25 23-11 25-25 11-23 25-25 23-11 25-25c2-15 10-23 23-23 14 0 19-7 19-25 0-20 5-25 25-25s25-5 25-25 5-25 25-25c18 0 25-5 25-19 0-13 8-21 23-23 14-2 23-11 25-25s11-23 25-25 23-11 25-25 11-23 25-25 23-11 25-25c3-17 10-23 28-23 19 0 24-5 24-25s5-25 25-25 25-5 25-25 5-25 25-25 25-5 25-24c0-18 6-25 23-28 14-2 23-11 25-25s11-23 25-25 23-11 25-25 11-23 25-25 23-11 25-25c2-15 10-23 23-23 14 0 19-7 19-25 0-20 5-25 25-25s25-5 25-25 5-25 25-25c18 0 25-5 25-19 0-13 8-21 23-23 14-2 23-11 25-25s11-23 25-25 23-11 25-25 11-23 25-25 23-11 25-25c3-17 10-23 28-23 19 0 24-5 24-25s5-25 25-25 25-5 25-25 5-25 25-25 25-5 25-25 5-25 25-25 25-5 25-24c0-18 6-25 23-28 14-2 23-11 25-25s11-23 25-25 23-11 25-25c3-17 10-23 28-23 19 0 24-5 24-25 0-18 5-25 20-25s20-7 20-25c0-20 5-25 25-25 18 0 25-5 25-20s7-20 25-20c20 0 25-5 25-24 0-18 6-25 23-28 14-2 23-11 25-25s11-23 25-25 23-11 25-25c3-17 10-23 28-23 19 0 24-5 24-25s5-25 25-25 25-5 25-25 5-25 25-25 25-5 25-25 5-25 25-25 25-5 25-24c0-18 6-25 23-28 14-2 23-11 25-25s11-23 25-25 23-11 25-25c3-17 10-23 28-23 19 0 24-5 24-25 0-18 5-25 20-25s20-7 20-25c0-20 5-25 25-25 18 0 25-5 25-20s7-20 25-20c20 0 25-5 25-24 0-18 6-25 23-28 14-2 23-11 25-25s11-23 25-25 23-11 25-25c3-17 10-23 28-23 19 0 24-5 24-25s5-25 25-25 25-5 25-25 5-25 25-25 25-5 25-25 5-25 25-25 25-5 25-24c0-18 6-25 23-28 14-2 23-11 25-25s11-23 25-25 23-11 25-25c3-17 10-23 28-23 19 0 24-5 24-25 0-18 5-25 20-25s20-7 20-25c0-20 5-25 25-25 18 0 25-5 25-20s7-20 25-20c20 0 25-5 25-24 0-18 6-25 23-28 14-2 23-11 25-25s11-23 25-25 23-11 25-25c3-17 10-23 28-23 19 0 24-5 24-25s5-25 25-25 25-5 25-25 5-25 25-25 25-5 25-25 5-25 25-25 25-5 25-24c0-18 6-25 23-28 14-2 23-11 25-25s11-23 25-25 23-11 25-25c3-17 10-23 28-23 19 0 24-5 24-25 0-18 5-25 20-25s20-7 20-25c0-20 5-25 25-25 18 0 25-5 25-20s7-20 25-20c20 0 25-5 25-24 0-18 6-25 23-28 14-2 23-11 25-25s11-23 25-25 23-11 25-25 11-23 25-25 23-11 25-25c3-17 10-23 28-23 19 0 24-5 24-25s5-25 25-25 25-5 25-25 5-25 25-25 25-5 25-24c0-18 6-25 23-28 14-2 23-11 25-25s11-23 25-25 23-11 25-25 11-23 25-25 23-11 25-25c2-15 10-23 23-23 14 0 19-7 19-25 0-20 5-25 25-25s25-5 25-25 5-25 25-25c18 0 25-5 25-20s7-20 25-20c20 0 25-5 25-24 0-18 6-25 23-28 14-2 23-11 25-25s11-23 25-25 23-11 25-25c3-17 10-23 28-23 19 0 24-5 24-25s5-25 25-25 25-5 25-25 5-25 25-25 25-5 25-25 5-25 25-25 25-5 25-24c0-18 6-25 23-28 14-2 23-11 25-25s11-23 25-25 23-11 25-25c3-17 10-23 28-23 19 0 24-5 24-25 0-18 5-25 20-25s20-7 20-25c0-20 5-25 25-25 18 0 25-5 25-20s7-20 25-20c20 0 25-5 25-24 0-18 6-25 23-28 14-2 23-11 25-25s11-23 25-25 23-11 25-25c3-17 10-23 28-23 19 0 24-5 24-25s5-25 25-25 25-5 25-25 5-25 25-25 25-5 25-25 5-25 25-25 25-5 25-24c0-18 6-25 23-28 14-2 23-11 25-25s11-23 25-25 23-11 25-25c3-17 10-23 28-23 19 0 24-5 24-25 0-18 5-25 20-25s20-7 20-25v-25h-3320-3320v3320 3320h25c20 0 25-5 25-25zm7080-7864c0-65-2-70-22-73-15-2-24-11-26-25-3-19 1-23 22-23 26 0 26-1 26-74v-74l-45-6c-40-6-45-10-45-32 0-24 2-25 45-18l45 6v-3421-3421h-3565-3565v25c0 20 5 25 25 25s25 5 25 25 5 25 25 25 25 5 25 25c0 23 4 25 44 25 39 0 45 3 48 23 2 14 11 23 25 25s23 11 25 25 11 23 25 25 23 11 25 25 11 23 26 25c16 3 22 10 22 28 0 19 5 24 24 24 20 0 25 6 30 44 6 36 11 45 29 48 14 2 23 11 25 25s11 23 25 25 23 11 25 25 11 23 25 25 23 11 25 25 11 23 25 25 23 11 25 26c2 14 10 22 23 22 14 0 19 7 19 25 0 20 5 25 25 25s25 5 25 25 5 25 25 25c18 0 25 5 25 19 0 13 8 21 23 23 14 2 23 11 25 25s11 23 25 25c16 2 23 11 25 30 3 22 9 28 28 28s24 5 24 25c0 18 5 25 19 25 13 0 21 8 23 23 2 14 11 23 25 25s23 11 25 25 11 23 26 25c14 2 22 10 22 23 0 14 7 19 25 19 20 0 25 5 25 25s5 25 25 25 25 5 25 25 5 25 25 25 25 5 25 25 5 25 25 25 25 5 25 25 5 25 25 25 25 5 25 25 5 25 25 25 25 5 25 25 5 25 25 25 25 5 25 25 5 25 25 25 25 5 25 25 5 25 25 25 25 5 25 25c0 18 5 25 19 25 13 0 21 8 23 23 2 14 11 23 25 25s23 11 25 25 11 23 26 25c14 2 22 10 22 23 0 14 7 19 25 19 20 0 25 5 25 25s5 25 25 25 25 5 25 25 5 25 25 25 25 5 25 25 5 25 25 25 25 5 25 25 5 25 25 25 25 5 25 25 5 25 25 25 25 5 25 25 5 25 25 25 25 5 25 25 5 25 26 25 25 4 22 22c-2 15-11 24-25 26-15 2-23 10-23 23 0 14-7 19-25 19s-25-5-25-20-7-20-25-20c-23 0-25-3-25-50s-2-50-25-50c-20 0-25-5-25-25s-5-25-25-25-25-5-25-25-5-25-25-25-25-5-25-25-5-25-25-25c-18 0-25-5-25-19 0-13-8-21-22-23-15-2-24-11-26-25s-11-23-25-25-23-11-25-25-11-23-25-25-23-11-25-25-11-23-25-25-23-11-25-25c-2-15-10-23-23-23-14 0-19-7-19-30 0-25-4-30-25-30-18 0-25-5-25-20s-7-20-25-20c-20 0-25-5-25-25s-5-25-25-25-25-5-25-24c0-20-6-25-45-30-36-6-45-11-45-27 0-14-7-19-30-19-25 0-30-4-30-25 0-20-5-25-25-25s-25-5-25-25c0-18-5-25-19-25-13 0-21-8-23-22-2-17-11-24-30-26-20-2-28-9-28-22 0-12-8-20-22-22-15-2-24-11-26-25s-11-23-25-25-23-11-25-25c-3-18-12-23-48-29-38-5-44-10-44-30 0-19-5-24-25-24s-25-5-25-25-5-25-25-25-25-5-25-25-5-25-25-25-25-5-25-25c0-18-5-25-19-25-13 0-21-8-23-22-2-15-11-24-25-26-15-2-23-10-23-23 0-14-7-19-25-19-20 0-25-5-25-25s-5-25-25-25-25-5-25-25-5-25-25-25-25-5-25-25-5-25-25-25-25-5-25-25-5-25-25-25-25-5-25-25-5-25-25-25-25-5-25-25-5-25-25-25-25-5-25-25-5-25-25-25-25-5-25-25-5-25-25-25c-18 0-25-5-25-20 0-17-7-20-50-20h-50v3465 3465h3565 3565v-69zm8800-3126c0-3188 0-3195-20-3195-13 0-20 7-20 19 0 14-8 21-27 23-20 2-29 9-31 25-2 14-11 23-25 25s-23 11-25 25c-2 15-10 23-23 23-14 0-19 7-19 25 0 20-5 25-25 25s-25 5-25 25-5 25-25 25-25 5-25 25-5 25-25 25-25 5-25 25-5 25-25 25-25 5-25 25-5 25-25 25-25 5-25 25-5 25-25 25-25 5-25 25-5 25-25 25c-18 0-25 5-25 19 0 13-8 21-22 23-15 2-24 11-26 25s-11 23-25 25-23 11-25 25-11 23-25 25-23 11-25 25-11 23-25 25-23 11-25 26c-2 14-10 22-23 22-14 0-19 7-19 25 0 20-5 25-25 25s-25 5-25 25-5 25-25 25-25 5-25 25-5 25-25 25-25 5-25 25-5 25-25 25-25 5-25 25-5 25-25 25-25 5-25 25-5 25-25 25-25 5-25 25-5 25-25 25c-18 0-25 5-25 19 0 13-8 21-22 23-15 2-24 11-26 25s-11 23-25 25-23 11-25 25-11 23-25 25-23 11-25 25-11 23-25 25-23 11-25 26c-2 14-10 22-23 22-14 0-19 7-19 25 0 20-5 25-25 25s-25 5-25 25-5 25-25 25-25 5-25 25-5 25-25 25-25 5-25 25-5 25-25 25-25 5-25 25-5 25-25 25-25 5-25 25-5 25-25 25-25 5-25 25-5 25-25 25c-18 0-25 5-25 19 0 13-8 21-22 23-15 2-24 11-26 25s-11 23-25 25-23 11-25 25-11 23-25 25-23 11-25 25-11 23-25 25-23 11-25 26c-2 14-10 22-23 22-14 0-19 7-19 25 0 20-5 25-25 25s-25 5-25 25-5 25-25 25-25 5-25 25-5 25-25 25-25 5-25 25-5 25-25 25-25 5-25 25-5 25-25 25-25 5-25 25-5 25-25 25-25 5-25 25-5 25-25 25-25 5-25 25-5 25-25 25c-18 0-25 5-25 19 0 13-8 21-22 23-15 2-24 11-26 25s-11 23-25 25-23 11-25 25-11 23-25 25-23 11-25 25-11 23-25 25-23 11-25 26c-2 14-10 22-23 22-14 0-19 7-19 25 0 20-5 25-25 25s-25 5-25 25-5 25-25 25-25 5-25 25-5 25-25 25-25 5-25 25-5 25-25 25-25 5-25 25-5 25-25 25-25 5-25 25-5 25-25 25-25 5-25 25-5 25-25 25c-18 0-25 5-25 19 0 13-8 21-22 23-15 2-24 11-26 25s-11 23-25 25-23 11-25 25-11 23-25 25-23 11-25 25-11 23-25 25-23 11-25 26c-2 14-10 22-23 22-14 0-19 7-19 25 0 20-5 25-25 25s-25 5-25 25-5 25-25 25-25 5-25 25-5 25-25 25-25 5-25 25-5 25-25 25-25 5-25 25-5 25-25 25-25 5-25 25-5 25-25 25-25 5-25 25-5 25-25 25c-18 0-25 5-25 19 0 13-8 21-22 23-15 2-24 11-26 25s-11 23-25 25-23 11-25 25-11 23-25 25-23 11-25 25-11 23-25 25-23 11-25 26c-2 14-10 22-23 22-14 0-19 7-19 25 0 20-5 25-25 25s-25 5-25 25-5 25-25 25-25 5-25 25-5 25-25 25-25 5-25 25-5 25-25 25-25 5-25 25-5 25-25 25-25 5-25 25-5 25-25 25-25 5-25 25-5 25-25 25c-18 0-25 5-25 19 0 13-8 21-22 23-15 2-24 11-26 25s-11 23-25 25-23 11-25 25-11 23-25 25-23 11-25 25-11 23-25 25-23 11-25 26c-2 14-10 22-23 22-14 0-19 7-19 25 0 20-5 25-25 25s-25 5-25 25-5 25-25 25-25 5-25 25-5 25-25 25-25 5-25 25-5 25-25 25-25 5-25 25-5 25-25 25-25 5-25 25-5 25-25 25-25 5-25 25-5 25-25 25c-18 0-25 5-25 19 0 13-8 21-22 23-15 2-24 11-26 25s-11 23-25 25-23 11-25 25-11 23-25 25-23 11-25 25-11 23-25 25-23 11-25 26c-2 14-10 22-23 22-14 0-19 7-19 25 0 20-5 25-25 25s-25 5-25 25-5 25-25 25-25 5-25 25-5 25-25 25-25 5-25 25-5 25-25 25-25 5-25 25-5 25-25 25-25 5-25 25-5 25-25 25-25 5-25 25-5 25-25 25c-18 0-25 5-25 19 0 13-8 21-22 23-15 2-24 11-26 25s-11 23-25 25-23 11-25 25-11 23-25 25-23 11-25 25-11 23-25 25-23 11-25 25-11 23-25 25-23 11-25 26c-2 14-10 22-23 22-14 0-19 7-19 25 0 20-5 25-25 25s-25 5-25 25-5 25-25 25-25 5-25 25-5 25-25 25-25 5-25 25-5 25-25 25-25 5-25 25-5 25-25 25-25 5-25 25-5 25-25 25-25 5-25 25-5 25-25 25c-18 0-25 5-25 19 0 13-8 21-22 23-15 2-24 11-26 25s-11 23-25 25-23 11-25 25-11 23-25 25-23 11-25 25-11 23-25 25-23 11-25 26c-2 14-10 22-23 22-14 0-19 7-19 25 0 20-5 25-25 25s-25 5-25 25-5 25-25 25-25 5-25 25-5 25-25 25-25 5-25 25-5 25-25 25-25 5-25 25v25h3195 3195v-3195zm-7620 2725c0-16 7-20 30-20 25 0 30-4 30-25 0-20 5-25 25-25s25-5 25-25c0-18 5-25 20-25 13 0 20-7 20-20 0-15 7-20 25-20 20 0 25-5 25-25s5-25 25-25 25-5 25-24c0-18 6-25 23-28 14-2 23-11 25-25s11-23 25-25 23-11 25-25c3-17 10-23 28-23 19 0 24-5 24-25s5-25 25-25 25-5 25-25 5-25 25-25 25-5 25-25 5-25 25-25 25-5 25-24c0-18 6-25 23-28 14-2 23-11 25-25s11-23 25-25 23-11 25-25c3-17 10-23 28-23 19 0 24-5 24-25 0-18 5-25 20-25s20-7 20-25c0-20 5-25 25-25 18 0 25-5 25-20s7-20 25-20c20 0 25-5 25-24 0-18 6-25 23-28 14-2 23-11 25-25s11-23 25-25 23-11 25-25c3-17 10-23 28-23 19 0 24-5 24-25s5-25 25-25 25-5 25-25 5-25 25-25 25-5 25-25 5-25 25-25 25-5 25-24c0-18 6-25 23-28 14-2 23-11 25-25s11-23 25-25 23-11 25-25c3-17 10-23 28-23 19 0 24-5 24-25 0-18 5-25 20-25s20-7 20-25c0-20 5-25 25-25 18 0 25-5 25-20s7-20 25-20c20 0 25-5 25-24 0-18 6-25 23-28 14-2 23-11 25-25s11-23 25-25 23-11 25-25c3-17 10-23 28-23 19 0 24-5 24-25s5-25 25-25 25-5 25-25 5-25 25-25 25-5 25-25 5-25 25-25 25-5 25-24c0-18 6-25 23-28 14-2 23-11 25-25s11-23 25-25 23-11 25-25c3-17 10-23 28-23 19 0 24-5 24-25 0-18 5-25 20-25s20-7 20-25c0-20 5-25 25-25 18 0 25-5 25-20s7-20 25-20c20 0 25-5 25-24 0-18 6-25 23-28 14-2 23-11 25-25s11-23 25-25 23-11 25-25c3-17 10-23 28-23 19 0 24-5 24-25s5-25 25-25 25-5 25-25 5-25 25-25 25-5 25-25 5-25 25-25 25-5 25-24c0-18 6-25 23-28 14-2 23-11 25-25s11-23 25-25 23-11 25-25c3-17 10-23 28-23 19 0 24-5 24-25s5-25 25-25 25-5 25-25c0-18 5-25 20-25 13 0 20-7 20-20 0-15 7-20 25-20 20 0 25-5 25-25s5-25 25-25 25-5 25-24c0-18 6-25 23-28 14-2 23-11 25-25 3-17 10-23 28-23 19 0 24-5 24-25s5-25 25-25 25-5 25-25 5-25 25-25 25-5 25-25 5-25 25-25 25-5 25-25 5-25 25-25 25-5 25-24c0-18 6-25 23-28 14-2 23-11 25-25 3-17 10-23 28-23 19 0 24-5 24-25s5-25 25-25 25-5 25-25c0-18 5-25 20-25 13 0 20-7 20-20 0-15 7-20 25-20 20 0 25-5 25-25s5-25 25-25 25-5 25-24c0-18 6-25 23-28 14-2 23-11 25-25 3-17 10-23 28-23 19 0 24-5 24-25s5-25 25-25 25-5 25-25 5-25 25-25 25-5 25-25 5-25 25-25 25-5 25-25 5-25 25-25 25-5 25-24c0-18 6-25 23-28 14-2 23-11 25-25 3-17 10-23 28-23 19 0 24-5 24-25s5-25 25-25 25-5 25-25c0-18 5-25 20-25s20-7 20-25c0-20 5-25 25-25 18 0 25-5 25-20s7-20 25-20c20 0 25-5 25-24 0-18 6-25 23-28 14-2 23-11 25-25s11-23 25-25 23-11 25-25c3-17 10-23 28-23 19 0 24-5 24-25s5-25 25-25 25-5 25-25 5-25 25-25 25-5 25-25 5-25 25-25 25-5 25-24c0-18 6-25 23-28 14-2 23-11 25-25s11-23 25-25 23-11 25-25c3-17 10-23 28-23 19 0 24-5 24-25 0-18 5-25 20-25s20-7 20-25c0-20 5-25 25-25 18 0 25-5 25-20s7-20 25-20c20 0 25-5 25-24 0-18 6-25 23-28 14-2 23-11 25-25s11-23 25-25 23-11 25-25c3-17 10-23 28-23 19 0 24-5 24-25s5-25 25-25 25-5 25-25 5-25 25-25 25-5 25-25 5-25 25-25 25-5 25-24c0-18 6-25 23-28 14-2 23-11 25-25s11-23 25-25 23-11 25-25c3-17 10-23 28-23 19 0 24-5 24-25 0-18 5-25 20-25s20-7 20-25c0-20 5-25 25-25 18 0 25-5 25-20s7-20 25-20c20 0 25-5 25-24 0-18 6-25 23-28 14-2 23-11 25-25s11-23 25-25 23-11 25-25c3-17 10-23 28-23 19 0 24-5 24-25s5-25 25-25 25-5 25-25 5-25 25-25 25-5 25-25 5-25 25-25 25-5 25-25 5-25 25-25 25-5 25-24c0-18 6-25 23-28 14-2 23-11 25-25 3-17 10-23 28-23 19 0 24-5 24-25s5-25 25-25 25-5 25-25c0-18 5-25 20-25 13 0 20-7 20-20 0-15 7-20 25-20 20 0 25-5 25-25s5-25 25-25 25-5 25-24c0-18 6-25 23-28 14-2 23-11 25-25 3-17 10-23 28-23 19 0 24-5 24-25s5-25 25-25 25-5 25-25 5-25 25-25 25-5 25-25 5-25 25-25 25-5 25-25 5-25 25-25 25-5 25-24c0-18 6-25 23-28 14-2 23-11 25-26 3-16 10-22 28-22 19 0 24-5 24-25s5-25 25-25 25-5 25-25c0-18 5-25 20-25 13 0 20-7 20-20 0-15 7-20 25-20 20 0 25-5 25-25s5-25 25-25 25-5 25-24c0-18 6-25 23-28 14-2 23-11 25-25 3-17 10-23 28-23 19 0 24-5 24-25s5-25 25-25 25-5 25-25 5-25 25-25 25-5 25-25 5-25 25-25 25-5 25-25 5-25 25-25 25-5 25-24c0-18 6-25 23-28 14-2 23-11 25-26 3-16 10-22 28-22 19 0 24-5 24-25s5-25 25-25 25-5 25-25c0-18 5-25 20-25s20-7 20-25v-25l-3392 2-3393 3-2 3350c-2 1843 0 3367 3 3388 4 28 10 37 25 37 12 0 19-7 19-20z"/>
<path d="m9430 12670v-100h25 25v100 100h-25-25v-100z"/>
<path d="m8100 8071c0-13-8-21-22-23-15-2-24-11-26-25-2-15-10-23-23-23-14 0-19-7-19-25 0-20-5-25-25-25s-25-5-25-25-5-25-25-25-25-5-25-25-5-25-25-25-25-5-25-25-5-25-25-25-25-5-25-25-5-25-25-25-25-5-25-25-5-25-25-25-25-5-25-25-5-25-25-25-25-5-25-25-5-25-25-25c-23 0-25-4-25-44v-44l-45-6c-36-6-45-11-45-27 0-14-7-19-25-19-20 0-25-5-25-25 0-23 4-25 44-25 39 0 45 3 48 23 2 14 11 23 26 25 16 3 22 10 22 28 0 19 5 24 24 24 18 0 25 6 28 23 2 14 11 23 26 25 16 3 22 10 22 28 0 19 5 24 25 24s25 5 25 25 5 25 25 25c18 0 25 5 25 20s7 20 25 20c20 0 25 5 25 25s5 25 25 25 25 5 25 25 5 25 25 25 25 5 25 24c0 18 6 25 23 28 14 2 23 11 25 26 2 14 10 22 23 22 14 0 19 7 19 25 0 20 5 25 24 25 20 0 25 6 30 44 6 36 11 45 29 48 14 2 23 11 25 26 3 19-1 22-27 22-24 0-31-4-31-19z"/>
<path d="m7420 7580c0-13 7-20 20-20s20 7 20 20-7 20-20 20-20-7-20-20z"/>
<path d="m7370 7530c0-15 7-20 25-20s25 5 25 20-7 20-25 20-25-5-25-20z"/>
<path d="m7320 7480c0-15 7-20 25-20s25 5 25 20-7 20-25 20-25-5-25-20z"/>
<path d="m7270 7430c0-15 7-20 25-20s25 5 25 20-7 20-25 20-25-5-25-20z"/>
<path d="m7420 7380c0-15-7-20-25-20-20 0-25-5-25-25s-5-25-25-25-25-5-25-25c0-23-3-25-50-25s-50-2-50-25c0-20-5-25-25-25-23 0-25-3-25-50 0-43-3-50-20-50-13 0-20-7-20-20 0-17 7-20 45-20 41 0 45 2 45 25 0 20 5 25 25 25 23 0 25 4 25 45s2 45 25 45c20 0 25 5 25 25s5 25 25 25 25 5 25 25 5 25 25 25 25 5 25 25c0 18 5 25 20 25 13 0 20 7 20 20s-7 20-20 20-20-7-20-20z"/>
<path d="m6880 7040c0-13 7-20 20-20s20 7 20 20-7 20-20 20-20-7-20-20z"/>
<path d="m6830 6990c0-13 7-20 20-20s20 7 20 20-7 20-20 20-20-7-20-20z"/>
<path d="m6680 6650c0-13 7-20 20-20s20 7 20 20-7 20-20 20-20-7-20-20z"/>
<path d="m5900 5910c0-13 7-20 20-20s20 7 20 20-7 20-20 20-20-7-20-20z"/>
<path d="m5160 5370c0-13 7-20 20-20s20 7 20 20-7 20-20 20-20-7-20-20z"/>
<path d="m4860 4925c0-20-5-25-25-25s-25-5-25-25-5-25-25-25c-18 0-25-5-25-20 0-16-9-21-50-26-44-6-50-9-50-30 0-19-5-24-25-24-18 0-25-5-25-19 0-16-9-21-45-26-43-7-44-8-51-51-5-34-11-44-28-46-13-2-22-11-24-25-2-15-10-23-23-23-14 0-19-7-19-25 0-20-5-25-25-25-21 0-25-5-25-31s3-30 23-27c16 2 23 11 25 31 3 25 7 27 48 27 40 0 44 2 44 25 0 20 5 25 25 25s25 5 25 25 5 25 25 25 25 5 25 25 5 25 25 25 25 5 25 25 5 25 25 25c18 0 25 5 25 20s7 20 25 20c20 0 25 5 25 25s5 25 25 25 25 5 25 25 5 25 25 25 25 5 25 25c0 18 5 25 20 25s20 7 20 25-5 25-20 25-20-7-20-25z"/>
<path d="m4270 4385c0-20-5-25-25-25s-25-5-25-25-5-25-25-25-25-5-25-25-5-25-25-25-25-5-25-25-5-25-25-25-25-5-25-25c0-27 5-28 63-19 36 6 37 8 37 50 0 40 2 44 25 44 20 0 25 5 25 25s5 25 25 25 25 5 25 25 5 25 25 25 25 5 25 25-5 25-25 25-25-5-25-25z"/>
<path d="m3930 4096c0-7-3-28-6-45-6-28-4-31 19-31 20 0 26 6 31 31 10 51 8 59-19 59-15 0-25-6-25-14z"/>
<path d="m3830 3940c0-13 7-20 20-20s20 7 20 20-7 20-20 20-20-7-20-20z"/>
<path d="m3780 3895c0-18 5-25 20-25s20 7 20 25-5 25-20 25-20-7-20-25z"/>
<path d="m3430 3745c0-20-5-25-25-25s-25-5-25-25c0-18-5-25-20-25s-20-7-20-25 5-25 19-25c13 0 21-8 23-22 2-15 11-24 26-26 18-3 22 1 22 22s-5 26-25 26-25 5-25 25 5 25 25 25c18 0 25-5 25-19s10-20 38-25c57-9 62-8 62 19 0 20 5 25 25 25s25 5 25 25c0 23-4 25-45 25s-45-2-45-25c0-21-5-25-30-25s-30 4-30 25c0 20 5 25 25 25s25 5 25 25-5 25-25 25-25-5-25-25z"/>
<path d="m3090 3400c0-13 7-20 20-20s20 7 20 20-7 20-20 20-20-7-20-20z"/>
<path d="m3140 3350c0-15 7-20 25-20s25 5 25 20-7 20-25 20-25-5-25-20z"/>
<path d="m5020 16c0-14 20-16 160-16 100 0 160 4 160 10s-55 10-144 10c-79 0-151 3-160 6-11 4-16 1-16-10z"/>

  </g>
</svg>
