<?xml version="1.0" encoding="UTF-8" standalone="yes"?>
<svg version="1.2" width="100%" viewBox="0 0 192 192" xml:space="preserve" baseProfile="tiny-ps" xmlns="http://www.w3.org/2000/svg">
  <title>bimi-svg-tiny-12-ps</title>
  <path fill="#000000" stroke="none" d="&#xA;M193.000000,86.000000 &#xA;&#x9;C193.000000,122.000000 193.000000,157.500000 193.000000,193.000000 &#xA;&#x9;C129.000000,193.000000 65.000000,193.000000 1.000000,193.000000 &#xA;&#x9;C1.000000,129.000000 1.000000,65.000000 1.000000,1.000000 &#xA;&#x9;C65.000000,1.000000 129.000000,1.000000 193.000000,1.000000 &#xA;&#x9;C193.000000,29.166666 193.000000,57.333332 193.000000,86.000000 &#xA;M20.690830,4.993910 &#xA;&#x9;C19.031059,4.928781 17.328035,5.080901 15.719079,4.760557 &#xA;&#x9;C9.088575,3.440420 5.996717,5.740448 5.996281,12.201236 &#xA;&#x9;C5.992476,68.521431 5.992978,124.841621 5.995446,181.161819 &#xA;&#x9;C5.995745,187.986771 6.006004,187.913116 13.069567,188.022247 &#xA;&#x9;C32.410568,188.320999 51.766640,187.174408 71.097054,188.986893 &#xA;&#x9;C79.080925,189.735474 87.145828,190.069717 95.162331,189.930008 &#xA;&#x9;C113.853645,189.604248 132.542755,188.999603 151.223358,188.267578 &#xA;&#x9;C163.037964,187.804611 174.835632,186.908890 187.079987,186.181183 &#xA;&#x9;C187.079987,125.455330 187.079987,65.588676 187.079987,4.912763 &#xA;&#x9;C131.924927,6.663921 76.783890,6.445105 20.690830,4.993910 &#xA;z"/>
  <path fill="#C90000" stroke="none" d="&#xA;M21.169556,4.993931 &#xA;&#x9;C76.783890,6.445105 131.924927,6.663921 187.079987,4.912763 &#xA;&#x9;C187.079987,65.588676 187.079987,125.455330 187.079987,186.181183 &#xA;&#x9;C174.835632,186.908890 163.037964,187.804611 151.223358,188.267578 &#xA;&#x9;C132.542755,188.999603 113.853645,189.604248 95.162331,189.930008 &#xA;&#x9;C87.145828,190.069717 79.080925,189.735474 71.097054,188.986893 &#xA;&#x9;C51.766640,187.174408 32.410568,188.320999 13.069567,188.022247 &#xA;&#x9;C6.006004,187.913116 5.995745,187.986771 5.995446,181.161819 &#xA;&#x9;C5.992978,124.841621 5.992476,68.521431 5.996281,12.201236 &#xA;&#x9;C5.996717,5.740448 9.088575,3.440420 15.719079,4.760557 &#xA;&#x9;C17.328035,5.080901 19.031059,4.928781 21.169556,4.993931 &#xA;M84.091721,104.895805 &#xA;&#x9;C62.717674,104.895805 41.343632,104.895805 20.195255,104.895805 &#xA;&#x9;C20.195255,126.472763 20.195255,147.200638 20.195255,167.928513 &#xA;&#x9;C20.688583,168.203110 21.181913,168.477707 21.675241,168.752289 &#xA;&#x9;C27.590157,162.530838 33.461235,156.266205 39.484154,150.151138 &#xA;&#x9;C40.124241,149.501266 41.653530,149.727203 42.770306,149.546829 &#xA;&#x9;C42.600315,150.686554 42.850105,152.245850 42.195290,152.900986 &#xA;&#x9;C35.762829,159.336594 29.179861,165.621780 22.312862,172.227310 &#xA;&#x9;C22.726362,172.748306 23.139862,173.269302 24.406782,173.618164 &#xA;&#x9;C44.820053,173.618164 65.233330,173.618164 86.224792,173.618164 &#xA;&#x9;C86.224792,152.837006 86.224792,132.888046 86.332771,112.643517 &#xA;&#x9;C85.864281,112.519829 85.395790,112.396149 84.439514,112.771362 &#xA;&#x9;C83.116943,113.929688 81.794380,115.088005 80.014351,115.879295 &#xA;&#x9;C79.621284,114.802399 79.228218,113.725502 79.170181,112.097267 &#xA;&#x9;C81.224167,110.099785 83.278152,108.102303 85.635948,105.957352 &#xA;&#x9;C85.707870,105.600014 85.779793,105.242683 85.851723,104.885345 &#xA;&#x9;C85.578697,104.878456 85.305672,104.871567 84.091721,104.895805 &#xA;M155.351410,43.834896 &#xA;&#x9;C144.487213,54.790955 133.618576,65.742607 122.760971,76.705208 &#xA;&#x9;C118.323814,81.185287 113.910591,85.689072 108.948006,90.728943 &#xA;&#x9;C130.658600,90.728943 151.341064,90.728943 172.310120,90.728943 &#xA;&#x9;C172.310120,69.693924 172.310120,49.001823 172.310120,28.309725 &#xA;&#x9;C171.902222,27.980474 171.494308,27.651222 171.086411,27.321970 &#xA;&#x9;C166.035721,32.691422 160.985031,38.060871 155.351410,43.834896 &#xA;M159.037704,169.464218 &#xA;&#x9;C139.725403,150.173492 120.413109,130.882751 100.357803,110.849838 &#xA;&#x9;C100.357803,132.480103 100.357803,152.681030 100.357803,173.113525 &#xA;&#x9;C120.976326,173.113525 141.287415,173.113525 162.324203,173.113525 &#xA;&#x9;C161.045227,171.660187 160.296432,170.809311 159.037704,169.464218 &#xA;M61.013664,71.486259 &#xA;&#x9;C47.563126,58.044628 34.112583,44.602993 20.031986,30.531721 &#xA;&#x9;C20.031986,51.351471 20.031986,71.008926 20.031986,90.668678 &#xA;&#x9;C40.010052,90.668678 59.508358,90.668678 79.006660,90.668678 &#xA;&#x9;C79.242355,90.304482 79.478050,89.940285 79.713745,89.576080 &#xA;&#x9;C73.648491,83.711372 67.583237,77.846657 61.013664,71.486259 &#xA;M167.272278,104.901543 &#xA;&#x9;C149.876160,104.901543 132.480042,104.901543 115.227364,104.901543 &#xA;&#x9;C134.438232,124.134651 153.398087,143.116455 172.255447,161.995651 &#xA;&#x9;C172.132874,162.259018 172.504028,161.832886 172.505096,161.405823 &#xA;&#x9;C172.549545,143.593063 172.527802,125.780060 172.605301,107.967491 &#xA;&#x9;C172.620102,104.565758 170.392090,104.893188 167.272278,104.901543 &#xA;M101.011238,70.269394 &#xA;&#x9;C101.011238,72.521729 101.011238,74.774071 101.011238,76.639458 &#xA;&#x9;C119.757576,57.849026 138.362961,39.199883 156.602875,20.917061 &#xA;&#x9;C138.419922,20.917061 119.417183,20.917061 101.011238,20.917061 &#xA;&#x9;C101.011238,37.363136 101.011238,53.348553 101.011238,70.269394 &#xA;M86.153175,55.499767 &#xA;&#x9;C86.153175,44.036598 86.153175,32.573433 86.153175,20.788263 &#xA;&#x9;C67.219414,20.788263 48.833473,20.788263 31.607103,20.788263 &#xA;&#x9;C49.515648,38.730473 67.837311,57.086582 86.153183,75.436890 &#xA;&#x9;C86.153183,69.427536 86.153183,62.963535 86.153175,55.499767 &#xA;z"/>
  <path fill="#030000" stroke="none" d="&#xA;M80.471809,116.246330 &#xA;&#x9;C81.794380,115.088005 83.116943,113.929688 85.015388,112.673767 &#xA;&#x9;C85.802437,112.697144 86.013618,112.818115 86.224792,112.939095 &#xA;&#x9;C86.224792,132.888046 86.224792,152.837006 86.224792,173.618164 &#xA;&#x9;C65.233330,173.618164 44.820053,173.618164 23.758984,173.430573 &#xA;&#x9;C22.954002,172.811874 22.796818,172.380783 22.639633,171.949692 &#xA;&#x9;C29.179861,165.621780 35.762829,159.336594 42.195290,152.900986 &#xA;&#x9;C42.850105,152.245850 42.600315,150.686554 42.770302,149.546829 &#xA;&#x9;C41.653530,149.727203 40.124241,149.501266 39.484154,150.151138 &#xA;&#x9;C33.461235,156.266205 27.590157,162.530838 21.675241,168.752289 &#xA;&#x9;C21.181913,168.477707 20.688583,168.203110 20.195255,167.928513 &#xA;&#x9;C20.195255,147.200638 20.195255,126.472763 20.195255,104.895805 &#xA;&#x9;C41.343632,104.895805 62.717674,104.895805 84.681732,105.179489 &#xA;&#x9;C85.291878,105.677048 85.312012,105.890930 85.332138,106.104813 &#xA;&#x9;C83.278152,108.102303 81.224167,110.099785 78.654640,112.487511 &#xA;&#x9;C76.095871,115.999855 74.052650,119.121948 72.009422,122.244049 &#xA;&#x9;C72.483475,122.613426 72.957520,122.982803 73.431572,123.352180 &#xA;&#x9;C75.778320,120.983559 78.125061,118.614944 80.471809,116.246330 &#xA;M52.001808,142.329941 &#xA;&#x9;C52.050507,142.009460 52.133911,141.688553 52.129883,141.368744 &#xA;&#x9;C52.128384,141.250031 51.831974,141.023651 51.821564,141.032150 &#xA;&#x9;C49.407143,143.001129 47.006207,144.986649 44.604877,146.971695 &#xA;&#x9;C44.968994,147.395767 45.333111,147.819839 45.697227,148.243912 &#xA;&#x9;C47.691364,146.429886 49.685505,144.615860 52.001808,142.329941 &#xA;M62.996166,129.795547 &#xA;&#x9;C63.357792,129.729355 63.719418,129.663177 64.081047,129.597000 &#xA;&#x9;C64.044930,129.449844 64.008804,129.302689 63.972691,129.155533 &#xA;&#x9;C63.623436,129.270050 63.274181,129.384567 62.996166,129.795547 &#xA;M59.065456,133.606720 &#xA;&#x9;C59.388618,133.715286 59.711781,133.823853 60.034946,133.932434 &#xA;&#x9;C60.078861,133.794800 60.122776,133.657166 60.166683,133.519531 &#xA;&#x9;C59.829758,133.456726 59.492828,133.393936 59.065456,133.606720 &#xA;M54.437611,139.497452 &#xA;&#x9;C54.437611,139.497452 54.499897,139.468719 54.437611,139.497452 &#xA;z"/>
  <path fill="#050000" stroke="none" d="&#xA;M155.642883,43.632610 &#xA;&#x9;C160.985031,38.060871 166.035721,32.691422 171.086411,27.321970 &#xA;&#x9;C171.494308,27.651222 171.902222,27.980474 172.310120,28.309725 &#xA;&#x9;C172.310120,49.001823 172.310120,69.693924 172.310120,90.728943 &#xA;&#x9;C151.341064,90.728943 130.658600,90.728943 108.948006,90.728943 &#xA;&#x9;C113.910591,85.689072 118.323814,81.185287 122.760971,76.705208 &#xA;&#x9;C133.618576,65.742607 144.487213,54.790955 155.642883,43.632610 &#xA;z"/>
  <path fill="#050000" stroke="none" d="&#xA;M159.292664,169.711334 &#xA;&#x9;C160.296432,170.809311 161.045227,171.660187 162.324203,173.113525 &#xA;&#x9;C141.287415,173.113525 120.976326,173.113525 100.357803,173.113525 &#xA;&#x9;C100.357803,152.681030 100.357803,132.480103 100.357803,110.849838 &#xA;&#x9;C120.413109,130.882751 139.725403,150.173492 159.292664,169.711334 &#xA;z"/>
  <path fill="#010000" stroke="none" d="&#xA;M61.265823,71.734100 &#xA;&#x9;C67.583237,77.846657 73.648491,83.711372 79.713745,89.576080 &#xA;&#x9;C79.478050,89.940285 79.242355,90.304482 79.006660,90.668678 &#xA;&#x9;C59.508358,90.668678 40.010052,90.668678 20.031986,90.668678 &#xA;&#x9;C20.031986,71.008926 20.031986,51.351471 20.031986,30.531721 &#xA;&#x9;C34.112583,44.602993 47.563126,58.044628 61.265823,71.734100 &#xA;z"/>
  <path fill="#050000" stroke="none" d="&#xA;M167.742859,104.902321 &#xA;&#x9;C170.392090,104.893188 172.620102,104.565758 172.605301,107.967491 &#xA;&#x9;C172.527802,125.780060 172.549545,143.593063 172.505096,161.405823 &#xA;&#x9;C172.504028,161.832886 172.132874,162.259018 172.255447,161.995651 &#xA;&#x9;C153.398087,143.116455 134.438232,124.134651 115.227364,104.901543 &#xA;&#x9;C132.480042,104.901543 149.876160,104.901543 167.742859,104.902321 &#xA;z"/>
  <path fill="#050000" stroke="none" d="&#xA;M101.011238,69.801682 &#xA;&#x9;C101.011238,53.348553 101.011238,37.363136 101.011238,20.917061 &#xA;&#x9;C119.417183,20.917061 138.419922,20.917061 156.602875,20.917061 &#xA;&#x9;C138.362961,39.199883 119.757576,57.849026 101.011238,76.639458 &#xA;&#x9;C101.011238,74.774071 101.011238,72.521729 101.011238,69.801682 &#xA;z"/>
  <path fill="#050000" stroke="none" d="&#xA;M86.153183,55.999649 &#xA;&#x9;C86.153183,62.963535 86.153183,69.427536 86.153183,75.436890 &#xA;&#x9;C67.837311,57.086582 49.515648,38.730473 31.607103,20.788263 &#xA;&#x9;C48.833473,20.788263 67.219414,20.788263 86.153175,20.788263 &#xA;&#x9;C86.153175,32.573433 86.153175,44.036598 86.153183,55.999649 &#xA;z"/>
  <path fill="#B00000" stroke="none" d="&#xA;M80.243080,116.062813 &#xA;&#x9;C78.125061,118.614944 75.778320,120.983559 73.431572,123.352180 &#xA;&#x9;C72.957520,122.982803 72.483475,122.613426 72.009422,122.244049 &#xA;&#x9;C74.052650,119.121948 76.095871,115.999855 78.487129,112.763184 &#xA;&#x9;C79.228218,113.725502 79.621284,114.802399 80.243080,116.062813 &#xA;z"/>
  <path fill="#B00000" stroke="none" d="&#xA;M86.278778,112.791306 &#xA;&#x9;C86.013618,112.818115 85.802437,112.697144 85.259277,112.424316 &#xA;&#x9;C85.395790,112.396149 85.864281,112.519829 86.278778,112.791306 &#xA;z"/>
  <path fill="#B00000" stroke="none" d="&#xA;M22.476250,172.088501 &#xA;&#x9;C22.796818,172.380783 22.954002,172.811874 23.332273,173.516632 &#xA;&#x9;C23.139862,173.269302 22.726362,172.748306 22.476250,172.088501 &#xA;z"/>
  <path fill="#B00000" stroke="none" d="&#xA;M85.484039,106.031082 &#xA;&#x9;C85.312012,105.890930 85.291878,105.677048 85.152191,105.163918 &#xA;&#x9;C85.305672,104.871567 85.578697,104.878456 85.851715,104.885345 &#xA;&#x9;C85.779793,105.242683 85.707870,105.600014 85.484039,106.031082 &#xA;z"/>
  <path fill="#3A0301" stroke="none" d="&#xA;M51.840729,142.565887 &#xA;&#x9;C49.685505,144.615860 47.691364,146.429886 45.697227,148.243912 &#xA;&#x9;C45.333111,147.819839 44.968994,147.395767 44.604877,146.971695 &#xA;&#x9;C47.006207,144.986649 49.407143,143.001129 51.821564,141.032150 &#xA;&#x9;C51.831974,141.023651 52.128384,141.250031 52.129883,141.368744 &#xA;&#x9;C52.133911,141.688553 52.050507,142.009460 51.840729,142.565887 &#xA;z"/>
  <path fill="#180100" stroke="none" d="&#xA;M62.960548,129.647308 &#xA;&#x9;C63.274181,129.384567 63.623436,129.270050 63.972691,129.155533 &#xA;&#x9;C64.008804,129.302689 64.044930,129.449844 64.081047,129.597000 &#xA;&#x9;C63.719418,129.663177 63.357792,129.729355 62.960548,129.647308 &#xA;z"/>
  <path fill="#180100" stroke="none" d="&#xA;M59.110680,133.468933 &#xA;&#x9;C59.492828,133.393936 59.829758,133.456726 60.166687,133.519531 &#xA;&#x9;C60.122776,133.657166 60.078861,133.794800 60.034943,133.932434 &#xA;&#x9;C59.711781,133.823853 59.388618,133.715286 59.110680,133.468933 &#xA;z"/>
  <path fill="#3A0301" stroke="none" d="&#xA;M54.468754,139.483093 &#xA;&#x9;C54.499897,139.468719 54.437611,139.497452 54.468754,139.483093 &#xA;z"/>
</svg>